STARTFONT 2.1
COMMENT
COMMENT Converted from OpenType font "DejaVuSans-Bold.ttf" by "otf2bdf 3.0".
COMMENT
FONT -FreeType-DejaVu Sans-Bold-R-Normal--17-170-72-72-P-108-ISO10646-1
SIZE 17 72 72
FONTBOUNDINGBOX 52 26 -18 -7
STARTPROPERTIES 19
FOUNDRY "FreeType"
FAMILY_NAME "DejaVu Sans"
WEIGHT_NAME "Bold"
SLANT "R"
SETWIDTH_NAME "Normal"
ADD_STYLE_NAME ""
PIXEL_SIZE 17
POINT_SIZE 170
RESOLUTION_X 72
RESOLUTION_Y 72
SPACING "P"
AVERAGE_WIDTH 108
CHARSET_REGISTRY "ISO10646"
CHARSET_ENCODING "1"
FONT_ASCENT 15
FONT_DESCENT 4
COPYRIGHT "Copyright (c) 2003 by Bitstream, Inc. All Rights Reserved.  Copyright (c) 2006 by Tavmjong Bah. All Rights Reserved.  DejaVu changes are in public domain  "
_OTF_FONTFILE "DejaVuSans-Bold.ttf"
_OTF_PSNAME "DejaVuSans-Bold"
ENDPROPERTIES
CHARS 5366
STARTCHAR 0020
ENCODING 32
SWIDTH 352 0
DWIDTH 6 0
BBX 0 0 0 0
BITMAP
ENDCHAR
STARTCHAR 0021
ENCODING 33
SWIDTH 470 0
DWIDTH 8 0
BBX 3 12 2 0
BITMAP
E0
E0
E0
E0
E0
E0
60
60
00
E0
E0
E0
ENDCHAR
STARTCHAR 0022
ENCODING 34
SWIDTH 529 0
DWIDTH 9 0
BBX 5 5 2 7
BITMAP
D8
D8
D8
D8
D8
ENDCHAR
STARTCHAR 0023
ENCODING 35
SWIDTH 823 0
DWIDTH 14 0
BBX 12 12 1 0
BITMAP
0440
0CC0
0CC0
7FF0
7FF0
1980
1980
FFE0
FFE0
3300
3300
3300
ENDCHAR
STARTCHAR 0024
ENCODING 36
SWIDTH 705 0
DWIDTH 12 0
BBX 10 16 1 -3
BITMAP
0C00
0C00
3F00
7F80
EC80
EC00
7C00
7F80
0F80
0DC0
8DC0
FF80
3F00
0C00
0C00
0C00
ENDCHAR
STARTCHAR 0025
ENCODING 37
SWIDTH 1000 0
DWIDTH 17 0
BBX 16 12 1 0
BITMAP
7830
CC20
CC60
CCC0
CC80
CDBC
7B66
0266
0667
0C66
0C66
183C
ENDCHAR
STARTCHAR 0026
ENCODING 38
SWIDTH 882 0
DWIDTH 15 0
BBX 13 12 1 0
BITMAP
1F00
3F80
3880
3800
3C00
7E30
FF30
E7F0
E3E0
F1E0
7FF0
3F78
ENDCHAR
STARTCHAR 0027
ENCODING 39
SWIDTH 294 0
DWIDTH 5 0
BBX 2 5 2 7
BITMAP
C0
C0
C0
C0
C0
ENDCHAR
STARTCHAR 0028
ENCODING 40
SWIDTH 470 0
DWIDTH 8 0
BBX 5 15 1 -2
BITMAP
18
38
30
70
70
60
60
E0
60
60
70
70
30
38
18
ENDCHAR
STARTCHAR 0029
ENCODING 41
SWIDTH 470 0
DWIDTH 8 0
BBX 4 15 2 -2
BITMAP
C0
E0
60
70
70
70
70
70
70
70
70
70
60
E0
C0
ENDCHAR
STARTCHAR 002A
ENCODING 42
SWIDTH 529 0
DWIDTH 9 0
BBX 7 8 1 4
BITMAP
10
92
D6
7C
7C
D6
92
10
ENDCHAR
STARTCHAR 002B
ENCODING 43
SWIDTH 823 0
DWIDTH 14 0
BBX 10 10 2 0
BITMAP
0C00
0C00
0C00
0C00
FFC0
FFC0
0C00
0C00
0C00
0C00
ENDCHAR
STARTCHAR 002C
ENCODING 44
SWIDTH 352 0
DWIDTH 6 0
BBX 4 6 1 -3
BITMAP
70
70
70
60
E0
C0
ENDCHAR
STARTCHAR 002D
ENCODING 45
SWIDTH 411 0
DWIDTH 7 0
BBX 5 2 1 4
BITMAP
F8
F8
ENDCHAR
STARTCHAR 002E
ENCODING 46
SWIDTH 352 0
DWIDTH 6 0
BBX 3 3 2 0
BITMAP
E0
E0
E0
ENDCHAR
STARTCHAR 002F
ENCODING 47
SWIDTH 352 0
DWIDTH 6 0
BBX 6 14 0 -2
BITMAP
0C
0C
08
18
18
10
30
30
30
60
60
60
C0
C0
ENDCHAR
STARTCHAR 0030
ENCODING 48
SWIDTH 705 0
DWIDTH 12 0
BBX 10 12 1 0
BITMAP
1E00
7F80
7380
E1C0
E1C0
E1C0
E1C0
E1C0
E1C0
7380
7F80
1E00
ENDCHAR
STARTCHAR 0031
ENCODING 49
SWIDTH 705 0
DWIDTH 12 0
BBX 9 12 2 0
BITMAP
7C00
FC00
9C00
1C00
1C00
1C00
1C00
1C00
1C00
1C00
FF80
FF80
ENDCHAR
STARTCHAR 0032
ENCODING 50
SWIDTH 705 0
DWIDTH 12 0
BBX 9 12 1 0
BITMAP
3E00
FF80
C780
8380
0380
0380
0700
0E00
3C00
7800
FF80
FF80
ENDCHAR
STARTCHAR 0033
ENCODING 51
SWIDTH 705 0
DWIDTH 12 0
BBX 9 12 1 0
BITMAP
3E00
7F80
4380
0380
0380
3F00
3F80
0380
0380
8380
FF80
7E00
ENDCHAR
STARTCHAR 0034
ENCODING 52
SWIDTH 705 0
DWIDTH 12 0
BBX 10 12 1 0
BITMAP
0F00
0F00
1F00
3700
7700
6700
C700
FFC0
FFC0
0700
0700
0700
ENDCHAR
STARTCHAR 0035
ENCODING 53
SWIDTH 705 0
DWIDTH 12 0
BBX 10 12 1 0
BITMAP
7F80
7F80
6000
6000
7E00
7F80
4380
03C0
03C0
8380
FF80
3E00
ENDCHAR
STARTCHAR 0036
ENCODING 54
SWIDTH 705 0
DWIDTH 12 0
BBX 10 12 1 0
BITMAP
1F00
3F80
7080
E000
EF00
FF80
F3C0
F1C0
F1C0
73C0
7F80
1F00
ENDCHAR
STARTCHAR 0037
ENCODING 55
SWIDTH 705 0
DWIDTH 12 0
BBX 9 12 1 0
BITMAP
FF80
FF80
0380
0780
0700
0700
0E00
0E00
1C00
1C00
3800
3800
ENDCHAR
STARTCHAR 0038
ENCODING 56
SWIDTH 705 0
DWIDTH 12 0
BBX 10 12 1 0
BITMAP
3F00
7F80
F380
E3C0
7380
3F00
7F80
E3C0
E1C0
E3C0
7F80
3F00
ENDCHAR
STARTCHAR 0039
ENCODING 57
SWIDTH 705 0
DWIDTH 12 0
BBX 10 12 1 0
BITMAP
3E00
7F00
E380
E380
E3C0
E3C0
7FC0
3DC0
0380
4380
7F00
3E00
ENDCHAR
STARTCHAR 003A
ENCODING 58
SWIDTH 411 0
DWIDTH 7 0
BBX 3 9 2 0
BITMAP
E0
E0
E0
00
00
00
E0
E0
E0
ENDCHAR
STARTCHAR 003B
ENCODING 59
SWIDTH 411 0
DWIDTH 7 0
BBX 4 12 1 -3
BITMAP
70
70
70
00
00
00
70
70
70
60
E0
C0
ENDCHAR
STARTCHAR 003C
ENCODING 60
SWIDTH 823 0
DWIDTH 14 0
BBX 10 10 2 0
BITMAP
0040
03C0
0F80
7E00
F000
F000
7E00
0F80
03C0
0040
ENDCHAR
STARTCHAR 003D
ENCODING 61
SWIDTH 823 0
DWIDTH 14 0
BBX 10 6 2 2
BITMAP
FFC0
FFC0
0000
0000
FFC0
FFC0
ENDCHAR
STARTCHAR 003E
ENCODING 62
SWIDTH 823 0
DWIDTH 14 0
BBX 10 10 2 0
BITMAP
8000
F000
7C00
0F80
03C0
03C0
0F80
7C00
F000
8000
ENDCHAR
STARTCHAR 003F
ENCODING 63
SWIDTH 588 0
DWIDTH 10 0
BBX 8 12 1 0
BITMAP
7C
FE
87
07
0E
1E
38
38
00
38
38
38
ENDCHAR
STARTCHAR 0040
ENCODING 64
SWIDTH 1000 0
DWIDTH 17 0
BBX 15 15 1 -3
BITMAP
07E0
1FF0
3838
600C
67E4
C7E6
CC66
CC66
CC6C
CFFC
67F0
6000
3830
1FF0
07C0
ENDCHAR
STARTCHAR 0041
ENCODING 65
SWIDTH 764 0
DWIDTH 13 0
BBX 13 12 0 0
BITMAP
0F80
0F80
0F80
1DC0
1DC0
18E0
38E0
3FE0
7FF0
7070
7078
E038
ENDCHAR
STARTCHAR 0042
ENCODING 66
SWIDTH 764 0
DWIDTH 13 0
BBX 10 12 2 0
BITMAP
FF00
FF80
E380
E380
E380
FF00
FF80
E3C0
E1C0
E3C0
FF80
FF00
ENDCHAR
STARTCHAR 0043
ENCODING 67
SWIDTH 705 0
DWIDTH 12 0
BBX 10 12 1 0
BITMAP
0FC0
3FC0
7840
F000
E000
E000
E000
E000
F000
7840
3FC0
0FC0
ENDCHAR
STARTCHAR 0044
ENCODING 68
SWIDTH 823 0
DWIDTH 14 0
BBX 11 12 2 0
BITMAP
FE00
FF80
E3C0
E1E0
E0E0
E0E0
E0E0
E0E0
E1E0
E3C0
FF80
FE00
ENDCHAR
STARTCHAR 0045
ENCODING 69
SWIDTH 705 0
DWIDTH 12 0
BBX 8 12 2 0
BITMAP
FF
FF
E0
E0
E0
FF
FF
E0
E0
E0
FF
FF
ENDCHAR
STARTCHAR 0046
ENCODING 70
SWIDTH 705 0
DWIDTH 12 0
BBX 8 12 2 0
BITMAP
FF
FF
E0
E0
E0
FF
FF
E0
E0
E0
E0
E0
ENDCHAR
STARTCHAR 0047
ENCODING 71
SWIDTH 823 0
DWIDTH 14 0
BBX 12 12 1 0
BITMAP
0FC0
3FE0
7820
F000
E000
E1F0
E1F0
E070
F070
7870
3FF0
0FC0
ENDCHAR
STARTCHAR 0048
ENCODING 72
SWIDTH 823 0
DWIDTH 14 0
BBX 11 12 2 0
BITMAP
E1E0
E1E0
E1E0
E1E0
E1E0
FFE0
FFE0
E1E0
E1E0
E1E0
E1E0
E1E0
ENDCHAR
STARTCHAR 0049
ENCODING 73
SWIDTH 352 0
DWIDTH 6 0
BBX 3 12 2 0
BITMAP
E0
E0
E0
E0
E0
E0
E0
E0
E0
E0
E0
E0
ENDCHAR
STARTCHAR 004A
ENCODING 74
SWIDTH 352 0
DWIDTH 6 0
BBX 6 15 -1 -3
BITMAP
1C
1C
1C
1C
1C
1C
1C
1C
1C
1C
1C
1C
3C
F8
F0
ENDCHAR
STARTCHAR 004B
ENCODING 75
SWIDTH 764 0
DWIDTH 13 0
BBX 11 12 2 0
BITMAP
E1E0
E3C0
E700
EE00
FC00
F800
FC00
FE00
EF00
E780
E3C0
E1E0
ENDCHAR
STARTCHAR 004C
ENCODING 76
SWIDTH 647 0
DWIDTH 11 0
BBX 8 12 2 0
BITMAP
E0
E0
E0
E0
E0
E0
E0
E0
E0
E0
FF
FF
ENDCHAR
STARTCHAR 004D
ENCODING 77
SWIDTH 1000 0
DWIDTH 17 0
BBX 13 12 2 0
BITMAP
F078
F078
F8F8
F8F8
FDF8
EDB8
EDB8
EFB8
E738
E738
E038
E038
ENDCHAR
STARTCHAR 004E
ENCODING 78
SWIDTH 823 0
DWIDTH 14 0
BBX 11 12 2 0
BITMAP
E0E0
F0E0
F0E0
F8E0
FCE0
ECE0
EEE0
E6E0
E7E0
E3E0
E3E0
E1E0
ENDCHAR
STARTCHAR 004F
ENCODING 79
SWIDTH 823 0
DWIDTH 14 0
BBX 13 12 1 0
BITMAP
1F80
3FE0
78F0
F070
E070
E078
E078
E070
F070
78F0
3FE0
1F80
ENDCHAR
STARTCHAR 0050
ENCODING 80
SWIDTH 705 0
DWIDTH 12 0
BBX 10 12 2 0
BITMAP
FF00
FF80
E3C0
E3C0
E3C0
E3C0
FF80
FF00
E000
E000
E000
E000
ENDCHAR
STARTCHAR 0051
ENCODING 81
SWIDTH 823 0
DWIDTH 14 0
BBX 13 14 1 -2
BITMAP
1F80
3FE0
78F0
F070
E070
E078
E078
E070
F070
70F0
3FE0
1F80
01C0
00E0
ENDCHAR
STARTCHAR 0052
ENCODING 82
SWIDTH 764 0
DWIDTH 13 0
BBX 10 12 2 0
BITMAP
FE00
FF80
E380
E380
E380
E380
FF00
FF00
E780
E380
E3C0
E1C0
ENDCHAR
STARTCHAR 0053
ENCODING 83
SWIDTH 705 0
DWIDTH 12 0
BBX 10 12 1 0
BITMAP
3F80
7F80
E080
E000
F000
7F00
3FC0
07C0
01C0
C1C0
FF80
7F00
ENDCHAR
STARTCHAR 0054
ENCODING 84
SWIDTH 705 0
DWIDTH 12 0
BBX 12 12 0 0
BITMAP
FFF0
FFF0
0E00
0E00
0E00
0E00
0E00
0E00
0E00
0E00
0E00
0E00
ENDCHAR
STARTCHAR 0055
ENCODING 85
SWIDTH 823 0
DWIDTH 14 0
BBX 10 12 2 0
BITMAP
E1C0
E1C0
E1C0
E1C0
E1C0
E1C0
E1C0
E1C0
E1C0
E3C0
7F80
3F00
ENDCHAR
STARTCHAR 0056
ENCODING 86
SWIDTH 764 0
DWIDTH 13 0
BBX 13 12 0 0
BITMAP
E038
7078
7070
7870
38E0
38E0
1DE0
1DC0
1DC0
0F80
0F80
0F80
ENDCHAR
STARTCHAR 0057
ENCODING 87
SWIDTH 1117 0
DWIDTH 19 0
BBX 17 12 1 0
BITMAP
E1C380
E3C380
E3E380
E36700
736700
736700
767700
767E00
3E3E00
3E3E00
3E3E00
3C3C00
ENDCHAR
STARTCHAR 0058
ENCODING 88
SWIDTH 764 0
DWIDTH 13 0
BBX 11 12 1 0
BITMAP
E0E0
71E0
7BC0
3B80
1F00
1F00
1F00
3F80
3B80
71C0
F1E0
E0E0
ENDCHAR
STARTCHAR 0059
ENCODING 89
SWIDTH 705 0
DWIDTH 12 0
BBX 12 12 0 0
BITMAP
F070
70E0
39E0
3DC0
1F80
0F80
0F00
0700
0700
0700
0700
0700
ENDCHAR
STARTCHAR 005A
ENCODING 90
SWIDTH 705 0
DWIDTH 12 0
BBX 11 12 1 0
BITMAP
FFC0
FFC0
03C0
0780
0F00
0E00
1E00
3C00
7800
F000
FFE0
FFE0
ENDCHAR
STARTCHAR 005B
ENCODING 91
SWIDTH 470 0
DWIDTH 8 0
BBX 6 15 1 -2
BITMAP
FC
FC
E0
E0
E0
E0
E0
E0
E0
E0
E0
E0
E0
FC
FC
ENDCHAR
STARTCHAR 005C
ENCODING 92
SWIDTH 352 0
DWIDTH 6 0
BBX 6 14 0 -2
BITMAP
C0
C0
60
60
60
30
30
30
10
18
18
08
0C
0C
ENDCHAR
STARTCHAR 005D
ENCODING 93
SWIDTH 470 0
DWIDTH 8 0
BBX 5 15 1 -2
BITMAP
F8
F8
38
38
38
38
38
38
38
38
38
38
38
F8
F8
ENDCHAR
STARTCHAR 005E
ENCODING 94
SWIDTH 823 0
DWIDTH 14 0
BBX 10 5 2 7
BITMAP
0E00
1E00
3F00
7180
C0C0
ENDCHAR
STARTCHAR 005F
ENCODING 95
SWIDTH 529 0
DWIDTH 9 0
BBX 9 2 0 -4
BITMAP
FF80
FF80
ENDCHAR
STARTCHAR 0060
ENCODING 96
SWIDTH 529 0
DWIDTH 9 0
BBX 4 3 1 11
BITMAP
E0
60
30
ENDCHAR
STARTCHAR 0061
ENCODING 97
SWIDTH 647 0
DWIDTH 11 0
BBX 9 9 1 0
BITMAP
7E00
7F80
0380
7F80
FF80
E380
E380
FF80
7B80
ENDCHAR
STARTCHAR 0062
ENCODING 98
SWIDTH 705 0
DWIDTH 12 0
BBX 10 13 1 0
BITMAP
E000
E000
E000
E000
E700
EFC0
F1C0
F1C0
E1C0
F1C0
F1C0
EFC0
E700
ENDCHAR
STARTCHAR 0063
ENCODING 99
SWIDTH 588 0
DWIDTH 10 0
BBX 8 9 1 0
BITMAP
3E
7F
F1
E0
E0
E0
F1
7F
3E
ENDCHAR
STARTCHAR 0064
ENCODING 100
SWIDTH 705 0
DWIDTH 12 0
BBX 10 13 1 0
BITMAP
01C0
01C0
01C0
01C0
39C0
7DC0
E3C0
E1C0
E1C0
E1C0
E3C0
7DC0
39C0
ENDCHAR
STARTCHAR 0065
ENCODING 101
SWIDTH 705 0
DWIDTH 12 0
BBX 10 9 1 0
BITMAP
3E00
7F80
E380
FFC0
FFC0
E000
F080
7F80
3F00
ENDCHAR
STARTCHAR 0066
ENCODING 102
SWIDTH 411 0
DWIDTH 7 0
BBX 8 13 0 0
BITMAP
1F
3F
38
38
FE
FE
38
38
38
38
38
38
38
ENDCHAR
STARTCHAR 0067
ENCODING 103
SWIDTH 705 0
DWIDTH 12 0
BBX 10 13 1 -4
BITMAP
39C0
7DC0
E3C0
E1C0
E1C0
E1C0
E3C0
7DC0
39C0
03C0
4380
7F00
3E00
ENDCHAR
STARTCHAR 0068
ENCODING 104
SWIDTH 705 0
DWIDTH 12 0
BBX 10 13 1 0
BITMAP
E000
E000
E000
E000
E700
EF80
F3C0
F1C0
E1C0
E1C0
E1C0
E1C0
E1C0
ENDCHAR
STARTCHAR 0069
ENCODING 105
SWIDTH 352 0
DWIDTH 6 0
BBX 3 13 1 0
BITMAP
E0
E0
E0
00
E0
E0
E0
E0
E0
E0
E0
E0
E0
ENDCHAR
STARTCHAR 006A
ENCODING 106
SWIDTH 352 0
DWIDTH 6 0
BBX 5 17 -1 -4
BITMAP
38
38
38
00
38
38
38
38
38
38
38
38
38
38
38
F8
F0
ENDCHAR
STARTCHAR 006B
ENCODING 107
SWIDTH 647 0
DWIDTH 11 0
BBX 10 13 1 0
BITMAP
E000
E000
E000
E000
E3C0
E780
EF00
FC00
FC00
EE00
E700
E380
E1C0
ENDCHAR
STARTCHAR 006C
ENCODING 108
SWIDTH 352 0
DWIDTH 6 0
BBX 3 13 1 0
BITMAP
E0
E0
E0
E0
E0
E0
E0
E0
E0
E0
E0
E0
E0
ENDCHAR
STARTCHAR 006D
ENCODING 109
SWIDTH 1058 0
DWIDTH 18 0
BBX 15 9 1 0
BITMAP
E73C
EFFE
F3CE
F3CE
E38E
E38E
E38E
E38E
E38E
ENDCHAR
STARTCHAR 006E
ENCODING 110
SWIDTH 705 0
DWIDTH 12 0
BBX 10 9 1 0
BITMAP
E700
EF80
F3C0
F1C0
E1C0
E1C0
E1C0
E1C0
E1C0
ENDCHAR
STARTCHAR 006F
ENCODING 111
SWIDTH 705 0
DWIDTH 12 0
BBX 10 9 1 0
BITMAP
3F00
7F80
E3C0
E1C0
E1C0
E1C0
E3C0
7F80
3F00
ENDCHAR
STARTCHAR 0070
ENCODING 112
SWIDTH 705 0
DWIDTH 12 0
BBX 10 13 1 -4
BITMAP
E700
EFC0
F1C0
F1C0
E1C0
F1C0
F1C0
EFC0
E700
E000
E000
E000
E000
ENDCHAR
STARTCHAR 0071
ENCODING 113
SWIDTH 705 0
DWIDTH 12 0
BBX 10 13 1 -4
BITMAP
39C0
7DC0
E3C0
E1C0
E1C0
E1C0
E3C0
7DC0
39C0
01C0
01C0
01C0
01C0
ENDCHAR
STARTCHAR 0072
ENCODING 114
SWIDTH 470 0
DWIDTH 8 0
BBX 7 9 1 0
BITMAP
E6
EE
F0
F0
E0
E0
E0
E0
E0
ENDCHAR
STARTCHAR 0073
ENCODING 115
SWIDTH 588 0
DWIDTH 10 0
BBX 8 9 1 0
BITMAP
7E
FF
E1
E0
7E
07
87
FF
7E
ENDCHAR
STARTCHAR 0074
ENCODING 116
SWIDTH 470 0
DWIDTH 8 0
BBX 8 12 0 0
BITMAP
38
38
38
FF
FF
38
38
38
38
38
3E
1E
ENDCHAR
STARTCHAR 0075
ENCODING 117
SWIDTH 705 0
DWIDTH 12 0
BBX 10 9 1 0
BITMAP
E1C0
E1C0
E1C0
E1C0
E1C0
E1C0
F3C0
7DC0
39C0
ENDCHAR
STARTCHAR 0076
ENCODING 118
SWIDTH 647 0
DWIDTH 11 0
BBX 11 9 0 0
BITMAP
E0E0
71C0
71C0
3980
3B80
3B80
1F00
1F00
0E00
ENDCHAR
STARTCHAR 0077
ENCODING 119
SWIDTH 941 0
DWIDTH 16 0
BBX 14 9 1 0
BITMAP
E71C
E71C
E798
67B8
7DB8
7CB8
7CF0
3CF0
38F0
ENDCHAR
STARTCHAR 0078
ENCODING 120
SWIDTH 647 0
DWIDTH 11 0
BBX 9 9 1 0
BITMAP
E380
7700
7700
3E00
1C00
3E00
7700
E780
E380
ENDCHAR
STARTCHAR 0079
ENCODING 121
SWIDTH 647 0
DWIDTH 11 0
BBX 11 13 0 -4
BITMAP
E0E0
71C0
71C0
3980
3B80
1B80
1F00
1F00
0E00
0E00
0E00
3C00
3800
ENDCHAR
STARTCHAR 007A
ENCODING 122
SWIDTH 588 0
DWIDTH 10 0
BBX 8 9 1 0
BITMAP
FF
FF
0F
1E
3C
78
F0
FF
FF
ENDCHAR
STARTCHAR 007B
ENCODING 123
SWIDTH 705 0
DWIDTH 12 0
BBX 8 16 2 -3
BITMAP
0F
1F
1C
1C
1C
1C
38
F8
F8
38
1C
1C
1C
1C
1F
0F
ENDCHAR
STARTCHAR 007C
ENCODING 124
SWIDTH 352 0
DWIDTH 6 0
BBX 2 17 2 -4
BITMAP
C0
C0
C0
C0
C0
C0
C0
C0
C0
C0
C0
C0
C0
C0
C0
C0
C0
ENDCHAR
STARTCHAR 007D
ENCODING 125
SWIDTH 705 0
DWIDTH 12 0
BBX 8 16 2 -3
BITMAP
F0
F8
38
18
18
18
1C
1F
1F
1C
18
18
18
38
F8
F0
ENDCHAR
STARTCHAR 007E
ENCODING 126
SWIDTH 823 0
DWIDTH 14 0
BBX 10 3 2 4
BITMAP
7840
FFC0
8780
ENDCHAR
STARTCHAR 00A0
ENCODING 160
SWIDTH 352 0
DWIDTH 6 0
BBX 0 0 0 0
BITMAP
ENDCHAR
STARTCHAR 00A1
ENCODING 161
SWIDTH 470 0
DWIDTH 8 0
BBX 3 12 2 -3
BITMAP
E0
E0
E0
00
60
60
E0
E0
E0
E0
E0
E0
ENDCHAR
STARTCHAR 00A2
ENCODING 162
SWIDTH 705 0
DWIDTH 12 0
BBX 9 14 1 -3
BITMAP
0400
0400
1F00
7F80
7C80
7400
F400
7400
7C80
3F80
1F00
0400
0400
0400
ENDCHAR
STARTCHAR 00A3
ENCODING 163
SWIDTH 705 0
DWIDTH 12 0
BBX 9 12 1 0
BITMAP
0F00
1F80
3880
3800
3800
FF00
FF00
3800
3800
3800
FF80
FF80
ENDCHAR
STARTCHAR 00A4
ENCODING 164
SWIDTH 647 0
DWIDTH 11 0
BBX 9 9 1 1
BITMAP
8180
FF80
7F00
6300
6300
6300
7F00
FF80
8180
ENDCHAR
STARTCHAR 00A5
ENCODING 165
SWIDTH 705 0
DWIDTH 12 0
BBX 10 12 1 0
BITMAP
E1C0
F3C0
7380
3F00
FFC0
FFC0
1E00
FFC0
FFC0
1E00
1E00
1E00
ENDCHAR
STARTCHAR 00A6
ENCODING 166
SWIDTH 352 0
DWIDTH 6 0
BBX 2 15 2 -3
BITMAP
C0
C0
C0
C0
C0
C0
00
00
00
C0
C0
C0
C0
C0
C0
ENDCHAR
STARTCHAR 00A7
ENCODING 167
SWIDTH 529 0
DWIDTH 9 0
BBX 8 14 0 -2
BITMAP
3E
7E
72
70
3C
7F
E3
E3
7F
3E
07
47
7E
7C
ENDCHAR
STARTCHAR 00A8
ENCODING 168
SWIDTH 529 0
DWIDTH 9 0
BBX 5 2 2 11
BITMAP
D8
D8
ENDCHAR
STARTCHAR 00A9
ENCODING 169
SWIDTH 1000 0
DWIDTH 17 0
BBX 13 12 2 0
BITMAP
0F80
3060
6030
4790
5C90
D818
D818
5C10
4790
6030
3060
0F80
ENDCHAR
STARTCHAR 00AA
ENCODING 170
SWIDTH 588 0
DWIDTH 10 0
BBX 7 10 1 2
BITMAP
7C
06
06
7E
E6
C6
7E
00
FE
FE
ENDCHAR
STARTCHAR 00AB
ENCODING 171
SWIDTH 647 0
DWIDTH 11 0
BBX 8 8 1 1
BITMAP
11
33
77
EE
EE
77
33
11
ENDCHAR
STARTCHAR 00AC
ENCODING 172
SWIDTH 823 0
DWIDTH 14 0
BBX 10 5 2 3
BITMAP
FFC0
FFC0
00C0
00C0
00C0
ENDCHAR
STARTCHAR 00AD
ENCODING 173
SWIDTH 411 0
DWIDTH 7 0
BBX 5 2 1 4
BITMAP
F8
F8
ENDCHAR
STARTCHAR 00AE
ENCODING 174
SWIDTH 1000 0
DWIDTH 17 0
BBX 13 12 2 0
BITMAP
0F80
3060
6030
4F90
4D90
CD98
CF18
4D90
4D90
6030
3060
0F80
ENDCHAR
STARTCHAR 00AF
ENCODING 175
SWIDTH 529 0
DWIDTH 9 0
BBX 5 2 2 11
BITMAP
F8
F8
ENDCHAR
STARTCHAR 00B0
ENCODING 176
SWIDTH 529 0
DWIDTH 9 0
BBX 5 6 2 7
BITMAP
70
98
88
88
98
70
ENDCHAR
STARTCHAR 00B1
ENCODING 177
SWIDTH 823 0
DWIDTH 14 0
BBX 10 11 2 0
BITMAP
0C00
0C00
0C00
FFC0
FFC0
0C00
0C00
0C00
0000
FFC0
FFC0
ENDCHAR
STARTCHAR 00B2
ENCODING 178
SWIDTH 411 0
DWIDTH 7 0
BBX 5 7 1 5
BITMAP
F8
98
18
18
30
E0
F8
ENDCHAR
STARTCHAR 00B3
ENCODING 179
SWIDTH 411 0
DWIDTH 7 0
BBX 5 7 1 5
BITMAP
F8
18
18
70
18
98
F8
ENDCHAR
STARTCHAR 00B4
ENCODING 180
SWIDTH 529 0
DWIDTH 9 0
BBX 4 3 3 11
BITMAP
30
60
C0
ENDCHAR
STARTCHAR 00B5
ENCODING 181
SWIDTH 764 0
DWIDTH 13 0
BBX 11 13 1 -4
BITMAP
E1C0
E1C0
E1C0
E1C0
E1C0
E1C0
F3C0
FFE0
EEE0
E000
E000
E000
E000
ENDCHAR
STARTCHAR 00B6
ENCODING 182
SWIDTH 647 0
DWIDTH 11 0
BBX 8 14 1 -2
BITMAP
3F
79
F9
F9
F9
79
39
09
09
09
09
09
09
09
ENDCHAR
STARTCHAR 00B7
ENCODING 183
SWIDTH 352 0
DWIDTH 6 0
BBX 3 3 2 5
BITMAP
E0
E0
E0
ENDCHAR
STARTCHAR 00B8
ENCODING 184
SWIDTH 529 0
DWIDTH 9 0
BBX 4 3 2 -3
BITMAP
20
10
F0
ENDCHAR
STARTCHAR 00B9
ENCODING 185
SWIDTH 411 0
DWIDTH 7 0
BBX 5 7 1 5
BITMAP
F0
30
30
30
30
30
F8
ENDCHAR
STARTCHAR 00BA
ENCODING 186
SWIDTH 588 0
DWIDTH 10 0
BBX 8 10 1 2
BITMAP
3C
66
C6
C7
C6
66
3C
00
FE
FE
ENDCHAR
STARTCHAR 00BB
ENCODING 187
SWIDTH 647 0
DWIDTH 11 0
BBX 8 8 2 1
BITMAP
90
C8
EE
77
77
EE
CC
90
ENDCHAR
STARTCHAR 00BC
ENCODING 188
SWIDTH 1058 0
DWIDTH 18 0
BBX 15 12 1 0
BITMAP
F018
3030
3060
3060
30C0
3180
F99C
031C
062C
064C
0C7E
080C
ENDCHAR
STARTCHAR 00BD
ENCODING 189
SWIDTH 1058 0
DWIDTH 18 0
BBX 16 13 1 -1
BITMAP
F018
3030
3060
3060
30C0
3180
F9BE
0323
0603
0606
0C0C
0818
003F
ENDCHAR
STARTCHAR 00BE
ENCODING 190
SWIDTH 1058 0
DWIDTH 18 0
BBX 15 12 1 0
BITMAP
F818
1830
1860
7060
1CC0
9D80
F99C
031C
062C
064C
0C7E
080C
ENDCHAR
STARTCHAR 00BF
ENCODING 191
SWIDTH 588 0
DWIDTH 10 0
BBX 8 13 1 -4
BITMAP
1C
1C
1C
00
1C
1C
38
78
F0
E0
E1
7F
3E
ENDCHAR
STARTCHAR 00C0
ENCODING 192
SWIDTH 764 0
DWIDTH 13 0
BBX 13 15 0 0
BITMAP
0C00
0600
0000
0F80
0F80
0F80
1DC0
1DC0
18E0
38E0
3FE0
7FF0
7070
7078
E038
ENDCHAR
STARTCHAR 00C1
ENCODING 193
SWIDTH 764 0
DWIDTH 13 0
BBX 13 15 0 0
BITMAP
0380
0200
0000
0F80
0F80
0F80
1DC0
1DC0
18E0
38E0
3FE0
7FF0
7070
7078
E038
ENDCHAR
STARTCHAR 00C2
ENCODING 194
SWIDTH 764 0
DWIDTH 13 0
BBX 13 15 0 0
BITMAP
0700
0C80
0000
0F80
0F80
0F80
1DC0
1DC0
18E0
38E0
3FE0
7FF0
7070
7078
E038
ENDCHAR
STARTCHAR 00C3
ENCODING 195
SWIDTH 764 0
DWIDTH 13 0
BBX 13 16 0 0
BITMAP
0E80
0F80
0B80
0000
0F80
0F80
0F80
1DC0
1DC0
18E0
38E0
3FE0
7FF0
7070
7078
E038
ENDCHAR
STARTCHAR 00C4
ENCODING 196
SWIDTH 764 0
DWIDTH 13 0
BBX 13 16 0 0
BITMAP
0D80
0D80
0000
0000
0F80
0F80
0F80
1DC0
1DC0
18E0
38E0
3FE0
7FF0
7070
7078
E038
ENDCHAR
STARTCHAR 00C5
ENCODING 197
SWIDTH 764 0
DWIDTH 13 0
BBX 13 16 0 0
BITMAP
0700
0D80
0C80
0D80
0F80
0F80
0F80
1DC0
1DC0
18E0
38E0
3FE0
7FF0
7070
7078
E038
ENDCHAR
STARTCHAR 00C6
ENCODING 198
SWIDTH 1058 0
DWIDTH 18 0
BBX 17 12 0 0
BITMAP
07FF80
07FF80
0EF000
0EF000
1CF000
1CFF80
38FF80
3FF000
3FF000
70F000
70FF80
E0FF80
ENDCHAR
STARTCHAR 00C7
ENCODING 199
SWIDTH 705 0
DWIDTH 12 0
BBX 10 15 1 -3
BITMAP
0FC0
3FC0
7840
F000
E000
E000
E000
E000
F000
7840
3FC0
0FC0
0300
0100
0F00
ENDCHAR
STARTCHAR 00C8
ENCODING 200
SWIDTH 705 0
DWIDTH 12 0
BBX 8 15 2 0
BITMAP
30
18
00
FF
FF
E0
E0
E0
FF
FF
E0
E0
E0
FF
FF
ENDCHAR
STARTCHAR 00C9
ENCODING 201
SWIDTH 705 0
DWIDTH 12 0
BBX 8 15 2 0
BITMAP
0C
18
00
FF
FF
E0
E0
E0
FF
FF
E0
E0
E0
FF
FF
ENDCHAR
STARTCHAR 00CA
ENCODING 202
SWIDTH 705 0
DWIDTH 12 0
BBX 8 15 2 0
BITMAP
38
64
00
FF
FF
E0
E0
E0
FF
FF
E0
E0
E0
FF
FF
ENDCHAR
STARTCHAR 00CB
ENCODING 203
SWIDTH 705 0
DWIDTH 12 0
BBX 8 16 2 0
BITMAP
6C
6C
00
00
FF
FF
E0
E0
E0
FF
FF
E0
E0
E0
FF
FF
ENDCHAR
STARTCHAR 00CC
ENCODING 204
SWIDTH 352 0
DWIDTH 6 0
BBX 4 15 1 0
BITMAP
C0
60
00
70
70
70
70
70
70
70
70
70
70
70
70
ENDCHAR
STARTCHAR 00CD
ENCODING 205
SWIDTH 352 0
DWIDTH 6 0
BBX 3 15 2 0
BITMAP
60
C0
00
E0
E0
E0
E0
E0
E0
E0
E0
E0
E0
E0
E0
ENDCHAR
STARTCHAR 00CE
ENCODING 206
SWIDTH 352 0
DWIDTH 6 0
BBX 6 15 0 0
BITMAP
78
CC
00
38
38
38
38
38
38
38
38
38
38
38
38
ENDCHAR
STARTCHAR 00CF
ENCODING 207
SWIDTH 352 0
DWIDTH 6 0
BBX 5 16 1 0
BITMAP
98
98
00
00
70
70
70
70
70
70
70
70
70
70
70
70
ENDCHAR
STARTCHAR 00D0
ENCODING 208
SWIDTH 823 0
DWIDTH 14 0
BBX 13 12 0 0
BITMAP
3FC0
3FE0
38F0
3878
3838
FE38
FE38
3838
3878
38F0
3FE0
3FC0
ENDCHAR
STARTCHAR 00D1
ENCODING 209
SWIDTH 823 0
DWIDTH 14 0
BBX 11 16 2 0
BITMAP
1B00
3F00
2600
0000
E0E0
F0E0
F0E0
F8E0
FCE0
ECE0
EEE0
E6E0
E7E0
E3E0
E3E0
E1E0
ENDCHAR
STARTCHAR 00D2
ENCODING 210
SWIDTH 823 0
DWIDTH 14 0
BBX 13 15 1 0
BITMAP
0C00
0600
0000
1F80
3FE0
78F0
F070
E070
E078
E078
E070
F070
78F0
3FE0
1F80
ENDCHAR
STARTCHAR 00D3
ENCODING 211
SWIDTH 823 0
DWIDTH 14 0
BBX 13 15 1 0
BITMAP
0300
0600
0000
1F80
3FE0
78F0
F070
E070
E078
E078
E070
F070
78F0
3FE0
1F80
ENDCHAR
STARTCHAR 00D4
ENCODING 212
SWIDTH 823 0
DWIDTH 14 0
BBX 13 15 1 0
BITMAP
0F00
1980
0000
1F80
3FE0
78F0
F070
E070
E078
E078
E070
F070
78F0
3FE0
1F80
ENDCHAR
STARTCHAR 00D5
ENCODING 213
SWIDTH 823 0
DWIDTH 14 0
BBX 13 16 1 0
BITMAP
0C80
1F80
1B80
0000
1F80
3FE0
78F0
F070
E070
E078
E078
E070
F070
78F0
3FE0
1F80
ENDCHAR
STARTCHAR 00D6
ENCODING 214
SWIDTH 823 0
DWIDTH 14 0
BBX 13 16 1 0
BITMAP
0D80
0D80
0000
0000
1F80
3FE0
78F0
F070
E070
E078
E078
E070
F070
78F0
3FE0
1F80
ENDCHAR
STARTCHAR 00D7
ENCODING 215
SWIDTH 823 0
DWIDTH 14 0
BBX 10 10 2 0
BITMAP
4080
E1C0
7380
3F00
1E00
1E00
3F00
7380
E1C0
4080
ENDCHAR
STARTCHAR 00D8
ENCODING 216
SWIDTH 823 0
DWIDTH 14 0
BBX 13 12 1 0
BITMAP
1F98
3FF0
78F0
F0F0
E1F0
E378
E678
EC70
F870
78F0
7FE0
9F80
ENDCHAR
STARTCHAR 00D9
ENCODING 217
SWIDTH 823 0
DWIDTH 14 0
BBX 10 15 2 0
BITMAP
1800
0C00
0000
E1C0
E1C0
E1C0
E1C0
E1C0
E1C0
E1C0
E1C0
E1C0
E3C0
7F80
3F00
ENDCHAR
STARTCHAR 00DA
ENCODING 218
SWIDTH 823 0
DWIDTH 14 0
BBX 10 15 2 0
BITMAP
0600
0C00
0000
E1C0
E1C0
E1C0
E1C0
E1C0
E1C0
E1C0
E1C0
E1C0
E3C0
7F80
3F00
ENDCHAR
STARTCHAR 00DB
ENCODING 219
SWIDTH 823 0
DWIDTH 14 0
BBX 10 15 2 0
BITMAP
1E00
3300
0000
E1C0
E1C0
E1C0
E1C0
E1C0
E1C0
E1C0
E1C0
E1C0
E3C0
7F80
3F00
ENDCHAR
STARTCHAR 00DC
ENCODING 220
SWIDTH 823 0
DWIDTH 14 0
BBX 10 16 2 0
BITMAP
3300
3300
0000
0000
E1C0
E1C0
E1C0
E1C0
E1C0
E1C0
E1C0
E1C0
E1C0
E3C0
7F80
3F00
ENDCHAR
STARTCHAR 00DD
ENCODING 221
SWIDTH 705 0
DWIDTH 12 0
BBX 12 15 0 0
BITMAP
0300
0600
0000
F070
70E0
39E0
3DC0
1F80
0F80
0F00
0700
0700
0700
0700
0700
ENDCHAR
STARTCHAR 00DE
ENCODING 222
SWIDTH 764 0
DWIDTH 13 0
BBX 10 12 2 0
BITMAP
E000
E000
FF00
FF80
E3C0
E3C0
E3C0
E3C0
FF80
FF00
E000
E000
ENDCHAR
STARTCHAR 00DF
ENCODING 223
SWIDTH 705 0
DWIDTH 12 0
BBX 10 13 1 0
BITMAP
3F00
7F80
7380
E180
E700
EE00
EE00
E780
E3C0
E1C0
E1C0
EFC0
EF80
ENDCHAR
STARTCHAR 00E0
ENCODING 224
SWIDTH 647 0
DWIDTH 11 0
BBX 9 14 1 0
BITMAP
3000
1800
0C00
0000
0000
7E00
7F80
0380
7F80
FF80
E380
E380
FF80
7B80
ENDCHAR
STARTCHAR 00E1
ENCODING 225
SWIDTH 647 0
DWIDTH 11 0
BBX 9 14 1 0
BITMAP
0300
0600
0C00
0000
0000
7E00
7F80
0380
7F80
FF80
E380
E380
FF80
7B80
ENDCHAR
STARTCHAR 00E2
ENCODING 226
SWIDTH 647 0
DWIDTH 11 0
BBX 9 14 1 0
BITMAP
1C00
1E00
3300
0000
0000
7E00
7F80
0380
7F80
FF80
E380
E380
FF80
7B80
ENDCHAR
STARTCHAR 00E3
ENCODING 227
SWIDTH 647 0
DWIDTH 11 0
BBX 9 14 1 0
BITMAP
1B00
3F00
2600
0000
0000
7E00
7F80
0380
7F80
FF80
E380
E380
FF80
7B80
ENDCHAR
STARTCHAR 00E4
ENCODING 228
SWIDTH 647 0
DWIDTH 11 0
BBX 9 13 1 0
BITMAP
3600
3600
0000
0000
7E00
7F80
0380
7F80
FF80
E380
E380
FF80
7B80
ENDCHAR
STARTCHAR 00E5
ENCODING 229
SWIDTH 647 0
DWIDTH 11 0
BBX 9 15 1 0
BITMAP
1C00
1200
3200
1200
1C00
0000
7E00
7F80
0380
7F80
FF80
E380
E380
FF80
7B80
ENDCHAR
STARTCHAR 00E6
ENCODING 230
SWIDTH 1058 0
DWIDTH 18 0
BBX 16 9 1 0
BITMAP
7E7C
7FFE
0387
7FFF
FFFF
E380
E7C3
FFFF
787C
ENDCHAR
STARTCHAR 00E7
ENCODING 231
SWIDTH 588 0
DWIDTH 10 0
BBX 8 12 1 -3
BITMAP
3E
7F
F1
E0
E0
E0
F1
7F
3E
04
04
1C
ENDCHAR
STARTCHAR 00E8
ENCODING 232
SWIDTH 705 0
DWIDTH 12 0
BBX 10 14 1 0
BITMAP
3000
1800
0C00
0000
0000
3E00
7F80
E380
FFC0
FFC0
E000
F080
7F80
3F00
ENDCHAR
STARTCHAR 00E9
ENCODING 233
SWIDTH 705 0
DWIDTH 12 0
BBX 10 14 1 0
BITMAP
0300
0600
0C00
0000
0000
3E00
7F80
E380
FFC0
FFC0
E000
F080
7F80
3F00
ENDCHAR
STARTCHAR 00EA
ENCODING 234
SWIDTH 705 0
DWIDTH 12 0
BBX 10 14 1 0
BITMAP
0C00
1E00
3300
0000
0000
3E00
7F80
E380
FFC0
FFC0
E000
F080
7F80
3F00
ENDCHAR
STARTCHAR 00EB
ENCODING 235
SWIDTH 705 0
DWIDTH 12 0
BBX 10 13 1 0
BITMAP
3300
3300
0000
0000
3E00
7F80
E380
FFC0
FFC0
E000
F080
7F80
3F00
ENDCHAR
STARTCHAR 00EC
ENCODING 236
SWIDTH 352 0
DWIDTH 6 0
BBX 4 14 0 0
BITMAP
C0
60
30
00
00
70
70
70
70
70
70
70
70
70
ENDCHAR
STARTCHAR 00ED
ENCODING 237
SWIDTH 352 0
DWIDTH 6 0
BBX 5 14 1 0
BITMAP
18
30
60
00
00
E0
E0
E0
E0
E0
E0
E0
E0
E0
ENDCHAR
STARTCHAR 00EE
ENCODING 238
SWIDTH 352 0
DWIDTH 6 0
BBX 6 14 0 0
BITMAP
30
78
CC
00
00
70
70
70
70
70
70
70
70
70
ENDCHAR
STARTCHAR 00EF
ENCODING 239
SWIDTH 352 0
DWIDTH 6 0
BBX 6 13 0 0
BITMAP
CC
CC
00
00
70
70
70
70
70
70
70
70
70
ENDCHAR
STARTCHAR 00F0
ENCODING 240
SWIDTH 705 0
DWIDTH 12 0
BBX 10 13 1 0
BITMAP
3980
1E00
7E00
0700
3F80
7F80
E1C0
E1C0
E1C0
E1C0
F380
7F80
3E00
ENDCHAR
STARTCHAR 00F1
ENCODING 241
SWIDTH 705 0
DWIDTH 12 0
BBX 10 14 1 0
BITMAP
1900
1F00
3700
0000
0000
E700
EF80
F3C0
F1C0
E1C0
E1C0
E1C0
E1C0
E1C0
ENDCHAR
STARTCHAR 00F2
ENCODING 242
SWIDTH 705 0
DWIDTH 12 0
BBX 10 14 1 0
BITMAP
3000
1800
0C00
0000
0000
3F00
7F80
E3C0
E1C0
E1C0
E1C0
E3C0
7F80
3F00
ENDCHAR
STARTCHAR 00F3
ENCODING 243
SWIDTH 705 0
DWIDTH 12 0
BBX 10 14 1 0
BITMAP
0300
0600
0C00
0000
0000
3F00
7F80
E3C0
E1C0
E1C0
E1C0
E3C0
7F80
3F00
ENDCHAR
STARTCHAR 00F4
ENCODING 244
SWIDTH 705 0
DWIDTH 12 0
BBX 10 14 1 0
BITMAP
1C00
1E00
3300
0000
0000
3F00
7F80
E3C0
E1C0
E1C0
E1C0
E3C0
7F80
3F00
ENDCHAR
STARTCHAR 00F5
ENCODING 245
SWIDTH 705 0
DWIDTH 12 0
BBX 10 14 1 0
BITMAP
1900
3F00
2600
0000
0000
3F00
7F80
E3C0
E1C0
E1C0
E1C0
E3C0
7F80
3F00
ENDCHAR
STARTCHAR 00F6
ENCODING 246
SWIDTH 705 0
DWIDTH 12 0
BBX 10 13 1 0
BITMAP
3600
3600
0000
0000
3F00
7F80
E3C0
E1C0
E1C0
E1C0
E3C0
7F80
3F00
ENDCHAR
STARTCHAR 00F7
ENCODING 247
SWIDTH 823 0
DWIDTH 14 0
BBX 10 10 2 0
BITMAP
0C00
0C00
0C00
0000
FFC0
FFC0
0000
0C00
0C00
0C00
ENDCHAR
STARTCHAR 00F8
ENCODING 248
SWIDTH 705 0
DWIDTH 12 0
BBX 10 10 1 0
BITMAP
3EC0
7F80
E3C0
E7C0
EDC0
F9C0
F3C0
7F80
FF00
8000
ENDCHAR
STARTCHAR 00F9
ENCODING 249
SWIDTH 705 0
DWIDTH 12 0
BBX 10 14 1 0
BITMAP
3800
1800
0C00
0000
0000
E1C0
E1C0
E1C0
E1C0
E1C0
E1C0
F3C0
7DC0
39C0
ENDCHAR
STARTCHAR 00FA
ENCODING 250
SWIDTH 705 0
DWIDTH 12 0
BBX 10 14 1 0
BITMAP
0300
0600
0C00
0000
0000
E1C0
E1C0
E1C0
E1C0
E1C0
E1C0
F3C0
7DC0
39C0
ENDCHAR
STARTCHAR 00FB
ENCODING 251
SWIDTH 705 0
DWIDTH 12 0
BBX 10 14 1 0
BITMAP
0C00
1E00
3300
0000
0000
E1C0
E1C0
E1C0
E1C0
E1C0
E1C0
F3C0
7DC0
39C0
ENDCHAR
STARTCHAR 00FC
ENCODING 252
SWIDTH 705 0
DWIDTH 12 0
BBX 10 13 1 0
BITMAP
3300
3300
0000
0000
E1C0
E1C0
E1C0
E1C0
E1C0
E1C0
F3C0
7DC0
39C0
ENDCHAR
STARTCHAR 00FD
ENCODING 253
SWIDTH 647 0
DWIDTH 11 0
BBX 11 18 0 -4
BITMAP
0380
0600
0400
0000
0000
E0E0
71C0
71C0
3980
3B80
1B80
1F00
1F00
0E00
0E00
0E00
3C00
3800
ENDCHAR
STARTCHAR 00FE
ENCODING 254
SWIDTH 705 0
DWIDTH 12 0
BBX 10 17 1 -4
BITMAP
E000
E000
E000
E000
E700
EFC0
F1C0
F1C0
E1C0
F1C0
F1C0
EFC0
E700
E000
E000
E000
E000
ENDCHAR
STARTCHAR 00FF
ENCODING 255
SWIDTH 647 0
DWIDTH 11 0
BBX 11 17 0 -4
BITMAP
1B00
1B00
0000
0000
E0E0
71C0
71C0
3980
3B80
1B80
1F00
1F00
0E00
0E00
0E00
3C00
3800
ENDCHAR
STARTCHAR 0100
ENCODING 256
SWIDTH 764 0
DWIDTH 13 0
BBX 13 16 0 0
BITMAP
0F80
0F80
0000
0000
0F80
0F80
0F80
1DC0
1DC0
18E0
38E0
3FE0
7FF0
7070
7078
E038
ENDCHAR
STARTCHAR 0101
ENCODING 257
SWIDTH 647 0
DWIDTH 11 0
BBX 9 13 1 0
BITMAP
3E00
3E00
0000
0000
7E00
7F80
0380
7F80
FF80
E380
E380
FF80
7B80
ENDCHAR
STARTCHAR 0102
ENCODING 258
SWIDTH 764 0
DWIDTH 13 0
BBX 13 16 0 0
BITMAP
0880
0780
0000
0000
0F80
0F80
0F80
1DC0
1DC0
18E0
38E0
3FE0
7FF0
7070
7078
E038
ENDCHAR
STARTCHAR 0103
ENCODING 259
SWIDTH 647 0
DWIDTH 11 0
BBX 9 13 1 0
BITMAP
3300
1E00
0000
0000
7E00
7F80
0380
7F80
FF80
E380
E380
FF80
7B80
ENDCHAR
STARTCHAR 0104
ENCODING 260
SWIDTH 764 0
DWIDTH 13 0
BBX 13 15 0 -3
BITMAP
0F80
0F80
0F80
1DC0
1DC0
18E0
38E0
3FE0
7FF0
7070
7078
E038
0060
0040
0070
ENDCHAR
STARTCHAR 0105
ENCODING 261
SWIDTH 647 0
DWIDTH 11 0
BBX 9 12 1 -3
BITMAP
7E00
7F80
0380
7F80
FF80
E380
E380
FF80
7B80
0200
0600
0380
ENDCHAR
STARTCHAR 0106
ENCODING 262
SWIDTH 705 0
DWIDTH 12 0
BBX 10 15 1 0
BITMAP
0300
0600
0000
0FC0
3FC0
7840
F000
E000
E000
E000
E000
F000
7840
3FC0
0FC0
ENDCHAR
STARTCHAR 0107
ENCODING 263
SWIDTH 588 0
DWIDTH 10 0
BBX 8 14 1 0
BITMAP
03
06
0C
00
00
3E
7F
F1
E0
E0
E0
F1
7F
3E
ENDCHAR
STARTCHAR 0108
ENCODING 264
SWIDTH 705 0
DWIDTH 12 0
BBX 10 15 1 0
BITMAP
0700
0C80
0000
0FC0
3FC0
7840
F000
E000
E000
E000
E000
F000
7840
3FC0
0FC0
ENDCHAR
STARTCHAR 0109
ENCODING 265
SWIDTH 588 0
DWIDTH 10 0
BBX 8 14 1 0
BITMAP
0C
1E
33
00
00
3E
7F
F1
E0
E0
E0
F1
7F
3E
ENDCHAR
STARTCHAR 010A
ENCODING 266
SWIDTH 705 0
DWIDTH 12 0
BBX 10 16 1 0
BITMAP
0700
0700
0000
0000
0FC0
3FC0
7840
F000
E000
E000
E000
E000
F000
7840
3FC0
0FC0
ENDCHAR
STARTCHAR 010B
ENCODING 267
SWIDTH 588 0
DWIDTH 10 0
BBX 8 14 1 0
BITMAP
0E
0E
0E
00
00
3E
7F
F1
E0
E0
E0
F1
7F
3E
ENDCHAR
STARTCHAR 010C
ENCODING 268
SWIDTH 705 0
DWIDTH 12 0
BBX 10 15 1 0
BITMAP
0980
0F00
0000
0FC0
3FC0
7840
F000
E000
E000
E000
E000
F000
7840
3FC0
0FC0
ENDCHAR
STARTCHAR 010D
ENCODING 269
SWIDTH 588 0
DWIDTH 10 0
BBX 8 14 1 0
BITMAP
33
1E
0C
00
00
3E
7F
F1
E0
E0
E0
F1
7F
3E
ENDCHAR
STARTCHAR 010E
ENCODING 270
SWIDTH 823 0
DWIDTH 14 0
BBX 11 15 2 0
BITMAP
2600
1C00
0000
FE00
FF80
E3C0
E1E0
E0E0
E0E0
E0E0
E0E0
E1E0
E3C0
FF80
FE00
ENDCHAR
STARTCHAR 010F
ENCODING 271
SWIDTH 705 0
DWIDTH 12 0
BBX 14 13 1 0
BITMAP
01C0
01DC
01D8
01D8
39C0
7DC0
E3C0
E1C0
E1C0
E1C0
E3C0
7DC0
39C0
ENDCHAR
STARTCHAR 0110
ENCODING 272
SWIDTH 823 0
DWIDTH 14 0
BBX 13 12 0 0
BITMAP
3FC0
3FE0
38F0
3878
3838
FE38
FE38
3838
3878
38F0
3FE0
3FC0
ENDCHAR
STARTCHAR 0111
ENCODING 273
SWIDTH 705 0
DWIDTH 12 0
BBX 11 13 1 0
BITMAP
01C0
0FE0
0FE0
01C0
39C0
7DC0
E3C0
E1C0
E1C0
E1C0
E3C0
7DC0
39C0
ENDCHAR
STARTCHAR 0112
ENCODING 274
SWIDTH 705 0
DWIDTH 12 0
BBX 8 16 2 0
BITMAP
7C
7C
00
00
FF
FF
E0
E0
E0
FF
FF
E0
E0
E0
FF
FF
ENDCHAR
STARTCHAR 0113
ENCODING 275
SWIDTH 705 0
DWIDTH 12 0
BBX 10 13 1 0
BITMAP
3E00
3E00
0000
0000
3E00
7F80
E380
FFC0
FFC0
E000
F080
7F80
3F00
ENDCHAR
STARTCHAR 0114
ENCODING 276
SWIDTH 705 0
DWIDTH 12 0
BBX 8 15 2 0
BITMAP
44
3C
00
FF
FF
E0
E0
E0
FF
FF
E0
E0
E0
FF
FF
ENDCHAR
STARTCHAR 0115
ENCODING 277
SWIDTH 705 0
DWIDTH 12 0
BBX 10 13 1 0
BITMAP
3300
1E00
0000
0000
3E00
7F80
E380
FFC0
FFC0
E000
F080
7F80
3F00
ENDCHAR
STARTCHAR 0116
ENCODING 278
SWIDTH 705 0
DWIDTH 12 0
BBX 8 16 2 0
BITMAP
18
18
00
00
FF
FF
E0
E0
E0
FF
FF
E0
E0
E0
FF
FF
ENDCHAR
STARTCHAR 0117
ENCODING 279
SWIDTH 705 0
DWIDTH 12 0
BBX 10 14 1 0
BITMAP
0E00
0E00
0E00
0000
0000
3E00
7F80
E380
FFC0
FFC0
E000
F080
7F80
3F00
ENDCHAR
STARTCHAR 0118
ENCODING 280
SWIDTH 705 0
DWIDTH 12 0
BBX 8 15 2 -3
BITMAP
FF
FF
E0
E0
E0
FF
FF
E0
E0
E0
FF
FF
06
04
07
ENDCHAR
STARTCHAR 0119
ENCODING 281
SWIDTH 705 0
DWIDTH 12 0
BBX 10 12 1 -3
BITMAP
3E00
7F80
E380
FFC0
FFC0
E000
F080
7F80
3F00
0200
0600
0380
ENDCHAR
STARTCHAR 011A
ENCODING 282
SWIDTH 705 0
DWIDTH 12 0
BBX 8 15 2 0
BITMAP
66
3C
00
FF
FF
E0
E0
E0
FF
FF
E0
E0
E0
FF
FF
ENDCHAR
STARTCHAR 011B
ENCODING 283
SWIDTH 705 0
DWIDTH 12 0
BBX 10 14 1 0
BITMAP
3300
1E00
0C00
0000
0000
3E00
7F80
E380
FFC0
FFC0
E000
F080
7F80
3F00
ENDCHAR
STARTCHAR 011C
ENCODING 284
SWIDTH 823 0
DWIDTH 14 0
BBX 12 15 1 0
BITMAP
0700
0C80
0000
0FC0
3FE0
7820
F000
E000
E1F0
E1F0
E070
F070
7870
3FF0
0FC0
ENDCHAR
STARTCHAR 011D
ENCODING 285
SWIDTH 705 0
DWIDTH 12 0
BBX 10 18 1 -4
BITMAP
1C00
1E00
3300
0000
0000
39C0
7DC0
E3C0
E1C0
E1C0
E1C0
E3C0
7DC0
39C0
03C0
4380
7F00
3E00
ENDCHAR
STARTCHAR 011E
ENCODING 286
SWIDTH 823 0
DWIDTH 14 0
BBX 12 15 1 0
BITMAP
1100
0F00
0000
0FC0
3FE0
7820
F000
E000
E1F0
E1F0
E070
F070
7870
3FF0
0FC0
ENDCHAR
STARTCHAR 011F
ENCODING 287
SWIDTH 705 0
DWIDTH 12 0
BBX 10 17 1 -4
BITMAP
3300
1E00
0000
0000
39C0
7DC0
E3C0
E1C0
E1C0
E1C0
E3C0
7DC0
39C0
03C0
4380
7F00
3E00
ENDCHAR
STARTCHAR 0120
ENCODING 288
SWIDTH 823 0
DWIDTH 14 0
BBX 12 16 1 0
BITMAP
0300
0300
0000
0000
0FC0
3FE0
7820
F000
E000
E1F0
E1F0
E070
F070
7870
3FF0
0FC0
ENDCHAR
STARTCHAR 0121
ENCODING 289
SWIDTH 705 0
DWIDTH 12 0
BBX 10 18 1 -4
BITMAP
1C00
1C00
1C00
0000
0000
39C0
7DC0
E3C0
E1C0
E1C0
E1C0
E3C0
7DC0
39C0
03C0
4380
7F00
3E00
ENDCHAR
STARTCHAR 0122
ENCODING 290
SWIDTH 823 0
DWIDTH 14 0
BBX 12 16 1 -4
BITMAP
0FC0
3FE0
7820
F000
E000
E1F0
E1F0
E070
F070
7870
3FF0
0FC0
0000
0000
0700
0600
ENDCHAR
STARTCHAR 0123
ENCODING 291
SWIDTH 705 0
DWIDTH 12 0
BBX 10 16 1 -4
BITMAP
0600
0C00
0000
39C0
7DC0
E3C0
E1C0
E1C0
E1C0
E3C0
7DC0
39C0
03C0
4380
7F00
3E00
ENDCHAR
STARTCHAR 0124
ENCODING 292
SWIDTH 823 0
DWIDTH 14 0
BBX 11 15 2 0
BITMAP
1E00
3300
0000
E1E0
E1E0
E1E0
E1E0
E1E0
FFE0
FFE0
E1E0
E1E0
E1E0
E1E0
E1E0
ENDCHAR
STARTCHAR 0125
ENCODING 293
SWIDTH 705 0
DWIDTH 12 0
BBX 11 15 0 0
BITMAP
7800
CC00
0000
7000
7000
7000
7380
77C0
79E0
78E0
70E0
70E0
70E0
70E0
70E0
ENDCHAR
STARTCHAR 0126
ENCODING 294
SWIDTH 1000 0
DWIDTH 17 0
BBX 13 12 2 0
BITMAP
7070
FFF8
FFF8
7070
7070
7FF0
7FF0
7070
7070
7070
7070
7070
ENDCHAR
STARTCHAR 0127
ENCODING 295
SWIDTH 764 0
DWIDTH 13 0
BBX 11 13 1 0
BITMAP
3800
FF00
FF00
3800
3BC0
3FE0
38E0
38E0
38E0
38E0
38E0
38E0
38E0
ENDCHAR
STARTCHAR 0128
ENCODING 296
SWIDTH 352 0
DWIDTH 6 0
BBX 6 16 0 0
BITMAP
64
FC
98
00
38
38
38
38
38
38
38
38
38
38
38
38
ENDCHAR
STARTCHAR 0129
ENCODING 297
SWIDTH 352 0
DWIDTH 6 0
BBX 6 14 0 0
BITMAP
64
FC
98
00
00
70
70
70
70
70
70
70
70
70
ENDCHAR
STARTCHAR 012A
ENCODING 298
SWIDTH 352 0
DWIDTH 6 0
BBX 5 16 1 0
BITMAP
F8
F8
00
00
70
70
70
70
70
70
70
70
70
70
70
70
ENDCHAR
STARTCHAR 012B
ENCODING 299
SWIDTH 352 0
DWIDTH 6 0
BBX 6 13 0 0
BITMAP
FC
FC
00
00
70
70
70
70
70
70
70
70
70
ENDCHAR
STARTCHAR 012C
ENCODING 300
SWIDTH 352 0
DWIDTH 6 0
BBX 6 15 0 0
BITMAP
CC
78
00
38
38
38
38
38
38
38
38
38
38
38
38
ENDCHAR
STARTCHAR 012D
ENCODING 301
SWIDTH 352 0
DWIDTH 6 0
BBX 6 13 0 0
BITMAP
CC
78
00
00
70
70
70
70
70
70
70
70
70
ENDCHAR
STARTCHAR 012E
ENCODING 302
SWIDTH 352 0
DWIDTH 6 0
BBX 4 15 2 -3
BITMAP
E0
E0
E0
E0
E0
E0
E0
E0
E0
E0
E0
E0
40
40
70
ENDCHAR
STARTCHAR 012F
ENCODING 303
SWIDTH 352 0
DWIDTH 6 0
BBX 5 16 1 -3
BITMAP
E0
E0
E0
00
E0
E0
E0
E0
E0
E0
E0
E0
E0
20
60
38
ENDCHAR
STARTCHAR 0130
ENCODING 304
SWIDTH 352 0
DWIDTH 6 0
BBX 3 16 2 0
BITMAP
C0
C0
00
00
E0
E0
E0
E0
E0
E0
E0
E0
E0
E0
E0
E0
ENDCHAR
STARTCHAR 0131
ENCODING 305
SWIDTH 352 0
DWIDTH 6 0
BBX 3 9 1 0
BITMAP
E0
E0
E0
E0
E0
E0
E0
E0
E0
ENDCHAR
STARTCHAR 0132
ENCODING 306
SWIDTH 764 0
DWIDTH 13 0
BBX 9 15 2 -3
BITMAP
E380
E380
E380
E380
E380
E380
E380
E380
E380
E380
E380
E380
0780
1F00
1E00
ENDCHAR
STARTCHAR 0133
ENCODING 307
SWIDTH 705 0
DWIDTH 12 0
BBX 9 17 1 -4
BITMAP
E380
E380
E380
0000
E380
E380
E380
E380
E380
E380
E380
E380
E380
0380
0380
0F80
0F00
ENDCHAR
STARTCHAR 0134
ENCODING 308
SWIDTH 352 0
DWIDTH 6 0
BBX 7 18 -1 -3
BITMAP
3C
66
00
1C
1C
1C
1C
1C
1C
1C
1C
1C
1C
1C
1C
3C
F8
F0
ENDCHAR
STARTCHAR 0135
ENCODING 309
SWIDTH 352 0
DWIDTH 6 0
BBX 7 18 -1 -4
BITMAP
18
3C
66
00
00
38
38
38
38
38
38
38
38
38
38
38
F8
F0
ENDCHAR
STARTCHAR 0136
ENCODING 310
SWIDTH 764 0
DWIDTH 13 0
BBX 11 15 2 -3
BITMAP
E1E0
E3C0
E700
EE00
FC00
F800
FC00
FE00
EF00
E780
E3C0
E1E0
0000
0E00
0C00
ENDCHAR
STARTCHAR 0137
ENCODING 311
SWIDTH 647 0
DWIDTH 11 0
BBX 10 16 1 -3
BITMAP
E000
E000
E000
E000
E3C0
E780
EF00
FC00
FC00
EE00
E700
E380
E1C0
0000
0E00
0C00
ENDCHAR
STARTCHAR 0138
ENCODING 312
SWIDTH 647 0
DWIDTH 11 0
BBX 10 9 1 0
BITMAP
E3C0
E780
EF00
FC00
FC00
EE00
E700
E380
E1C0
ENDCHAR
STARTCHAR 0139
ENCODING 313
SWIDTH 647 0
DWIDTH 11 0
BBX 8 15 2 0
BITMAP
30
60
00
E0
E0
E0
E0
E0
E0
E0
E0
E0
E0
FF
FF
ENDCHAR
STARTCHAR 013A
ENCODING 314
SWIDTH 352 0
DWIDTH 6 0
BBX 4 16 1 0
BITMAP
30
60
00
E0
E0
E0
E0
E0
E0
E0
E0
E0
E0
E0
E0
E0
ENDCHAR
STARTCHAR 013B
ENCODING 315
SWIDTH 647 0
DWIDTH 11 0
BBX 8 15 2 -3
BITMAP
E0
E0
E0
E0
E0
E0
E0
E0
E0
E0
FF
FF
00
18
30
ENDCHAR
STARTCHAR 013C
ENCODING 316
SWIDTH 352 0
DWIDTH 6 0
BBX 3 16 1 -3
BITMAP
E0
E0
E0
E0
E0
E0
E0
E0
E0
E0
E0
E0
E0
00
60
C0
ENDCHAR
STARTCHAR 013D
ENCODING 317
SWIDTH 647 0
DWIDTH 11 0
BBX 8 12 2 0
BITMAP
E3
E3
E6
E0
E0
E0
E0
E0
E0
E0
FF
FF
ENDCHAR
STARTCHAR 013E
ENCODING 318
SWIDTH 470 0
DWIDTH 8 0
BBX 7 13 1 0
BITMAP
E0
E6
EC
EC
E0
E0
E0
E0
E0
E0
E0
E0
E0
ENDCHAR
STARTCHAR 013F
ENCODING 319
SWIDTH 647 0
DWIDTH 11 0
BBX 8 12 2 0
BITMAP
E0
E0
E7
E7
E7
E0
E0
E0
E0
E0
FF
FF
ENDCHAR
STARTCHAR 0140
ENCODING 320
SWIDTH 529 0
DWIDTH 9 0
BBX 7 13 1 0
BITMAP
E0
E0
E0
EE
EE
EE
E0
E0
E0
E0
E0
E0
E0
ENDCHAR
STARTCHAR 0141
ENCODING 321
SWIDTH 647 0
DWIDTH 11 0
BBX 11 12 -1 0
BITMAP
1C00
1C00
1D00
1F80
1F00
1C00
3C00
FC00
5C00
1C00
1FE0
1FE0
ENDCHAR
STARTCHAR 0142
ENCODING 322
SWIDTH 352 0
DWIDTH 6 0
BBX 6 13 0 0
BITMAP
38
38
38
38
3C
3C
78
F8
38
38
38
38
38
ENDCHAR
STARTCHAR 0143
ENCODING 323
SWIDTH 823 0
DWIDTH 14 0
BBX 11 15 2 0
BITMAP
0600
0C00
0000
E0E0
F0E0
F0E0
F8E0
FCE0
ECE0
EEE0
E6E0
E7E0
E3E0
E3E0
E1E0
ENDCHAR
STARTCHAR 0144
ENCODING 324
SWIDTH 705 0
DWIDTH 12 0
BBX 10 14 1 0
BITMAP
0600
0C00
1800
0000
0000
E700
EF80
F3C0
F1C0
E1C0
E1C0
E1C0
E1C0
E1C0
ENDCHAR
STARTCHAR 0145
ENCODING 325
SWIDTH 823 0
DWIDTH 14 0
BBX 11 15 2 -3
BITMAP
E0E0
F0E0
F0E0
F8E0
FCE0
ECE0
EEE0
E6E0
E7E0
E3E0
E3E0
E1E0
0000
0C00
0800
ENDCHAR
STARTCHAR 0146
ENCODING 326
SWIDTH 705 0
DWIDTH 12 0
BBX 10 12 1 -3
BITMAP
E700
EF80
F3C0
F1C0
E1C0
E1C0
E1C0
E1C0
E1C0
0000
0C00
0800
ENDCHAR
STARTCHAR 0147
ENCODING 327
SWIDTH 823 0
DWIDTH 14 0
BBX 11 15 2 0
BITMAP
1300
0E00
0000
E0E0
F0E0
F0E0
F8E0
FCE0
ECE0
EEE0
E6E0
E7E0
E3E0
E3E0
E1E0
ENDCHAR
STARTCHAR 0148
ENCODING 328
SWIDTH 705 0
DWIDTH 12 0
BBX 10 14 1 0
BITMAP
2200
1600
1C00
0000
0000
E700
EF80
F3C0
F1C0
E1C0
E1C0
E1C0
E1C0
E1C0
ENDCHAR
STARTCHAR 0149
ENCODING 329
SWIDTH 1000 0
DWIDTH 17 0
BBX 14 12 1 0
BITMAP
7000
7000
6000
E778
C7FC
071C
071C
071C
071C
071C
071C
071C
ENDCHAR
STARTCHAR 014A
ENCODING 330
SWIDTH 823 0
DWIDTH 14 0
BBX 11 15 1 -3
BITMAP
F7C0
FFE0
F8E0
F0E0
F0E0
E0E0
E0E0
E0E0
E0E0
E0E0
E0E0
E0E0
00E0
03E0
0380
ENDCHAR
STARTCHAR 014B
ENCODING 331
SWIDTH 705 0
DWIDTH 12 0
BBX 10 13 1 -4
BITMAP
E700
EF80
F3C0
F1C0
E1C0
E1C0
E1C0
E1C0
E1C0
01C0
01C0
0F80
0F00
ENDCHAR
STARTCHAR 014C
ENCODING 332
SWIDTH 823 0
DWIDTH 14 0
BBX 13 16 1 0
BITMAP
0F80
0F80
0000
0000
1F80
3FE0
78F0
F070
E070
E078
E078
E070
F070
78F0
3FE0
1F80
ENDCHAR
STARTCHAR 014D
ENCODING 333
SWIDTH 705 0
DWIDTH 12 0
BBX 10 13 1 0
BITMAP
3E00
3E00
0000
0000
3F00
7F80
E3C0
E1C0
E1C0
E1C0
E3C0
7F80
3F00
ENDCHAR
STARTCHAR 014E
ENCODING 334
SWIDTH 823 0
DWIDTH 14 0
BBX 13 15 1 0
BITMAP
1880
0F00
0000
1F80
3FE0
78F0
F070
E070
E078
E078
E070
F070
78F0
3FE0
1F80
ENDCHAR
STARTCHAR 014F
ENCODING 335
SWIDTH 705 0
DWIDTH 12 0
BBX 10 13 1 0
BITMAP
2300
1E00
0000
0000
3F00
7F80
E3C0
E1C0
E1C0
E1C0
E3C0
7F80
3F00
ENDCHAR
STARTCHAR 0150
ENCODING 336
SWIDTH 823 0
DWIDTH 14 0
BBX 13 15 1 0
BITMAP
0FC0
0900
0000
1F80
3FE0
78F0
F070
E070
E078
E078
E070
F070
78F0
3FE0
1F80
ENDCHAR
STARTCHAR 0151
ENCODING 337
SWIDTH 705 0
DWIDTH 12 0
BBX 10 13 1 0
BITMAP
0980
1B00
1200
0000
3F00
7F80
E3C0
E1C0
E1C0
E1C0
E3C0
7F80
3F00
ENDCHAR
STARTCHAR 0152
ENCODING 338
SWIDTH 1176 0
DWIDTH 20 0
BBX 18 12 1 0
BITMAP
0FFF80
3FFF80
787000
F07000
E07000
E07F80
E07F80
E07000
F07000
787000
3FFFC0
0FFFC0
ENDCHAR
STARTCHAR 0153
ENCODING 339
SWIDTH 1117 0
DWIDTH 19 0
BBX 17 9 1 0
BITMAP
3E3C00
7FFF00
E3C300
E1FF80
E1FF80
E1C000
E3E100
7FFF00
3E3E00
ENDCHAR
STARTCHAR 0154
ENCODING 340
SWIDTH 764 0
DWIDTH 13 0
BBX 10 15 2 0
BITMAP
0C00
1800
0000
FE00
FF80
E380
E380
E380
E380
FF00
FF00
E780
E380
E3C0
E1C0
ENDCHAR
STARTCHAR 0155
ENCODING 341
SWIDTH 470 0
DWIDTH 8 0
BBX 7 14 1 0
BITMAP
06
0C
18
00
00
E6
EE
F0
F0
E0
E0
E0
E0
E0
ENDCHAR
STARTCHAR 0156
ENCODING 342
SWIDTH 764 0
DWIDTH 13 0
BBX 10 15 2 -3
BITMAP
FE00
FF80
E380
E380
E380
E380
FF00
FF00
E780
E380
E3C0
E1C0
0000
0C00
0800
ENDCHAR
STARTCHAR 0157
ENCODING 343
SWIDTH 470 0
DWIDTH 8 0
BBX 7 12 1 -3
BITMAP
E6
EE
F0
F0
E0
E0
E0
E0
E0
00
60
C0
ENDCHAR
STARTCHAR 0158
ENCODING 344
SWIDTH 764 0
DWIDTH 13 0
BBX 10 15 2 0
BITMAP
6600
3C00
0000
FE00
FF80
E380
E380
E380
E380
FF00
FF00
E780
E380
E3C0
E1C0
ENDCHAR
STARTCHAR 0159
ENCODING 345
SWIDTH 470 0
DWIDTH 8 0
BBX 7 14 1 0
BITMAP
66
3C
18
00
00
E6
EE
F0
F0
E0
E0
E0
E0
E0
ENDCHAR
STARTCHAR 015A
ENCODING 346
SWIDTH 705 0
DWIDTH 12 0
BBX 10 15 1 0
BITMAP
0600
0C00
0000
3F80
7F80
E080
E000
F000
7F00
3FC0
07C0
01C0
C1C0
FF80
7F00
ENDCHAR
STARTCHAR 015B
ENCODING 347
SWIDTH 588 0
DWIDTH 10 0
BBX 8 14 1 0
BITMAP
06
0C
18
00
00
7E
FF
E1
E0
7E
07
87
FF
7E
ENDCHAR
STARTCHAR 015C
ENCODING 348
SWIDTH 705 0
DWIDTH 12 0
BBX 10 15 1 0
BITMAP
1E00
3300
0000
3F80
7F80
E080
E000
F000
7F00
3FC0
07C0
01C0
C1C0
FF80
7F00
ENDCHAR
STARTCHAR 015D
ENCODING 349
SWIDTH 588 0
DWIDTH 10 0
BBX 8 14 1 0
BITMAP
18
3C
66
00
00
7E
FF
E1
E0
7E
07
87
FF
7E
ENDCHAR
STARTCHAR 015E
ENCODING 350
SWIDTH 705 0
DWIDTH 12 0
BBX 10 15 1 -3
BITMAP
3F80
7F80
E080
E000
F000
7F00
3FC0
07C0
01C0
C1C0
FF80
7F00
0400
0600
1C00
ENDCHAR
STARTCHAR 015F
ENCODING 351
SWIDTH 588 0
DWIDTH 10 0
BBX 8 12 1 -3
BITMAP
7E
FF
E1
E0
7E
07
87
FF
7E
08
0C
38
ENDCHAR
STARTCHAR 0160
ENCODING 352
SWIDTH 705 0
DWIDTH 12 0
BBX 10 15 1 0
BITMAP
3300
1E00
0000
3F80
7F80
E080
E000
F000
7F00
3FC0
07C0
01C0
C1C0
FF80
7F00
ENDCHAR
STARTCHAR 0161
ENCODING 353
SWIDTH 588 0
DWIDTH 10 0
BBX 8 14 1 0
BITMAP
66
3C
18
00
00
7E
FF
E1
E0
7E
07
87
FF
7E
ENDCHAR
STARTCHAR 0162
ENCODING 354
SWIDTH 705 0
DWIDTH 12 0
BBX 12 15 0 -3
BITMAP
FFF0
FFF0
0E00
0E00
0E00
0E00
0E00
0E00
0E00
0E00
0E00
0E00
0200
0200
0E00
ENDCHAR
STARTCHAR 0163
ENCODING 355
SWIDTH 470 0
DWIDTH 8 0
BBX 8 15 0 -3
BITMAP
38
38
38
FF
FF
38
38
38
38
38
3E
1E
08
04
3C
ENDCHAR
STARTCHAR 0164
ENCODING 356
SWIDTH 705 0
DWIDTH 12 0
BBX 12 15 0 0
BITMAP
1900
0F00
0000
FFF0
FFF0
0E00
0E00
0E00
0E00
0E00
0E00
0E00
0E00
0E00
0E00
ENDCHAR
STARTCHAR 0165
ENCODING 357
SWIDTH 470 0
DWIDTH 8 0
BBX 8 13 0 0
BITMAP
03
3B
3A
38
FF
FF
38
38
38
38
38
3E
1E
ENDCHAR
STARTCHAR 0166
ENCODING 358
SWIDTH 705 0
DWIDTH 12 0
BBX 12 12 0 0
BITMAP
FFF0
FFF0
0E00
0E00
0E00
0E00
3F80
3F80
0E00
0E00
0E00
0E00
ENDCHAR
STARTCHAR 0167
ENCODING 359
SWIDTH 470 0
DWIDTH 8 0
BBX 8 12 0 0
BITMAP
38
38
38
FF
FF
38
FF
FF
38
38
3E
1E
ENDCHAR
STARTCHAR 0168
ENCODING 360
SWIDTH 823 0
DWIDTH 14 0
BBX 10 16 2 0
BITMAP
1900
3F00
2600
0000
E1C0
E1C0
E1C0
E1C0
E1C0
E1C0
E1C0
E1C0
E1C0
E3C0
7F80
3F00
ENDCHAR
STARTCHAR 0169
ENCODING 361
SWIDTH 705 0
DWIDTH 12 0
BBX 10 14 1 0
BITMAP
1900
1F00
3700
0000
0000
E1C0
E1C0
E1C0
E1C0
E1C0
E1C0
F3C0
7DC0
39C0
ENDCHAR
STARTCHAR 016A
ENCODING 362
SWIDTH 823 0
DWIDTH 14 0
BBX 10 16 2 0
BITMAP
3F00
3F00
0000
0000
E1C0
E1C0
E1C0
E1C0
E1C0
E1C0
E1C0
E1C0
E1C0
E3C0
7F80
3F00
ENDCHAR
STARTCHAR 016B
ENCODING 363
SWIDTH 705 0
DWIDTH 12 0
BBX 10 13 1 0
BITMAP
3F00
3F00
0000
0000
E1C0
E1C0
E1C0
E1C0
E1C0
E1C0
F3C0
7DC0
39C0
ENDCHAR
STARTCHAR 016C
ENCODING 364
SWIDTH 823 0
DWIDTH 14 0
BBX 10 15 2 0
BITMAP
3300
1E00
0000
E1C0
E1C0
E1C0
E1C0
E1C0
E1C0
E1C0
E1C0
E1C0
E3C0
7F80
3F00
ENDCHAR
STARTCHAR 016D
ENCODING 365
SWIDTH 705 0
DWIDTH 12 0
BBX 10 13 1 0
BITMAP
1100
1E00
0000
0000
E1C0
E1C0
E1C0
E1C0
E1C0
E1C0
F3C0
7DC0
39C0
ENDCHAR
STARTCHAR 016E
ENCODING 366
SWIDTH 823 0
DWIDTH 14 0
BBX 10 16 2 0
BITMAP
0C00
1200
1200
1200
EDC0
E1C0
E1C0
E1C0
E1C0
E1C0
E1C0
E1C0
E1C0
E3C0
7F80
3F00
ENDCHAR
STARTCHAR 016F
ENCODING 367
SWIDTH 705 0
DWIDTH 12 0
BBX 10 15 1 0
BITMAP
0E00
1200
1200
1200
0E00
0000
E1C0
E1C0
E1C0
E1C0
E1C0
E1C0
F3C0
7DC0
39C0
ENDCHAR
STARTCHAR 0170
ENCODING 368
SWIDTH 823 0
DWIDTH 14 0
BBX 10 15 2 0
BITMAP
1B00
3600
0000
E1C0
E1C0
E1C0
E1C0
E1C0
E1C0
E1C0
E1C0
E1C0
E3C0
7F80
3F00
ENDCHAR
STARTCHAR 0171
ENCODING 369
SWIDTH 705 0
DWIDTH 12 0
BBX 10 13 1 0
BITMAP
0D80
1B00
1200
0000
E1C0
E1C0
E1C0
E1C0
E1C0
E1C0
F3C0
7DC0
39C0
ENDCHAR
STARTCHAR 0172
ENCODING 370
SWIDTH 823 0
DWIDTH 14 0
BBX 10 15 2 -3
BITMAP
E1C0
E1C0
E1C0
E1C0
E1C0
E1C0
E1C0
E1C0
E1C0
E3C0
7F80
3F00
0800
1800
0E00
ENDCHAR
STARTCHAR 0173
ENCODING 371
SWIDTH 705 0
DWIDTH 12 0
BBX 11 12 1 -3
BITMAP
E1C0
E1C0
E1C0
E1C0
E1C0
E1C0
F3C0
7DC0
39C0
0080
0080
00E0
ENDCHAR
STARTCHAR 0174
ENCODING 372
SWIDTH 1117 0
DWIDTH 19 0
BBX 17 15 1 0
BITMAP
01C000
026000
000000
E1C380
E3C380
E3E380
E36700
736700
736700
767700
767E00
3E3E00
3E3E00
3E3E00
3C3C00
ENDCHAR
STARTCHAR 0175
ENCODING 373
SWIDTH 941 0
DWIDTH 16 0
BBX 14 14 1 0
BITMAP
0300
0780
0CC0
0000
0000
E71C
E71C
E798
67B8
7DB8
7CB8
7CF0
3CF0
38F0
ENDCHAR
STARTCHAR 0176
ENCODING 374
SWIDTH 705 0
DWIDTH 12 0
BBX 12 15 0 0
BITMAP
0F00
1980
0000
F070
70E0
39E0
3DC0
1F80
0F80
0F00
0700
0700
0700
0700
0700
ENDCHAR
STARTCHAR 0177
ENCODING 375
SWIDTH 647 0
DWIDTH 11 0
BBX 11 18 0 -4
BITMAP
0E00
1B00
1100
0000
0000
E0E0
71C0
71C0
3980
3B80
1B80
1F00
1F00
0E00
0E00
0E00
3C00
3800
ENDCHAR
STARTCHAR 0178
ENCODING 376
SWIDTH 705 0
DWIDTH 12 0
BBX 12 16 0 0
BITMAP
0980
0980
0000
0000
F070
70E0
39E0
3DC0
1F80
0F80
0F00
0700
0700
0700
0700
0700
ENDCHAR
STARTCHAR 0179
ENCODING 377
SWIDTH 705 0
DWIDTH 12 0
BBX 11 15 1 0
BITMAP
0600
0C00
0000
FFC0
FFC0
03C0
0780
0F00
0E00
1E00
3C00
7800
F000
FFE0
FFE0
ENDCHAR
STARTCHAR 017A
ENCODING 378
SWIDTH 588 0
DWIDTH 10 0
BBX 8 14 1 0
BITMAP
06
0C
18
00
00
FF
FF
0F
1E
3C
78
F0
FF
FF
ENDCHAR
STARTCHAR 017B
ENCODING 379
SWIDTH 705 0
DWIDTH 12 0
BBX 11 16 1 0
BITMAP
0C00
0C00
0000
0000
FFC0
FFC0
03C0
0780
0F00
0E00
1E00
3C00
7800
F000
FFE0
FFE0
ENDCHAR
STARTCHAR 017C
ENCODING 380
SWIDTH 588 0
DWIDTH 10 0
BBX 8 14 1 0
BITMAP
38
38
38
00
00
FF
FF
0F
1E
3C
78
F0
FF
FF
ENDCHAR
STARTCHAR 017D
ENCODING 381
SWIDTH 705 0
DWIDTH 12 0
BBX 11 15 1 0
BITMAP
3300
1E00
0000
FFC0
FFC0
03C0
0780
0F00
0E00
1E00
3C00
7800
F000
FFE0
FFE0
ENDCHAR
STARTCHAR 017E
ENCODING 382
SWIDTH 588 0
DWIDTH 10 0
BBX 8 14 1 0
BITMAP
66
3C
18
00
00
FF
FF
0F
1E
3C
78
F0
FF
FF
ENDCHAR
STARTCHAR 017F
ENCODING 383
SWIDTH 411 0
DWIDTH 7 0
BBX 8 13 0 0
BITMAP
1F
3F
38
38
F8
F8
38
38
38
38
38
38
38
ENDCHAR
STARTCHAR 0180
ENCODING 384
SWIDTH 705 0
DWIDTH 12 0
BBX 11 13 0 0
BITMAP
7000
FE00
FE00
7000
7380
77E0
78E0
78E0
70E0
78E0
78E0
77E0
7380
ENDCHAR
STARTCHAR 0181
ENCODING 385
SWIDTH 823 0
DWIDTH 14 0
BBX 14 12 -1 0
BITMAP
7FE0
FFF8
DE38
1E38
1E38
1FF0
1FF8
1E38
1E3C
1E3C
1FF8
1FF0
ENDCHAR
STARTCHAR 0182
ENCODING 386
SWIDTH 764 0
DWIDTH 13 0
BBX 10 12 2 0
BITMAP
FF80
FF80
E000
E000
E000
FF00
FF80
E3C0
E1C0
E3C0
FF80
FF00
ENDCHAR
STARTCHAR 0183
ENCODING 387
SWIDTH 705 0
DWIDTH 12 0
BBX 10 13 1 0
BITMAP
FF80
FF80
E000
E000
E700
EFC0
F1C0
F1C0
E1C0
F1C0
F1C0
EFC0
E700
ENDCHAR
STARTCHAR 0184
ENCODING 388
SWIDTH 764 0
DWIDTH 13 0
BBX 11 12 1 0
BITMAP
1000
3000
F000
F000
7F00
7FC0
7FE0
70E0
70E0
70E0
7FE0
7F80
ENDCHAR
STARTCHAR 0185
ENCODING 389
SWIDTH 705 0
DWIDTH 12 0
BBX 11 13 1 0
BITMAP
1000
3000
7000
F000
FF80
7FC0
71E0
70E0
70E0
70E0
71E0
7FC0
7780
ENDCHAR
STARTCHAR 0186
ENCODING 390
SWIDTH 705 0
DWIDTH 12 0
BBX 10 12 1 0
BITMAP
3E00
FF00
C780
03C0
01C0
01C0
01C0
01C0
03C0
C780
FF00
3E00
ENDCHAR
STARTCHAR 0187
ENCODING 391
SWIDTH 705 0
DWIDTH 12 0
BBX 13 15 1 0
BITMAP
0078
00F8
01E0
0FC0
3FC0
7840
F000
E000
E000
E000
E000
F000
7840
3FC0
0FC0
ENDCHAR
STARTCHAR 0188
ENCODING 392
SWIDTH 588 0
DWIDTH 10 0
BBX 10 12 1 0
BITMAP
03C0
03C0
0700
3F00
7F00
F100
E000
E000
E000
F100
7F00
3E00
ENDCHAR
STARTCHAR 0189
ENCODING 393
SWIDTH 823 0
DWIDTH 14 0
BBX 13 12 0 0
BITMAP
3FC0
3FE0
38F0
3878
3838
FE38
FE38
3838
3878
38F0
3FE0
3FC0
ENDCHAR
STARTCHAR 018A
ENCODING 394
SWIDTH 882 0
DWIDTH 15 0
BBX 15 12 -1 0
BITMAP
7FE0
FFF8
DE3C
1E1E
1E0E
1E0E
1E0E
1E0E
1E1E
1E3C
1FF8
1FE0
ENDCHAR
STARTCHAR 018B
ENCODING 395
SWIDTH 764 0
DWIDTH 13 0
BBX 10 12 1 0
BITMAP
7FC0
7FC0
01C0
01C0
01C0
3FC0
7FC0
F1C0
E1C0
F1C0
7FC0
3FC0
ENDCHAR
STARTCHAR 018C
ENCODING 396
SWIDTH 705 0
DWIDTH 12 0
BBX 10 13 1 0
BITMAP
7FC0
7FC0
01C0
01C0
39C0
7DC0
E3C0
E1C0
E1C0
E1C0
E3C0
7DC0
39C0
ENDCHAR
STARTCHAR 018D
ENCODING 397
SWIDTH 705 0
DWIDTH 12 0
BBX 10 13 1 -4
BITMAP
3E00
7F80
F3C0
E1C0
E1C0
E1C0
F380
7F80
3F00
0380
0380
7F80
7E00
ENDCHAR
STARTCHAR 018E
ENCODING 398
SWIDTH 705 0
DWIDTH 12 0
BBX 8 12 2 0
BITMAP
FF
FF
07
07
07
FF
FF
07
07
07
FF
FF
ENDCHAR
STARTCHAR 018F
ENCODING 399
SWIDTH 823 0
DWIDTH 14 0
BBX 13 12 1 0
BITMAP
3F80
7FE0
40F0
0070
0070
FFF8
FFF8
E070
F070
78F0
3FE0
1F80
ENDCHAR
STARTCHAR 0190
ENCODING 400
SWIDTH 705 0
DWIDTH 12 0
BBX 9 12 1 0
BITMAP
3E00
7F00
F180
F000
7000
3E00
7E00
F000
E000
F080
7F80
3F00
ENDCHAR
STARTCHAR 0191
ENCODING 401
SWIDTH 705 0
DWIDTH 12 0
BBX 11 15 -1 -3
BITMAP
1FE0
1FE0
1C00
1C00
1C00
1FE0
1FE0
1C00
1C00
1C00
1C00
1C00
3C00
F800
F000
ENDCHAR
STARTCHAR 0192
ENCODING 402
SWIDTH 411 0
DWIDTH 7 0
BBX 9 17 -1 -4
BITMAP
0F80
1F80
1C00
1C00
7F00
7F00
1C00
1C00
1C00
1C00
1C00
1C00
1C00
1C00
1C00
F800
F800
ENDCHAR
STARTCHAR 0193
ENCODING 403
SWIDTH 823 0
DWIDTH 14 0
BBX 14 16 1 0
BITMAP
001C
007C
0070
00E0
0FE0
3FE0
7820
F000
E000
E1F0
E1F0
E070
F070
7870
3FF0
0FC0
ENDCHAR
STARTCHAR 0194
ENCODING 404
SWIDTH 764 0
DWIDTH 13 0
BBX 13 15 0 -3
BITMAP
F038
7070
3870
3CE0
1DE0
0FC0
0F80
0780
0780
0F80
0DC0
1CC0
1CE0
1FC0
0FC0
ENDCHAR
STARTCHAR 0195
ENCODING 405
SWIDTH 1058 0
DWIDTH 18 0
BBX 16 13 1 0
BITMAP
E000
E000
E000
E200
EF8C
FFCE
F1C7
E1C7
E1C7
E1C7
E1CF
E1FE
E0FC
ENDCHAR
STARTCHAR 0196
ENCODING 406
SWIDTH 411 0
DWIDTH 7 0
BBX 5 12 2 0
BITMAP
E0
E0
E0
E0
E0
E0
E0
E0
E0
E0
F8
38
ENDCHAR
STARTCHAR 0197
ENCODING 407
SWIDTH 411 0
DWIDTH 7 0
BBX 7 12 0 0
BITMAP
38
38
38
38
38
FE
FE
38
38
38
38
38
ENDCHAR
STARTCHAR 0198
ENCODING 408
SWIDTH 764 0
DWIDTH 13 0
BBX 11 13 2 0
BITMAP
0080
E3E0
E7E0
EF60
FE60
FC00
F800
FC00
FE00
EF00
E780
E3C0
E1E0
ENDCHAR
STARTCHAR 0199
ENCODING 409
SWIDTH 647 0
DWIDTH 11 0
BBX 10 13 1 0
BITMAP
3C00
7C00
7000
E000
E3C0
E700
EE00
FC00
FC00
EE00
E700
E380
E1C0
ENDCHAR
STARTCHAR 019A
ENCODING 410
SWIDTH 352 0
DWIDTH 6 0
BBX 6 13 0 0
BITMAP
38
38
38
38
38
38
FC
FC
38
38
38
38
38
ENDCHAR
STARTCHAR 019B
ENCODING 411
SWIDTH 588 0
DWIDTH 10 0
BBX 9 13 0 0
BITMAP
3B00
3E00
FC00
9C00
1C00
1E00
1E00
3E00
3F00
3F00
7380
7380
7380
ENDCHAR
STARTCHAR 019C
ENCODING 412
SWIDTH 1058 0
DWIDTH 18 0
BBX 15 12 1 0
BITMAP
E38E
E38E
E38E
E38E
E38E
E38E
E38E
E38E
E38E
F3CE
7FFE
3CFE
ENDCHAR
STARTCHAR 019D
ENCODING 413
SWIDTH 823 0
DWIDTH 14 0
BBX 14 15 -1 -3
BITMAP
1C1C
1E1C
1E1C
1F1C
1F9C
1D9C
1DDC
1CDC
1CFC
1C7C
1C7C
1C3C
3800
F800
E000
ENDCHAR
STARTCHAR 019E
ENCODING 414
SWIDTH 705 0
DWIDTH 12 0
BBX 10 13 1 -4
BITMAP
E700
EF80
F3C0
F1C0
E1C0
E1C0
E1C0
E1C0
E1C0
01C0
01C0
01C0
01C0
ENDCHAR
STARTCHAR 019F
ENCODING 415
SWIDTH 823 0
DWIDTH 14 0
BBX 13 12 1 0
BITMAP
1F80
3FE0
78F0
F070
E070
FFF8
FFF8
E070
F070
70F0
3FE0
1F80
ENDCHAR
STARTCHAR 01A0
ENCODING 416
SWIDTH 882 0
DWIDTH 15 0
BBX 14 13 1 0
BITMAP
0008
1FAC
3FF8
78F0
F070
E078
E078
E078
E078
F070
78F0
3FE0
1F80
ENDCHAR
STARTCHAR 01A1
ENCODING 417
SWIDTH 705 0
DWIDTH 12 0
BBX 11 10 1 0
BITMAP
0020
3F20
7FE0
F3C0
E1C0
E1C0
E1C0
F3C0
7F80
3F00
ENDCHAR
STARTCHAR 01A2
ENCODING 418
SWIDTH 1058 0
DWIDTH 18 0
BBX 16 12 1 0
BITMAP
1FFC
3FFE
78EF
F0E7
E0E7
E0E7
E0E7
E0E7
F0E7
78E7
3FE7
1F87
ENDCHAR
STARTCHAR 01A3
ENCODING 419
SWIDTH 941 0
DWIDTH 16 0
BBX 13 13 1 -4
BITMAP
3FF0
7FF8
E3B8
E3B8
E3B8
E3B8
E3B8
7FB8
3F38
0038
0038
0038
0038
ENDCHAR
STARTCHAR 01A4
ENCODING 420
SWIDTH 764 0
DWIDTH 13 0
BBX 14 12 -1 0
BITMAP
7FE0
FFF8
DE38
1E3C
1E3C
1E38
1FF8
1FE0
1E00
1E00
1E00
1E00
ENDCHAR
STARTCHAR 01A5
ENCODING 421
SWIDTH 705 0
DWIDTH 12 0
BBX 10 17 1 -4
BITMAP
3C00
7C00
F000
E000
E700
EFC0
F1C0
F1C0
E1C0
F1C0
F1C0
EFC0
E700
E000
E000
E000
E000
ENDCHAR
STARTCHAR 01A6
ENCODING 422
SWIDTH 764 0
DWIDTH 13 0
BBX 10 14 2 -2
BITMAP
E000
E000
FF00
FF80
E380
E380
E380
FF00
FE00
EF00
E380
E380
01C0
01C0
ENDCHAR
STARTCHAR 01A7
ENCODING 423
SWIDTH 705 0
DWIDTH 12 0
BBX 10 13 0 0
BITMAP
0E00
7F80
7FC0
41C0
01C0
0FC0
3F80
7F00
F000
F000
70C0
7FC0
3FC0
ENDCHAR
STARTCHAR 01A8
ENCODING 424
SWIDTH 588 0
DWIDTH 10 0
BBX 9 10 0 0
BITMAP
0800
7F00
7780
0380
1F80
7F00
F000
E080
FF80
7F80
ENDCHAR
STARTCHAR 01A9
ENCODING 425
SWIDTH 705 0
DWIDTH 12 0
BBX 8 12 2 0
BITMAP
FF
FF
E0
70
38
1E
1C
38
70
E0
FF
FF
ENDCHAR
STARTCHAR 01AA
ENCODING 426
SWIDTH 529 0
DWIDTH 9 0
BBX 11 17 -1 -4
BITMAP
7C00
7E00
C700
7F80
7F80
0700
0700
0700
0700
0700
0700
0700
0700
0700
0700
07E0
01E0
ENDCHAR
STARTCHAR 01AB
ENCODING 427
SWIDTH 470 0
DWIDTH 8 0
BBX 8 16 0 -4
BITMAP
38
38
38
FF
FF
38
38
38
38
38
3E
1E
0E
0E
1E
18
ENDCHAR
STARTCHAR 01AC
ENCODING 428
SWIDTH 705 0
DWIDTH 12 0
BBX 12 12 0 0
BITMAP
7FF0
FFF0
E700
E700
0700
0700
0700
0700
0700
0700
0700
0700
ENDCHAR
STARTCHAR 01AD
ENCODING 429
SWIDTH 470 0
DWIDTH 8 0
BBX 8 13 0 0
BITMAP
1E
3E
38
38
FF
FF
38
38
38
38
38
3E
1E
ENDCHAR
STARTCHAR 01AE
ENCODING 430
SWIDTH 705 0
DWIDTH 12 0
BBX 12 15 0 -3
BITMAP
FFF0
FFF0
0E00
0E00
0E00
0E00
0E00
0E00
0E00
0E00
0E00
0E00
0700
07C0
03C0
ENDCHAR
STARTCHAR 01AF
ENCODING 431
SWIDTH 823 0
DWIDTH 14 0
BBX 12 13 2 0
BITMAP
0010
E1D0
E1F0
E1C0
E1C0
E1C0
E1C0
E1C0
E1C0
E1C0
E3C0
7F80
3F00
ENDCHAR
STARTCHAR 01B0
ENCODING 432
SWIDTH 705 0
DWIDTH 12 0
BBX 11 10 1 0
BITMAP
0020
E1E0
E1E0
E1C0
E1C0
E1C0
E1C0
F3C0
7DC0
39C0
ENDCHAR
STARTCHAR 01B1
ENCODING 433
SWIDTH 823 0
DWIDTH 14 0
BBX 14 12 0 0
BITMAP
FCFC
FCFC
3C70
7838
7038
703C
703C
7038
7838
3C78
1FF0
0FC0
ENDCHAR
STARTCHAR 01B2
ENCODING 434
SWIDTH 823 0
DWIDTH 14 0
BBX 11 12 2 0
BITMAP
E000
E380
E1C0
E0C0
E0E0
E060
E060
E0E0
E0E0
F3C0
FF80
3F00
ENDCHAR
STARTCHAR 01B3
ENCODING 435
SWIDTH 823 0
DWIDTH 14 0
BBX 14 13 0 0
BITMAP
0030
F0F8
78F8
39FC
3FCC
1F80
0F80
0F00
0700
0700
0700
0700
0700
ENDCHAR
STARTCHAR 01B4
ENCODING 436
SWIDTH 764 0
DWIDTH 13 0
BBX 12 13 1 -3
BITMAP
C1E0
E3F0
E3B0
7330
7700
3700
3E00
1E00
1C00
1C00
1C00
7800
7000
ENDCHAR
STARTCHAR 01B5
ENCODING 437
SWIDTH 705 0
DWIDTH 12 0
BBX 11 12 1 0
BITMAP
FFC0
FFC0
03C0
0780
0F00
7F80
7F80
3800
7800
F000
FFE0
FFE0
ENDCHAR
STARTCHAR 01B6
ENCODING 438
SWIDTH 588 0
DWIDTH 10 0
BBX 8 9 1 0
BITMAP
FF
FF
0E
FF
FF
70
F0
FF
FF
ENDCHAR
STARTCHAR 01B7
ENCODING 439
SWIDTH 764 0
DWIDTH 13 0
BBX 11 13 1 -1
BITMAP
FFC0
FFC0
03C0
0780
0F00
0F80
0FE0
00E0
00E0
80E0
FFE0
FFC0
0E00
ENDCHAR
STARTCHAR 01B8
ENCODING 440
SWIDTH 764 0
DWIDTH 13 0
BBX 11 13 1 -1
BITMAP
7FE0
7FE0
7800
3C00
1E00
3E00
7E00
E000
E000
E020
FFE0
7FE0
0E00
ENDCHAR
STARTCHAR 01B9
ENCODING 441
SWIDTH 647 0
DWIDTH 11 0
BBX 9 13 1 -4
BITMAP
7F80
7F80
7800
3C00
1E00
1E00
7E00
E000
E000
E000
FF80
7F80
1E00
ENDCHAR
STARTCHAR 01BA
ENCODING 442
SWIDTH 588 0
DWIDTH 10 0
BBX 8 13 1 -4
BITMAP
FF
FF
0E
1C
3C
7F
07
0F
7E
E0
E1
7F
18
ENDCHAR
STARTCHAR 01BB
ENCODING 443
SWIDTH 705 0
DWIDTH 12 0
BBX 9 13 1 0
BITMAP
1C00
FF00
FF80
8380
0380
0380
7F80
7F80
1C00
3800
7000
FF80
FF80
ENDCHAR
STARTCHAR 01BC
ENCODING 444
SWIDTH 764 0
DWIDTH 13 0
BBX 11 13 1 -1
BITMAP
7F80
7F80
7000
7000
7000
7F80
7FE0
00E0
00E0
E0E0
FFE0
7FC0
0E00
ENDCHAR
STARTCHAR 01BD
ENCODING 445
SWIDTH 647 0
DWIDTH 11 0
BBX 9 13 1 -4
BITMAP
FE00
FE00
E000
E000
E000
FE00
FF00
0780
0380
0380
FF80
FF00
3800
ENDCHAR
STARTCHAR 01BE
ENCODING 446
SWIDTH 588 0
DWIDTH 10 0
BBX 8 12 1 0
BITMAP
70
FC
FC
70
7E
1E
07
07
07
0F
FE
FC
ENDCHAR
STARTCHAR 01BF
ENCODING 447
SWIDTH 705 0
DWIDTH 12 0
BBX 10 14 1 -4
BITMAP
0100
EFC0
FFC0
F1C0
E1C0
E1C0
E380
E700
EE00
FC00
F000
E000
E000
E000
ENDCHAR
STARTCHAR 01C0
ENCODING 448
SWIDTH 352 0
DWIDTH 6 0
BBX 3 16 2 -4
BITMAP
E0
E0
E0
E0
E0
E0
E0
E0
E0
E0
E0
E0
E0
E0
E0
E0
ENDCHAR
STARTCHAR 01C1
ENCODING 449
SWIDTH 647 0
DWIDTH 11 0
BBX 8 16 2 -4
BITMAP
EF
EF
EF
EF
EF
EF
EF
EF
EF
EF
EF
EF
EF
EF
EF
EF
ENDCHAR
STARTCHAR 01C2
ENCODING 450
SWIDTH 529 0
DWIDTH 9 0
BBX 9 16 0 -4
BITMAP
1C00
1C00
1C00
1C00
FF80
FF80
1C00
1C00
FF80
FF80
1C00
1C00
1C00
1C00
1C00
1C00
ENDCHAR
STARTCHAR 01C3
ENCODING 451
SWIDTH 352 0
DWIDTH 6 0
BBX 3 12 2 0
BITMAP
E0
E0
E0
E0
E0
E0
C0
C0
00
E0
E0
E0
ENDCHAR
STARTCHAR 01C4
ENCODING 452
SWIDTH 1529 0
DWIDTH 26 0
BBX 24 15 2 0
BITMAP
000198
0000F0
000000
FE07FE
FF87FE
E3C01E
E1E03C
E0E078
E0E078
E0E0F0
E0E1E0
E1E3C0
E3C780
FF87FF
FE07FF
ENDCHAR
STARTCHAR 01C5
ENCODING 453
SWIDTH 1411 0
DWIDTH 24 0
BBX 21 14 2 0
BITMAP
000330
0001E0
FE00C0
FF8000
E3C000
E1E7F8
E0E7F8
E0E078
E0E0F0
E0E1E0
E1E3C0
E3C780
FF87F8
FE07F8
ENDCHAR
STARTCHAR 01C6
ENCODING 454
SWIDTH 1294 0
DWIDTH 22 0
BBX 20 14 1 0
BITMAP
000660
01C3C0
01C180
01C000
01C000
39CFF0
7DCFF0
E3C0F0
E1C1E0
E1C3C0
E1C780
E3CF00
7DCFF0
39CFF0
ENDCHAR
STARTCHAR 01C7
ENCODING 455
SWIDTH 1000 0
DWIDTH 17 0
BBX 14 15 2 -3
BITMAP
E03C
E03C
E03C
E03C
E03C
E03C
E03C
E03C
E03C
E03C
FF3C
FF3C
0038
00F8
00E0
ENDCHAR
STARTCHAR 01C8
ENCODING 456
SWIDTH 1000 0
DWIDTH 17 0
BBX 13 17 2 -4
BITMAP
0038
E038
E038
E000
E038
E038
E038
E038
E038
E038
E038
FF38
FF38
0038
0038
00F8
00F0
ENDCHAR
STARTCHAR 01C9
ENCODING 457
SWIDTH 705 0
DWIDTH 12 0
BBX 9 17 1 -4
BITMAP
E380
E380
E380
E000
E380
E380
E380
E380
E380
E380
E380
E380
E380
0380
0380
0F80
0F00
ENDCHAR
STARTCHAR 01CA
ENCODING 458
SWIDTH 1235 0
DWIDTH 21 0
BBX 17 15 2 -3
BITMAP
E0E380
F0E380
F0E380
F8E380
FCE380
ECE380
EEE380
E6E380
E7E380
E3E380
E3E380
E1E380
000780
001F00
001E00
ENDCHAR
STARTCHAR 01CB
ENCODING 459
SWIDTH 1176 0
DWIDTH 20 0
BBX 17 17 2 -4
BITMAP
000380
E0E380
F0E380
F0E000
F8E380
FCE380
ECE380
EEE380
E6E380
E7E380
E3E380
E3E380
E1E380
000380
000700
000F00
000E00
ENDCHAR
STARTCHAR 01CC
ENCODING 460
SWIDTH 1058 0
DWIDTH 18 0
BBX 16 17 1 -4
BITMAP
0007
0007
0007
0000
E707
EF87
F3C7
F1C7
E1C7
E1C7
E1C7
E1C7
E1C7
0007
000E
001E
001C
ENDCHAR
STARTCHAR 01CD
ENCODING 461
SWIDTH 764 0
DWIDTH 13 0
BBX 13 15 0 0
BITMAP
0980
0700
0000
0F80
0F80
0F80
1DC0
1DC0
18E0
38E0
3FE0
7FF0
7070
7078
E038
ENDCHAR
STARTCHAR 01CE
ENCODING 462
SWIDTH 647 0
DWIDTH 11 0
BBX 9 14 1 0
BITMAP
3300
1600
1C00
0000
0000
7E00
7F80
0380
7F80
FF80
E380
E380
FF80
7B80
ENDCHAR
STARTCHAR 01CF
ENCODING 463
SWIDTH 352 0
DWIDTH 6 0
BBX 5 15 1 0
BITMAP
98
F0
00
70
70
70
70
70
70
70
70
70
70
70
70
ENDCHAR
STARTCHAR 01D0
ENCODING 464
SWIDTH 352 0
DWIDTH 6 0
BBX 6 14 0 0
BITMAP
CC
78
38
00
00
70
70
70
70
70
70
70
70
70
ENDCHAR
STARTCHAR 01D1
ENCODING 465
SWIDTH 823 0
DWIDTH 14 0
BBX 13 15 1 0
BITMAP
1980
0F00
0000
1F80
3FE0
78F0
F070
E070
E078
E078
E070
F070
78F0
3FE0
1F80
ENDCHAR
STARTCHAR 01D2
ENCODING 466
SWIDTH 705 0
DWIDTH 12 0
BBX 10 14 1 0
BITMAP
3300
1E00
0C00
0000
0000
3F00
7F80
E3C0
E1C0
E1C0
E1C0
E3C0
7F80
3F00
ENDCHAR
STARTCHAR 01D3
ENCODING 467
SWIDTH 823 0
DWIDTH 14 0
BBX 10 15 2 0
BITMAP
3200
1C00
0000
E1C0
E1C0
E1C0
E1C0
E1C0
E1C0
E1C0
E1C0
E1C0
E3C0
7F80
3F00
ENDCHAR
STARTCHAR 01D4
ENCODING 468
SWIDTH 705 0
DWIDTH 12 0
BBX 10 14 1 0
BITMAP
3300
1A00
0E00
0000
0000
E1C0
E1C0
E1C0
E1C0
E1C0
E1C0
F3C0
7DC0
39C0
ENDCHAR
STARTCHAR 01D5
ENCODING 469
SWIDTH 823 0
DWIDTH 14 0
BBX 10 18 2 0
BITMAP
3E00
3E00
3200
3200
0000
0000
E1C0
E1C0
E1C0
E1C0
E1C0
E1C0
E1C0
E1C0
E1C0
E3C0
7F80
3F00
ENDCHAR
STARTCHAR 01D6
ENCODING 470
SWIDTH 705 0
DWIDTH 12 0
BBX 10 16 1 0
BITMAP
3F00
3F00
0000
3300
3300
0000
0000
E1C0
E1C0
E1C0
E1C0
E1C0
E1C0
F3C0
7DC0
39C0
ENDCHAR
STARTCHAR 01D7
ENCODING 471
SWIDTH 823 0
DWIDTH 14 0
BBX 10 18 2 0
BITMAP
0600
0C00
3300
3300
0000
0000
E1C0
E1C0
E1C0
E1C0
E1C0
E1C0
E1C0
E1C0
E1C0
E3C0
7F80
3F00
ENDCHAR
STARTCHAR 01D8
ENCODING 472
SWIDTH 705 0
DWIDTH 12 0
BBX 10 15 1 0
BITMAP
0700
3700
3300
0000
0000
0000
E1C0
E1C0
E1C0
E1C0
E1C0
E1C0
F3C0
7DC0
39C0
ENDCHAR
STARTCHAR 01D9
ENCODING 473
SWIDTH 823 0
DWIDTH 14 0
BBX 10 18 2 0
BITMAP
3300
1E00
3300
3300
0000
0000
E1C0
E1C0
E1C0
E1C0
E1C0
E1C0
E1C0
E1C0
E1C0
E3C0
7F80
3F00
ENDCHAR
STARTCHAR 01DA
ENCODING 474
SWIDTH 705 0
DWIDTH 12 0
BBX 10 15 1 0
BITMAP
3300
3F00
3300
0000
0000
0000
E1C0
E1C0
E1C0
E1C0
E1C0
E1C0
F3C0
7DC0
39C0
ENDCHAR
STARTCHAR 01DB
ENCODING 475
SWIDTH 823 0
DWIDTH 14 0
BBX 10 18 2 0
BITMAP
1800
0C00
3300
3300
0000
0000
E1C0
E1C0
E1C0
E1C0
E1C0
E1C0
E1C0
E1C0
E1C0
E3C0
7F80
3F00
ENDCHAR
STARTCHAR 01DC
ENCODING 476
SWIDTH 705 0
DWIDTH 12 0
BBX 10 15 1 0
BITMAP
3800
3B00
3300
0000
0000
0000
E1C0
E1C0
E1C0
E1C0
E1C0
E1C0
F3C0
7DC0
39C0
ENDCHAR
STARTCHAR 01DD
ENCODING 477
SWIDTH 705 0
DWIDTH 12 0
BBX 10 9 1 0
BITMAP
7E00
FF80
8380
01C0
FFC0
FFC0
E380
7F80
3E00
ENDCHAR
STARTCHAR 01DE
ENCODING 478
SWIDTH 764 0
DWIDTH 13 0
BBX 13 18 0 0
BITMAP
0F80
0F80
0D80
0D80
0000
0000
0F80
0F80
0F80
1DC0
1DC0
18E0
38E0
3FE0
7FF0
7070
7078
E038
ENDCHAR
STARTCHAR 01DF
ENCODING 479
SWIDTH 647 0
DWIDTH 11 0
BBX 9 16 1 0
BITMAP
3E00
3E00
0000
3600
3600
0000
0000
7E00
7F80
0380
7F80
FF80
E380
E380
FF80
7B80
ENDCHAR
STARTCHAR 01E0
ENCODING 480
SWIDTH 764 0
DWIDTH 13 0
BBX 13 18 0 0
BITMAP
0F80
0F80
0300
0300
0000
0000
0F80
0F80
0F80
1DC0
1DC0
18E0
38E0
3FE0
7FF0
7070
7078
E038
ENDCHAR
STARTCHAR 01E1
ENCODING 481
SWIDTH 647 0
DWIDTH 11 0
BBX 9 16 1 0
BITMAP
3E00
3E00
1C00
1C00
1C00
0000
0000
7E00
7F80
0380
7F80
FF80
E380
E380
FF80
7B80
ENDCHAR
STARTCHAR 01E2
ENCODING 482
SWIDTH 1058 0
DWIDTH 18 0
BBX 17 16 0 0
BITMAP
00FC00
00FC00
000000
000000
07FF80
07FF80
0EF000
0EF000
1CF000
1CFF80
38FF80
3FF000
3FF000
70F000
70FF80
E0FF80
ENDCHAR
STARTCHAR 01E3
ENCODING 483
SWIDTH 1058 0
DWIDTH 18 0
BBX 16 13 1 0
BITMAP
07C0
07C0
0000
0000
7E7C
7FFE
0387
7FFF
FFFF
E380
E7C3
FFFF
787C
ENDCHAR
STARTCHAR 01E4
ENCODING 484
SWIDTH 823 0
DWIDTH 14 0
BBX 12 13 1 0
BITMAP
0700
3FE0
7FE0
7000
F000
E000
E1F0
E1F0
E070
F1F0
7870
3FF0
1FE0
ENDCHAR
STARTCHAR 01E5
ENCODING 485
SWIDTH 705 0
DWIDTH 12 0
BBX 10 13 1 -3
BITMAP
7DC0
FFC0
E3C0
E1C0
E1C0
E1C0
F3C0
7FC0
3DC0
1FC0
4780
7F00
3C00
ENDCHAR
STARTCHAR 01E6
ENCODING 486
SWIDTH 823 0
DWIDTH 14 0
BBX 12 15 1 0
BITMAP
0C80
0700
0000
0FC0
3FE0
7820
F000
E000
E1F0
E1F0
E070
F070
7870
3FF0
0FC0
ENDCHAR
STARTCHAR 01E7
ENCODING 487
SWIDTH 705 0
DWIDTH 12 0
BBX 10 18 1 -4
BITMAP
3300
1E00
0C00
0000
0000
39C0
7DC0
E3C0
E1C0
E1C0
E1C0
E3C0
7DC0
39C0
03C0
4380
7F00
3E00
ENDCHAR
STARTCHAR 01E8
ENCODING 488
SWIDTH 764 0
DWIDTH 13 0
BBX 11 15 2 0
BITMAP
3300
1E00
0000
E1E0
E3C0
E700
EE00
FC00
F800
FC00
FE00
EF00
E780
E3C0
E1E0
ENDCHAR
STARTCHAR 01E9
ENCODING 489
SWIDTH 647 0
DWIDTH 11 0
BBX 11 15 0 0
BITMAP
CC00
7800
7000
7000
7000
7000
71E0
73C0
7780
7E00
7E00
7700
7380
71C0
70E0
ENDCHAR
STARTCHAR 01EA
ENCODING 490
SWIDTH 823 0
DWIDTH 14 0
BBX 13 15 1 -3
BITMAP
1F80
3FE0
78F0
F070
E070
E078
E078
E070
F070
78F0
3FE0
1F80
0400
0400
0700
ENDCHAR
STARTCHAR 01EB
ENCODING 491
SWIDTH 705 0
DWIDTH 12 0
BBX 10 12 1 -3
BITMAP
3F00
7F80
E3C0
E1C0
E1C0
E1C0
E3C0
7F80
3F00
0800
1800
0E00
ENDCHAR
STARTCHAR 01EC
ENCODING 492
SWIDTH 823 0
DWIDTH 14 0
BBX 13 19 1 -3
BITMAP
0F80
0F80
0000
0000
1F80
3FE0
78F0
F070
E070
E078
E078
E070
F070
78F0
3FE0
1F80
0400
0400
0700
ENDCHAR
STARTCHAR 01ED
ENCODING 493
SWIDTH 705 0
DWIDTH 12 0
BBX 10 16 1 -3
BITMAP
3E00
3E00
0000
0000
3F00
7F80
E3C0
E1C0
E1C0
E1C0
E3C0
7F80
3F00
0800
1800
0E00
ENDCHAR
STARTCHAR 01EE
ENCODING 494
SWIDTH 764 0
DWIDTH 13 0
BBX 11 16 1 -1
BITMAP
3300
1E00
0000
FFC0
FFC0
03C0
0780
0F00
0F80
0FE0
00E0
00E0
80E0
FFE0
FFC0
0E00
ENDCHAR
STARTCHAR 01EF
ENCODING 495
SWIDTH 588 0
DWIDTH 10 0
BBX 9 18 1 -4
BITMAP
6600
3C00
1800
0000
0000
FF00
FF00
0E00
1C00
3800
3C00
3F00
0780
0380
0380
FF80
FF00
3C00
ENDCHAR
STARTCHAR 01F0
ENCODING 496
SWIDTH 352 0
DWIDTH 6 0
BBX 7 18 -1 -4
BITMAP
66
3C
18
00
00
38
38
38
38
38
38
38
38
38
38
38
F8
F0
ENDCHAR
STARTCHAR 01F1
ENCODING 497
SWIDTH 1529 0
DWIDTH 26 0
BBX 24 12 2 0
BITMAP
FE07FE
FF87FE
E3C01E
E1E03C
E0E078
E0E078
E0E0F0
E0E1E0
E1E3C0
E3C780
FF87FF
FE07FF
ENDCHAR
STARTCHAR 01F2
ENCODING 498
SWIDTH 1411 0
DWIDTH 24 0
BBX 21 12 2 0
BITMAP
FE0000
FF8000
E3C000
E1E7F8
E0E7F8
E0E078
E0E0F0
E0E1E0
E1E3C0
E3C780
FF87F8
FE07F8
ENDCHAR
STARTCHAR 01F3
ENCODING 499
SWIDTH 1294 0
DWIDTH 22 0
BBX 20 13 1 0
BITMAP
01C000
01C000
01C000
01C000
39CFF0
7DCFF0
E3C0F0
E1C1E0
E1C3C0
E1C780
E3CF00
7DCFF0
39CFF0
ENDCHAR
STARTCHAR 01F4
ENCODING 500
SWIDTH 823 0
DWIDTH 14 0
BBX 12 15 1 0
BITMAP
0300
0600
0000
0FC0
3FE0
7820
F000
E000
E1F0
E1F0
E070
F070
7870
3FF0
0FC0
ENDCHAR
STARTCHAR 01F5
ENCODING 501
SWIDTH 705 0
DWIDTH 12 0
BBX 10 18 1 -4
BITMAP
0600
0C00
0800
0000
0000
39C0
7DC0
E3C0
E1C0
E1C0
E1C0
E3C0
7DC0
39C0
03C0
4380
7F00
3E00
ENDCHAR
STARTCHAR 01F6
ENCODING 502
SWIDTH 1294 0
DWIDTH 22 0
BBX 18 12 2 0
BITMAP
E1E000
E1E000
E1E000
E1E1C0
FFE1C0
FFE1C0
FFE1C0
E1E1C0
E0E1C0
E0E3C0
E0FF80
E03F00
ENDCHAR
STARTCHAR 01F7
ENCODING 503
SWIDTH 764 0
DWIDTH 13 0
BBX 11 17 2 -4
BITMAP
0700
FFC0
FFC0
F1E0
E1C0
E1C0
E3C0
E780
EF00
FE00
F800
F000
E000
E000
E000
E000
E000
ENDCHAR
STARTCHAR 01F8
ENCODING 504
SWIDTH 823 0
DWIDTH 14 0
BBX 11 15 2 0
BITMAP
0C00
0600
0000
E0E0
F0E0
F0E0
F8E0
FCE0
ECE0
EEE0
E6E0
E7E0
E3E0
E3E0
E1E0
ENDCHAR
STARTCHAR 01F9
ENCODING 505
SWIDTH 705 0
DWIDTH 12 0
BBX 10 14 1 0
BITMAP
1800
0C00
0600
0000
0000
E700
EF80
F3C0
F1C0
E1C0
E1C0
E1C0
E1C0
E1C0
ENDCHAR
STARTCHAR 01FA
ENCODING 506
SWIDTH 764 0
DWIDTH 13 0
BBX 13 16 0 0
BITMAP
0700
0DB0
0CE0
0D80
0F80
0F80
0F80
1DC0
1DC0
18E0
38E0
3FE0
7FF0
7070
7078
E038
ENDCHAR
STARTCHAR 01FB
ENCODING 507
SWIDTH 647 0
DWIDTH 11 0
BBX 10 15 1 0
BITMAP
1CC0
1380
3200
1200
1C00
0000
7E00
7F80
0380
7F80
FF80
E380
E380
FF80
7B80
ENDCHAR
STARTCHAR 01FC
ENCODING 508
SWIDTH 1058 0
DWIDTH 18 0
BBX 17 15 0 0
BITMAP
003800
002000
000000
07FF80
07FF80
0EF000
0EF000
1CF000
1CFF80
38FF80
3FF000
3FF000
70F000
70FF80
E0FF80
ENDCHAR
STARTCHAR 01FD
ENCODING 509
SWIDTH 1058 0
DWIDTH 18 0
BBX 16 14 1 0
BITMAP
0180
0300
0200
0000
0000
7E7C
7FFE
0387
7FFF
FFFF
E380
E7C3
FFFF
787C
ENDCHAR
STARTCHAR 01FE
ENCODING 510
SWIDTH 823 0
DWIDTH 14 0
BBX 13 15 1 0
BITMAP
0300
0600
0000
1F98
3FF0
78F0
F0F0
E1F0
E378
E678
EC70
F870
78F0
7FE0
9F80
ENDCHAR
STARTCHAR 01FF
ENCODING 511
SWIDTH 705 0
DWIDTH 12 0
BBX 10 15 1 -1
BITMAP
0E00
0C00
1000
0000
0000
3EC0
7F80
E3C0
E7C0
EDC0
F9C0
F3C0
7F80
FF00
8000
ENDCHAR
STARTCHAR 0200
ENCODING 512
SWIDTH 764 0
DWIDTH 13 0
BBX 13 16 0 0
BITMAP
1B00
0D80
04C0
0000
0F80
0F80
0F80
1DC0
1DC0
18E0
38E0
3FE0
7FF0
7070
7078
E038
ENDCHAR
STARTCHAR 0201
ENCODING 513
SWIDTH 647 0
DWIDTH 11 0
BBX 9 14 1 0
BITMAP
6C00
2400
3600
1A00
0000
7E00
7F80
0380
7F80
FF80
E380
E380
FF80
7B80
ENDCHAR
STARTCHAR 0202
ENCODING 514
SWIDTH 764 0
DWIDTH 13 0
BBX 13 16 0 0
BITMAP
0700
0F80
0880
0000
0F80
0F80
0F80
1DC0
1DC0
18E0
38E0
3FE0
7FF0
7070
7078
E038
ENDCHAR
STARTCHAR 0203
ENCODING 515
SWIDTH 647 0
DWIDTH 11 0
BBX 9 13 1 0
BITMAP
1E00
3300
0000
0000
7E00
7F80
0380
7F80
FF80
E380
E380
FF80
7B80
ENDCHAR
STARTCHAR 0204
ENCODING 516
SWIDTH 705 0
DWIDTH 12 0
BBX 8 16 2 0
BITMAP
EC
66
12
00
FF
FF
E0
E0
E0
FF
FF
E0
E0
E0
FF
FF
ENDCHAR
STARTCHAR 0205
ENCODING 517
SWIDTH 705 0
DWIDTH 12 0
BBX 10 14 1 0
BITMAP
6C00
3600
1200
1B00
0000
3E00
7F80
E380
FFC0
FFC0
E000
F080
7F80
3F00
ENDCHAR
STARTCHAR 0206
ENCODING 518
SWIDTH 705 0
DWIDTH 12 0
BBX 8 16 2 0
BITMAP
18
3E
62
00
FF
FF
E0
E0
E0
FF
FF
E0
E0
E0
FF
FF
ENDCHAR
STARTCHAR 0207
ENCODING 519
SWIDTH 705 0
DWIDTH 12 0
BBX 10 13 1 0
BITMAP
1E00
3300
0000
0000
3E00
7F80
E380
FFC0
FFC0
E000
F080
7F80
3F00
ENDCHAR
STARTCHAR 0208
ENCODING 520
SWIDTH 352 0
DWIDTH 6 0
BBX 7 16 -1 0
BITMAP
EC
36
12
00
1C
1C
1C
1C
1C
1C
1C
1C
1C
1C
1C
1C
ENDCHAR
STARTCHAR 0209
ENCODING 521
SWIDTH 352 0
DWIDTH 6 0
BBX 6 14 0 0
BITMAP
D8
48
6C
34
00
70
70
70
70
70
70
70
70
70
ENDCHAR
STARTCHAR 020A
ENCODING 522
SWIDTH 352 0
DWIDTH 6 0
BBX 6 16 0 0
BITMAP
30
7C
C4
00
38
38
38
38
38
38
38
38
38
38
38
38
ENDCHAR
STARTCHAR 020B
ENCODING 523
SWIDTH 352 0
DWIDTH 6 0
BBX 6 13 0 0
BITMAP
78
CC
00
00
70
70
70
70
70
70
70
70
70
ENDCHAR
STARTCHAR 020C
ENCODING 524
SWIDTH 823 0
DWIDTH 14 0
BBX 13 16 1 0
BITMAP
3F00
1900
0C80
0000
1F80
3FE0
78F0
F070
E070
E078
E078
E070
F070
78F0
3FE0
1F80
ENDCHAR
STARTCHAR 020D
ENCODING 525
SWIDTH 705 0
DWIDTH 12 0
BBX 10 14 1 0
BITMAP
6C00
2400
3600
1A00
0000
3F00
7F80
E3C0
E1C0
E1C0
E1C0
E3C0
7F80
3F00
ENDCHAR
STARTCHAR 020E
ENCODING 526
SWIDTH 823 0
DWIDTH 14 0
BBX 13 16 1 0
BITMAP
0600
0F80
1880
0000
1F80
3FE0
78F0
F070
E070
E078
E078
E070
F070
78F0
3FE0
1F80
ENDCHAR
STARTCHAR 020F
ENCODING 527
SWIDTH 705 0
DWIDTH 12 0
BBX 10 13 1 0
BITMAP
1E00
3300
0000
0000
3F00
7F80
E3C0
E1C0
E1C0
E1C0
E3C0
7F80
3F00
ENDCHAR
STARTCHAR 0210
ENCODING 528
SWIDTH 764 0
DWIDTH 13 0
BBX 10 16 2 0
BITMAP
D800
6C00
3600
0000
FE00
FF80
E380
E380
E380
E380
FF00
FF00
E780
E380
E3C0
E1C0
ENDCHAR
STARTCHAR 0211
ENCODING 529
SWIDTH 470 0
DWIDTH 8 0
BBX 7 14 1 0
BITMAP
D8
68
6C
36
00
E6
EE
F0
F0
E0
E0
E0
E0
E0
ENDCHAR
STARTCHAR 0212
ENCODING 530
SWIDTH 764 0
DWIDTH 13 0
BBX 10 16 2 0
BITMAP
1800
7C00
4600
0000
FE00
FF80
E380
E380
E380
E380
FF00
FF00
E780
E380
E3C0
E1C0
ENDCHAR
STARTCHAR 0213
ENCODING 531
SWIDTH 470 0
DWIDTH 8 0
BBX 7 13 1 0
BITMAP
3C
66
00
00
E6
EE
F0
F0
E0
E0
E0
E0
E0
ENDCHAR
STARTCHAR 0214
ENCODING 532
SWIDTH 823 0
DWIDTH 14 0
BBX 10 16 2 0
BITMAP
7E00
3200
1900
0000
E1C0
E1C0
E1C0
E1C0
E1C0
E1C0
E1C0
E1C0
E1C0
E3C0
7F80
3F00
ENDCHAR
STARTCHAR 0215
ENCODING 533
SWIDTH 705 0
DWIDTH 12 0
BBX 10 14 1 0
BITMAP
6C00
3600
1200
1B00
0000
E1C0
E1C0
E1C0
E1C0
E1C0
E1C0
F3C0
7DC0
39C0
ENDCHAR
STARTCHAR 0216
ENCODING 534
SWIDTH 823 0
DWIDTH 14 0
BBX 10 16 2 0
BITMAP
0C00
3E00
2300
0000
E1C0
E1C0
E1C0
E1C0
E1C0
E1C0
E1C0
E1C0
E1C0
E3C0
7F80
3F00
ENDCHAR
STARTCHAR 0217
ENCODING 535
SWIDTH 705 0
DWIDTH 12 0
BBX 10 13 1 0
BITMAP
1E00
3300
0000
0000
E1C0
E1C0
E1C0
E1C0
E1C0
E1C0
F3C0
7DC0
39C0
ENDCHAR
STARTCHAR 0218
ENCODING 536
SWIDTH 705 0
DWIDTH 12 0
BBX 10 16 1 -4
BITMAP
3F80
7F80
E080
E000
F000
7F00
3FC0
07C0
01C0
C1C0
FF80
7F00
0000
0000
0C00
1800
ENDCHAR
STARTCHAR 0219
ENCODING 537
SWIDTH 588 0
DWIDTH 10 0
BBX 8 13 1 -4
BITMAP
7E
FF
E1
E0
7E
07
87
FF
7E
00
00
18
30
ENDCHAR
STARTCHAR 021A
ENCODING 538
SWIDTH 705 0
DWIDTH 12 0
BBX 12 16 0 -4
BITMAP
FFF0
FFF0
0E00
0E00
0E00
0E00
0E00
0E00
0E00
0E00
0E00
0E00
0000
0000
0E00
0C00
ENDCHAR
STARTCHAR 021B
ENCODING 539
SWIDTH 470 0
DWIDTH 8 0
BBX 8 16 0 -4
BITMAP
38
38
38
FF
FF
38
38
38
38
38
3E
1E
00
00
18
30
ENDCHAR
STARTCHAR 021C
ENCODING 540
SWIDTH 705 0
DWIDTH 12 0
BBX 9 16 1 -4
BITMAP
1C00
7F00
7F80
0380
0380
0380
0F00
3E00
3F80
0380
0380
0380
0780
3F00
FC00
F000
ENDCHAR
STARTCHAR 021D
ENCODING 541
SWIDTH 588 0
DWIDTH 10 0
BBX 8 12 1 -3
BITMAP
FE
CF
07
07
1E
7E
6F
07
07
1E
7C
F0
ENDCHAR
STARTCHAR 021E
ENCODING 542
SWIDTH 823 0
DWIDTH 14 0
BBX 11 15 2 0
BITMAP
3300
1E00
0000
E1E0
E1E0
E1E0
E1E0
E1E0
FFE0
FFE0
E1E0
E1E0
E1E0
E1E0
E1E0
ENDCHAR
STARTCHAR 021F
ENCODING 543
SWIDTH 705 0
DWIDTH 12 0
BBX 11 15 0 0
BITMAP
CC00
7800
7000
7000
7000
7000
7380
77C0
79E0
78E0
70E0
70E0
70E0
70E0
70E0
ENDCHAR
STARTCHAR 0220
ENCODING 544
SWIDTH 823 0
DWIDTH 14 0
BBX 11 15 1 -3
BITMAP
F7C0
FFE0
F8E0
F0E0
F0E0
E0E0
E0E0
E0E0
E0E0
E0E0
E0E0
E0E0
00E0
00E0
00E0
ENDCHAR
STARTCHAR 0221
ENCODING 545
SWIDTH 882 0
DWIDTH 15 0
BBX 13 14 1 -1
BITMAP
01C0
01C0
01C0
11C0
7DC0
FFC0
E3C0
E1C0
E1F8
E1F8
E3E8
7FF8
7EF0
0180
ENDCHAR
STARTCHAR 0222
ENCODING 546
SWIDTH 823 0
DWIDTH 14 0
BBX 12 13 1 0
BITMAP
0300
03C0
78E0
F0E0
E0E0
7FE0
1F80
79E0
E0F0
E070
F0F0
7FE0
3FC0
ENDCHAR
STARTCHAR 0223
ENCODING 547
SWIDTH 647 0
DWIDTH 11 0
BBX 9 11 1 0
BITMAP
C180
E380
E380
7F80
3E00
F780
E380
E380
E380
FF80
7F00
ENDCHAR
STARTCHAR 0224
ENCODING 548
SWIDTH 705 0
DWIDTH 12 0
BBX 11 16 1 -4
BITMAP
FFC0
FFC0
03C0
0780
0F00
0E00
1C00
3800
7800
F000
FFE0
FFE0
00E0
01C0
07C0
0700
ENDCHAR
STARTCHAR 0225
ENCODING 549
SWIDTH 588 0
DWIDTH 10 0
BBX 8 13 1 -4
BITMAP
FF
FF
0E
1C
38
78
F0
FF
FF
07
07
3E
3C
ENDCHAR
STARTCHAR 0226
ENCODING 550
SWIDTH 764 0
DWIDTH 13 0
BBX 13 16 0 0
BITMAP
0700
0700
0000
0000
0F80
0F80
0F80
1DC0
1DC0
18E0
38E0
3FE0
7FF0
7070
7078
E038
ENDCHAR
STARTCHAR 0227
ENCODING 551
SWIDTH 647 0
DWIDTH 11 0
BBX 9 14 1 0
BITMAP
1C00
1C00
1C00
0000
0000
7E00
7F80
0380
7F80
FF80
E380
E380
FF80
7B80
ENDCHAR
STARTCHAR 0228
ENCODING 552
SWIDTH 705 0
DWIDTH 12 0
BBX 8 15 2 -3
BITMAP
FF
FF
E0
E0
E0
FF
FF
E0
E0
E0
FF
FF
18
08
78
ENDCHAR
STARTCHAR 0229
ENCODING 553
SWIDTH 705 0
DWIDTH 12 0
BBX 10 12 1 -3
BITMAP
3E00
7F80
E380
FFC0
FFC0
E000
F080
7F80
3F00
0C00
0400
3C00
ENDCHAR
STARTCHAR 022A
ENCODING 554
SWIDTH 823 0
DWIDTH 14 0
BBX 13 18 1 0
BITMAP
1F80
1F80
1980
1980
0000
0000
1F80
3FE0
78F0
F070
E070
E078
E078
E070
F070
78F0
3FE0
1F80
ENDCHAR
STARTCHAR 022B
ENCODING 555
SWIDTH 705 0
DWIDTH 12 0
BBX 10 16 1 0
BITMAP
3F00
3F00
0000
3600
3600
0000
0000
3F00
7F80
E3C0
E1C0
E1C0
E1C0
E3C0
7F80
3F00
ENDCHAR
STARTCHAR 022C
ENCODING 556
SWIDTH 823 0
DWIDTH 14 0
BBX 13 18 1 0
BITMAP
0F80
0F80
0C80
1F80
1B00
0000
1F80
3FE0
78F0
F070
E070
E078
E078
E070
F070
78F0
3FE0
1F80
ENDCHAR
STARTCHAR 022D
ENCODING 557
SWIDTH 705 0
DWIDTH 12 0
BBX 10 16 1 0
BITMAP
3E00
3E00
1900
3F00
2600
0000
0000
3F00
7F80
E3C0
E1C0
E1C0
E1C0
E3C0
7F80
3F00
ENDCHAR
STARTCHAR 022E
ENCODING 558
SWIDTH 823 0
DWIDTH 14 0
BBX 13 16 1 0
BITMAP
0600
0600
0000
0000
1F80
3FE0
78F0
F070
E070
E078
E078
E070
F070
78F0
3FE0
1F80
ENDCHAR
STARTCHAR 022F
ENCODING 559
SWIDTH 705 0
DWIDTH 12 0
BBX 10 14 1 0
BITMAP
1C00
1C00
1C00
0000
0000
3F00
7F80
E3C0
E1C0
E1C0
E1C0
E3C0
7F80
3F00
ENDCHAR
STARTCHAR 0230
ENCODING 560
SWIDTH 823 0
DWIDTH 14 0
BBX 13 18 1 0
BITMAP
0F80
0F80
0700
0700
0000
0000
1F80
3FE0
78F0
F070
E070
E078
E078
E070
F070
78F0
3FE0
1F80
ENDCHAR
STARTCHAR 0231
ENCODING 561
SWIDTH 705 0
DWIDTH 12 0
BBX 10 16 1 0
BITMAP
3E00
3E00
1C00
1C00
1C00
0000
0000
3F00
7F80
E3C0
E1C0
E1C0
E1C0
E3C0
7F80
3F00
ENDCHAR
STARTCHAR 0232
ENCODING 562
SWIDTH 705 0
DWIDTH 12 0
BBX 12 16 0 0
BITMAP
0F80
0F80
0000
0000
F070
70E0
39E0
3DC0
1F80
0F80
0F00
0700
0700
0700
0700
0700
ENDCHAR
STARTCHAR 0233
ENCODING 563
SWIDTH 647 0
DWIDTH 11 0
BBX 11 17 0 -4
BITMAP
1F00
1F00
0000
0000
E0E0
71C0
71C0
3980
3B80
1B80
1F00
1F00
0E00
0E00
0E00
3C00
3800
ENDCHAR
STARTCHAR 0234
ENCODING 564
SWIDTH 470 0
DWIDTH 8 0
BBX 7 14 1 -1
BITMAP
E0
E0
E0
E0
E0
E0
E0
E0
EC
FE
76
7C
7C
40
ENDCHAR
STARTCHAR 0235
ENCODING 565
SWIDTH 882 0
DWIDTH 15 0
BBX 13 11 1 -1
BITMAP
0200
EF80
FFC0
F1C0
E1C0
E1F8
E1F8
E1E8
E1F8
E0F0
0180
ENDCHAR
STARTCHAR 0236
ENCODING 566
SWIDTH 529 0
DWIDTH 9 0
BBX 8 13 0 -1
BITMAP
38
38
38
FF
FF
38
38
3E
3F
39
3F
1E
30
ENDCHAR
STARTCHAR 0237
ENCODING 567
SWIDTH 352 0
DWIDTH 6 0
BBX 5 13 -1 -4
BITMAP
38
38
38
38
38
38
38
38
38
38
38
F8
F0
ENDCHAR
STARTCHAR 0238
ENCODING 568
SWIDTH 1117 0
DWIDTH 19 0
BBX 17 13 1 0
BITMAP
01C000
01C000
01C000
11C800
7DFE00
FFFF00
E3C700
E1C380
E1C380
E1C380
E3C700
7FFF00
7DDE00
ENDCHAR
STARTCHAR 0239
ENCODING 569
SWIDTH 1117 0
DWIDTH 19 0
BBX 17 14 1 -4
BITMAP
000800
7DFE00
FFFF00
E3C700
E1C380
E1C380
E1C380
E3C700
7FFF00
7DDE00
01C000
01C000
01C000
01C000
ENDCHAR
STARTCHAR 023A
ENCODING 570
SWIDTH 764 0
DWIDTH 13 0
BBX 13 13 0 -1
BITMAP
0008
0F98
0FB0
0FE0
1DC0
1DC0
3FE0
3EE0
3FE0
7FF0
7FF0
7078
E038
ENDCHAR
STARTCHAR 023B
ENCODING 571
SWIDTH 705 0
DWIDTH 12 0
BBX 13 13 0 -1
BITMAP
0388
1FF8
3FF0
3840
7880
7100
7200
7400
7800
7800
3C20
5FE0
8FE0
ENDCHAR
STARTCHAR 023C
ENCODING 572
SWIDTH 588 0
DWIDTH 10 0
BBX 10 11 0 -1
BITMAP
0040
3F80
3F80
7300
7600
7C00
7800
7800
7F80
DF80
8000
ENDCHAR
STARTCHAR 023D
ENCODING 573
SWIDTH 647 0
DWIDTH 11 0
BBX 10 12 0 0
BITMAP
3800
3800
3800
3800
3800
FC00
FC00
3800
3800
3800
3FC0
3FC0
ENDCHAR
STARTCHAR 023E
ENCODING 574
SWIDTH 705 0
DWIDTH 12 0
BBX 13 13 -1 -1
BITMAP
0008
7FF8
7FF8
0760
07C0
0780
0700
0700
0F00
1F00
3700
6700
C700
ENDCHAR
STARTCHAR 023F
ENCODING 575
SWIDTH 588 0
DWIDTH 10 0
BBX 9 13 1 -3
BITMAP
7F00
E700
E000
FC00
7F00
0700
0700
FF00
FE00
7800
1C00
0F80
0780
ENDCHAR
STARTCHAR 0240
ENCODING 576
SWIDTH 588 0
DWIDTH 10 0
BBX 9 13 1 -4
BITMAP
FF00
FF00
0E00
1C00
3800
7000
F000
E000
E000
7800
1C00
0F80
0780
ENDCHAR
STARTCHAR 0241
ENCODING 577
SWIDTH 764 0
DWIDTH 13 0
BBX 12 12 1 0
BITMAP
FFC0
FFE0
C0E0
00F0
00F0
1FE0
1FE0
1F80
1C00
1C00
1C00
1C00
ENDCHAR
STARTCHAR 0242
ENCODING 578
SWIDTH 588 0
DWIDTH 10 0
BBX 9 10 1 0
BITMAP
1000
7E00
FF00
C780
0780
0780
3F00
3F00
3800
3800
ENDCHAR
STARTCHAR 0243
ENCODING 579
SWIDTH 764 0
DWIDTH 13 0
BBX 12 12 0 0
BITMAP
3FC0
3FE0
38E0
38E0
38E0
3FC0
3FE0
FEF0
FE70
38F0
3FE0
3FC0
ENDCHAR
STARTCHAR 0244
ENCODING 580
SWIDTH 823 0
DWIDTH 14 0
BBX 13 12 0 0
BITMAP
3870
3870
3870
3870
FFF8
FFF8
3870
3870
3870
38F0
1FE0
0FC0
ENDCHAR
STARTCHAR 0245
ENCODING 581
SWIDTH 764 0
DWIDTH 13 0
BBX 13 12 0 0
BITMAP
0F80
0F80
0F80
1DC0
1DC0
1CE0
38E0
38E0
7870
7070
7078
E038
ENDCHAR
STARTCHAR 0246
ENCODING 582
SWIDTH 705 0
DWIDTH 12 0
BBX 8 16 2 -2
BITMAP
03
03
FF
FF
E6
E4
FF
FF
FF
E8
F8
F8
FF
FF
30
20
ENDCHAR
STARTCHAR 0247
ENCODING 583
SWIDTH 705 0
DWIDTH 12 0
BBX 10 13 1 -2
BITMAP
0100
0B00
7F00
7780
E780
FFC0
FFC0
F800
F000
7F80
3F80
6000
4000
ENDCHAR
STARTCHAR 0248
ENCODING 584
SWIDTH 352 0
DWIDTH 6 0
BBX 7 15 -1 -3
BITMAP
1C
1C
1C
1C
1C
7E
7E
1C
1C
1C
1C
1C
3C
F8
F0
ENDCHAR
STARTCHAR 0249
ENCODING 585
SWIDTH 352 0
DWIDTH 6 0
BBX 7 17 -1 -4
BITMAP
38
38
38
00
38
38
38
38
7E
7E
38
38
38
38
38
F8
F0
ENDCHAR
STARTCHAR 024A
ENCODING 586
SWIDTH 882 0
DWIDTH 15 0
BBX 15 16 1 -3
BITMAP
0C00
3F70
7FF0
F0F0
F070
E070
E070
E070
E070
F070
78F0
7FF0
3F70
0078
003E
001E
ENDCHAR
STARTCHAR 024B
ENCODING 587
SWIDTH 764 0
DWIDTH 13 0
BBX 13 14 1 -4
BITMAP
1000
7DC0
FFC0
E3C0
E1C0
E1C0
E1C0
E3C0
7FC0
7DC0
01C0
01C0
01F8
0078
ENDCHAR
STARTCHAR 024C
ENCODING 588
SWIDTH 764 0
DWIDTH 13 0
BBX 12 12 0 0
BITMAP
3F80
3FE0
38E0
38E0
38E0
38E0
FFC0
FFC0
39E0
38E0
38F0
3870
ENDCHAR
STARTCHAR 024D
ENCODING 589
SWIDTH 470 0
DWIDTH 8 0
BBX 8 9 0 0
BITMAP
73
77
78
78
FC
FC
70
70
70
ENDCHAR
STARTCHAR 024E
ENCODING 590
SWIDTH 705 0
DWIDTH 12 0
BBX 12 12 0 0
BITMAP
F0F0
FFF0
FFF0
3FC0
1F80
0F80
0F00
0700
0700
0700
0700
0700
ENDCHAR
STARTCHAR 024F
ENCODING 591
SWIDTH 647 0
DWIDTH 11 0
BBX 11 13 0 -4
BITMAP
60C0
71C0
71C0
FFE0
FFE0
1B80
1F00
0F00
0E00
0E00
0E00
3C00
3800
ENDCHAR
STARTCHAR 0250
ENCODING 592
SWIDTH 647 0
DWIDTH 11 0
BBX 10 9 1 0
BITMAP
E700
EF80
F1C0
E1C0
FF80
FF00
E000
7F80
3F80
ENDCHAR
STARTCHAR 0251
ENCODING 593
SWIDTH 705 0
DWIDTH 12 0
BBX 10 9 1 0
BITMAP
39C0
7DC0
E3C0
E1C0
E1C0
E1C0
E3C0
7DC0
39C0
ENDCHAR
STARTCHAR 0252
ENCODING 594
SWIDTH 705 0
DWIDTH 12 0
BBX 10 9 1 0
BITMAP
E700
EFC0
F1C0
F1C0
E1C0
F1C0
F1C0
EFC0
E700
ENDCHAR
STARTCHAR 0253
ENCODING 595
SWIDTH 705 0
DWIDTH 12 0
BBX 10 13 1 0
BITMAP
3C00
7C00
7000
E000
E700
EFC0
F1C0
F1C0
E1C0
F1C0
F1C0
EFC0
E700
ENDCHAR
STARTCHAR 0254
ENCODING 596
SWIDTH 588 0
DWIDTH 10 0
BBX 8 9 1 0
BITMAP
78
FE
8F
07
07
07
8F
FE
78
ENDCHAR
STARTCHAR 0255
ENCODING 597
SWIDTH 588 0
DWIDTH 10 0
BBX 8 10 1 -1
BITMAP
3E
7F
F1
E0
EE
FF
F9
7F
3E
10
ENDCHAR
STARTCHAR 0256
ENCODING 598
SWIDTH 705 0
DWIDTH 12 0
BBX 12 17 1 -4
BITMAP
01C0
01C0
01C0
01C0
39C0
7DC0
E3C0
E1C0
E1C0
E1C0
E3C0
7DC0
39C0
01C0
01C0
01F0
00F0
ENDCHAR
STARTCHAR 0257
ENCODING 599
SWIDTH 764 0
DWIDTH 13 0
BBX 13 13 1 0
BITMAP
00F8
01F8
01C0
01C0
39C0
7DC0
E3C0
E1C0
E1C0
E1C0
E3C0
7DC0
39C0
ENDCHAR
STARTCHAR 0258
ENCODING 600
SWIDTH 705 0
DWIDTH 12 0
BBX 10 10 1 0
BITMAP
0800
7F00
F780
E380
FFC0
FFC0
01C0
8380
FF80
FF00
ENDCHAR
STARTCHAR 0259
ENCODING 601
SWIDTH 705 0
DWIDTH 12 0
BBX 10 9 1 0
BITMAP
7E00
FF80
8380
01C0
FFC0
FFC0
E380
7F80
3E00
ENDCHAR
STARTCHAR 025A
ENCODING 602
SWIDTH 882 0
DWIDTH 15 0
BBX 14 10 1 0
BITMAP
0800
FF30
E7F0
03D0
07D8
1FDC
79C0
E380
7F80
3F00
ENDCHAR
STARTCHAR 025B
ENCODING 603
SWIDTH 529 0
DWIDTH 9 0
BBX 7 9 1 0
BITMAP
7C
FE
E2
7C
7C
E0
E2
FE
7E
ENDCHAR
STARTCHAR 025C
ENCODING 604
SWIDTH 529 0
DWIDTH 9 0
BBX 7 10 1 0
BITMAP
10
FE
CE
0E
3C
3C
0E
06
FE
FC
ENDCHAR
STARTCHAR 025D
ENCODING 605
SWIDTH 823 0
DWIDTH 14 0
BBX 12 10 1 0
BITMAP
1000
FEC0
CFC0
0F40
3C60
3C70
0E00
0600
FE00
FC00
ENDCHAR
STARTCHAR 025E
ENCODING 606
SWIDTH 705 0
DWIDTH 12 0
BBX 10 10 1 0
BITMAP
0200
3FC0
79C0
E1C0
EF80
EF80
E1C0
F0C0
7FC0
3F80
ENDCHAR
STARTCHAR 025F
ENCODING 607
SWIDTH 352 0
DWIDTH 6 0
BBX 7 13 -1 -4
BITMAP
38
38
38
38
7E
38
38
38
38
38
38
F8
E0
ENDCHAR
STARTCHAR 0260
ENCODING 608
SWIDTH 764 0
DWIDTH 13 0
BBX 13 17 1 -4
BITMAP
00F8
01F8
01C0
01C0
39C0
7DC0
E3C0
E1C0
E1C0
E1C0
E3C0
7DC0
39C0
03C0
4380
7F00
3E00
ENDCHAR
STARTCHAR 0261
ENCODING 609
SWIDTH 705 0
DWIDTH 12 0
BBX 10 13 1 -4
BITMAP
7FC0
7FC0
E1C0
E1C0
E1C0
E1C0
F3C0
7FC0
3DC0
03C0
4780
7F00
3C00
ENDCHAR
STARTCHAR 0262
ENCODING 610
SWIDTH 647 0
DWIDTH 11 0
BBX 8 9 1 0
BITMAP
3F
7F
E0
C0
CF
CF
E3
7F
3F
ENDCHAR
STARTCHAR 0263
ENCODING 611
SWIDTH 647 0
DWIDTH 11 0
BBX 9 13 1 -4
BITMAP
E380
E380
7700
7700
3E00
3E00
1C00
3E00
3E00
7700
7F00
3E00
1E00
ENDCHAR
STARTCHAR 0264
ENCODING 612
SWIDTH 647 0
DWIDTH 11 0
BBX 9 9 1 0
BITMAP
E380
7700
3E00
3E00
3E00
3600
7700
7F00
3E00
ENDCHAR
STARTCHAR 0265
ENCODING 613
SWIDTH 705 0
DWIDTH 12 0
BBX 10 13 1 -4
BITMAP
E1C0
E1C0
E1C0
E1C0
E1C0
E1C0
F3C0
7DC0
39C0
01C0
01C0
01C0
01C0
ENDCHAR
STARTCHAR 0266
ENCODING 614
SWIDTH 705 0
DWIDTH 12 0
BBX 10 13 1 0
BITMAP
3C00
7C00
7000
E200
EF80
FFC0
F1C0
E1C0
E1C0
E1C0
E1C0
E1C0
E1C0
ENDCHAR
STARTCHAR 0267
ENCODING 615
SWIDTH 705 0
DWIDTH 12 0
BBX 10 17 1 -4
BITMAP
3C00
7C00
7000
E200
EF80
FFC0
F1C0
E1C0
E1C0
E1C0
E1C0
E1C0
E1C0
01C0
03C0
0F80
0F00
ENDCHAR
STARTCHAR 0268
ENCODING 616
SWIDTH 529 0
DWIDTH 9 0
BBX 7 13 1 0
BITMAP
38
38
38
00
38
38
38
38
FE
FE
38
38
38
ENDCHAR
STARTCHAR 0269
ENCODING 617
SWIDTH 411 0
DWIDTH 7 0
BBX 5 9 1 0
BITMAP
E0
E0
E0
E0
E0
E0
70
78
38
ENDCHAR
STARTCHAR 026A
ENCODING 618
SWIDTH 529 0
DWIDTH 9 0
BBX 7 9 1 0
BITMAP
FE
FE
38
38
38
38
38
FE
FE
ENDCHAR
STARTCHAR 026B
ENCODING 619
SWIDTH 588 0
DWIDTH 10 0
BBX 7 13 1 0
BITMAP
38
38
38
38
38
3A
7E
FC
38
38
38
38
38
ENDCHAR
STARTCHAR 026C
ENCODING 620
SWIDTH 705 0
DWIDTH 12 0
BBX 9 13 1 0
BITMAP
0700
0700
0700
3F00
7F00
CF00
7F80
7F80
0700
0700
0700
0700
0700
ENDCHAR
STARTCHAR 026D
ENCODING 621
SWIDTH 352 0
DWIDTH 6 0
BBX 6 17 1 -4
BITMAP
E0
E0
E0
E0
E0
E0
E0
E0
E0
E0
E0
E0
E0
E0
70
7C
1C
ENDCHAR
STARTCHAR 026E
ENCODING 622
SWIDTH 823 0
DWIDTH 14 0
BBX 12 17 1 -4
BITMAP
E000
E000
E000
E000
FFF0
FFF0
E1E0
E3C0
E380
E780
E7F0
E070
E070
0070
1FF0
1FE0
0780
ENDCHAR
STARTCHAR 026F
ENCODING 623
SWIDTH 1058 0
DWIDTH 18 0
BBX 15 9 1 0
BITMAP
E38E
E38E
E38E
E38E
E38E
E38E
F3CE
7FFE
7DFE
ENDCHAR
STARTCHAR 0270
ENCODING 624
SWIDTH 1058 0
DWIDTH 18 0
BBX 15 13 1 -4
BITMAP
E38E
E38E
E38E
E38E
E38E
E38E
F3CE
7FFE
7DFE
000E
000E
000E
000E
ENDCHAR
STARTCHAR 0271
ENCODING 625
SWIDTH 1058 0
DWIDTH 18 0
BBX 15 13 1 -3
BITMAP
EFBE
FFFE
F3CE
E38E
E38E
E38E
E38E
E38E
E38E
000E
000E
003E
0038
ENDCHAR
STARTCHAR 0272
ENCODING 626
SWIDTH 705 0
DWIDTH 12 0
BBX 12 12 -1 -3
BITMAP
39C0
3BE0
3CF0
3C70
3870
3870
3870
3870
3870
3800
F800
F000
ENDCHAR
STARTCHAR 0273
ENCODING 627
SWIDTH 764 0
DWIDTH 13 0
BBX 13 14 1 -4
BITMAP
0200
EF80
FFC0
F1C0
E1C0
E1C0
E1C0
E1C0
E1C0
E1C0
01C0
01C0
00F8
0078
ENDCHAR
STARTCHAR 0274
ENCODING 628
SWIDTH 705 0
DWIDTH 12 0
BBX 10 9 1 0
BITMAP
F1C0
F9C0
F9C0
FDC0
EDC0
EFC0
E7C0
E7C0
E3C0
ENDCHAR
STARTCHAR 0275
ENCODING 629
SWIDTH 705 0
DWIDTH 12 0
BBX 10 9 1 0
BITMAP
3F00
7F80
F3C0
E1C0
FFC0
FFC0
E1C0
7F80
3F00
ENDCHAR
STARTCHAR 0276
ENCODING 630
SWIDTH 882 0
DWIDTH 15 0
BBX 13 9 1 0
BITMAP
3FF8
7FF8
E380
E3F8
E3F8
E380
E380
7FF8
3FF8
ENDCHAR
STARTCHAR 0277
ENCODING 631
SWIDTH 705 0
DWIDTH 12 0
BBX 10 10 1 0
BITMAP
1E00
7F00
7780
E380
E1C0
EDC0
EDC0
EFC0
FF80
7380
ENDCHAR
STARTCHAR 0278
ENCODING 632
SWIDTH 823 0
DWIDTH 14 0
BBX 11 17 1 -4
BITMAP
0E00
0E00
0E00
0E00
7FC0
7FE0
EEE0
EEE0
EEE0
EEE0
FEE0
7FC0
3F80
0E00
0E00
0E00
0E00
ENDCHAR
STARTCHAR 0279
ENCODING 633
SWIDTH 529 0
DWIDTH 9 0
BBX 7 9 1 0
BITMAP
0E
0E
0E
0E
0E
0E
1E
FE
EE
ENDCHAR
STARTCHAR 027A
ENCODING 634
SWIDTH 529 0
DWIDTH 9 0
BBX 7 13 1 0
BITMAP
0E
0E
0E
0E
0E
0E
0E
0E
0E
0E
1E
FE
EE
ENDCHAR
STARTCHAR 027B
ENCODING 635
SWIDTH 647 0
DWIDTH 11 0
BBX 10 13 1 -4
BITMAP
0E00
0E00
0E00
0E00
0E00
0E00
1E00
FE00
EE00
0E00
0700
07C0
01C0
ENDCHAR
STARTCHAR 027C
ENCODING 636
SWIDTH 470 0
DWIDTH 8 0
BBX 7 14 1 -4
BITMAP
02
EE
FE
F0
F0
E0
E0
E0
E0
E0
E0
E0
E0
E0
ENDCHAR
STARTCHAR 027D
ENCODING 637
SWIDTH 470 0
DWIDTH 8 0
BBX 7 13 1 -4
BITMAP
E6
EE
F0
F0
E0
E0
E0
E0
E0
E0
70
7C
3C
ENDCHAR
STARTCHAR 027E
ENCODING 638
SWIDTH 588 0
DWIDTH 10 0
BBX 8 9 1 0
BITMAP
1F
1F
38
38
38
38
38
FE
FE
ENDCHAR
STARTCHAR 027F
ENCODING 639
SWIDTH 588 0
DWIDTH 10 0
BBX 8 9 1 0
BITMAP
F8
FC
1C
1C
1C
1C
1C
3F
3F
ENDCHAR
STARTCHAR 0280
ENCODING 640
SWIDTH 647 0
DWIDTH 11 0
BBX 9 9 1 0
BITMAP
FE00
FF00
E700
E600
FC00
FE00
E700
E700
E380
ENDCHAR
STARTCHAR 0281
ENCODING 641
SWIDTH 647 0
DWIDTH 11 0
BBX 9 9 1 0
BITMAP
E380
E700
E700
FE00
FE00
E700
E700
FF00
FE00
ENDCHAR
STARTCHAR 0282
ENCODING 642
SWIDTH 588 0
DWIDTH 10 0
BBX 8 13 1 -3
BITMAP
7F
E7
E0
FC
7F
07
07
FF
FE
E0
F0
7C
3C
ENDCHAR
STARTCHAR 0283
ENCODING 643
SWIDTH 411 0
DWIDTH 7 0
BBX 8 17 -1 -4
BITMAP
0F
1F
1C
38
38
38
38
38
38
38
38
38
38
38
38
F8
F0
ENDCHAR
STARTCHAR 0284
ENCODING 644
SWIDTH 411 0
DWIDTH 7 0
BBX 8 17 0 -4
BITMAP
1F
3F
38
38
F8
F8
38
38
FC
38
38
38
38
38
78
F0
E0
ENDCHAR
STARTCHAR 0285
ENCODING 645
SWIDTH 588 0
DWIDTH 10 0
BBX 8 14 1 -4
BITMAP
E0
FC
1C
1C
1C
1C
1C
1C
1C
1C
1C
1E
0F
07
ENDCHAR
STARTCHAR 0286
ENCODING 646
SWIDTH 529 0
DWIDTH 9 0
BBX 11 17 -1 -4
BITMAP
03E0
07E0
0700
0700
0700
0700
0700
0700
0700
0700
0700
0700
7F80
7F80
CF00
7E00
3C00
ENDCHAR
STARTCHAR 0287
ENCODING 647
SWIDTH 470 0
DWIDTH 8 0
BBX 8 12 0 -3
BITMAP
FC
FC
1C
1C
1C
1C
1C
FF
FF
1C
1C
1C
ENDCHAR
STARTCHAR 0288
ENCODING 648
SWIDTH 470 0
DWIDTH 8 0
BBX 8 16 0 -4
BITMAP
38
38
38
FF
FF
38
38
38
38
38
38
38
38
38
3E
1E
ENDCHAR
STARTCHAR 0289
ENCODING 649
SWIDTH 941 0
DWIDTH 16 0
BBX 13 9 1 0
BITMAP
3870
3870
3870
FFF8
FFF8
38F0
3CF0
1F70
0E70
ENDCHAR
STARTCHAR 028A
ENCODING 650
SWIDTH 764 0
DWIDTH 13 0
BBX 11 9 1 0
BITMAP
FBE0
FBE0
3B80
71C0
70E0
F0E0
71C0
7FC0
1F00
ENDCHAR
STARTCHAR 028B
ENCODING 651
SWIDTH 647 0
DWIDTH 11 0
BBX 10 9 1 0
BITMAP
E700
E780
E380
E1C0
E1C0
E3C0
7380
7F80
3E00
ENDCHAR
STARTCHAR 028C
ENCODING 652
SWIDTH 647 0
DWIDTH 11 0
BBX 11 9 0 0
BITMAP
0E00
1F00
1F00
3B80
3B80
3980
71C0
71C0
E0E0
ENDCHAR
STARTCHAR 028D
ENCODING 653
SWIDTH 941 0
DWIDTH 16 0
BBX 14 9 1 0
BITMAP
38F0
3CF0
7CF0
7DB8
75B8
67B8
E798
E71C
E71C
ENDCHAR
STARTCHAR 028E
ENCODING 654
SWIDTH 647 0
DWIDTH 11 0
BBX 11 13 0 0
BITMAP
0380
0780
0E00
0E00
1E00
1F00
1F00
3B00
3B80
3380
71C0
71C0
E0E0
ENDCHAR
STARTCHAR 028F
ENCODING 655
SWIDTH 705 0
DWIDTH 12 0
BBX 9 9 2 0
BITMAP
E380
E700
7E00
3E00
3C00
1800
1800
1800
1800
ENDCHAR
STARTCHAR 0290
ENCODING 656
SWIDTH 705 0
DWIDTH 12 0
BBX 11 13 1 -4
BITMAP
FF00
FF00
0E00
1C00
3800
7800
F000
FF00
FF00
0700
0780
03E0
01E0
ENDCHAR
STARTCHAR 0291
ENCODING 657
SWIDTH 705 0
DWIDTH 12 0
BBX 9 10 1 -1
BITMAP
FF00
FF00
0E00
1C00
3800
7F80
F480
FF80
FF80
0C00
ENDCHAR
STARTCHAR 0292
ENCODING 658
SWIDTH 647 0
DWIDTH 11 0
BBX 9 13 1 -4
BITMAP
FF00
FF00
0E00
1C00
3800
3C00
3F00
0780
0380
0380
FF80
FF00
3C00
ENDCHAR
STARTCHAR 0293
ENCODING 659
SWIDTH 647 0
DWIDTH 11 0
BBX 9 13 1 -4
BITMAP
FF00
FF00
0E00
1C00
3800
3C00
3F00
0780
7F80
EF80
EF80
7F00
3800
ENDCHAR
STARTCHAR 0294
ENCODING 660
SWIDTH 588 0
DWIDTH 10 0
BBX 8 13 1 0
BITMAP
F8
FC
9E
07
07
07
0F
7E
7C
70
70
70
70
ENDCHAR
STARTCHAR 0295
ENCODING 661
SWIDTH 588 0
DWIDTH 10 0
BBX 8 13 1 0
BITMAP
1F
7F
FB
E0
E0
E0
F0
7C
3C
1C
1C
1C
1C
ENDCHAR
STARTCHAR 0296
ENCODING 662
SWIDTH 588 0
DWIDTH 10 0
BBX 8 13 1 0
BITMAP
70
70
70
70
78
7E
0F
07
07
07
9E
FE
F8
ENDCHAR
STARTCHAR 0297
ENCODING 663
SWIDTH 588 0
DWIDTH 10 0
BBX 8 17 1 -4
BITMAP
1F
7F
FB
E0
E0
E0
E0
E0
E0
E0
E0
E0
E0
E0
FF
3F
0C
ENDCHAR
STARTCHAR 0298
ENCODING 664
SWIDTH 823 0
DWIDTH 14 0
BBX 13 13 1 0
BITMAP
0700
3FC0
7FE0
70F0
F070
E078
E678
E678
E070
F070
78F0
3FE0
1FC0
ENDCHAR
STARTCHAR 0299
ENCODING 665
SWIDTH 647 0
DWIDTH 11 0
BBX 9 9 1 0
BITMAP
FF00
FF00
E380
FF00
FF00
E380
E380
FF80
FF00
ENDCHAR
STARTCHAR 029A
ENCODING 666
SWIDTH 705 0
DWIDTH 12 0
BBX 10 10 1 0
BITMAP
0800
7F80
F7C0
E1C0
7DC0
7DC0
E1C0
E1C0
FF80
7F00
ENDCHAR
STARTCHAR 029B
ENCODING 667
SWIDTH 705 0
DWIDTH 12 0
BBX 11 13 1 0
BITMAP
01E0
03E0
0700
0700
3F00
7F00
E000
C000
CF00
CF00
E300
7F00
3E00
ENDCHAR
STARTCHAR 029C
ENCODING 668
SWIDTH 705 0
DWIDTH 12 0
BBX 9 9 1 0
BITMAP
E380
E380
E380
FF80
FF80
E380
E380
E380
E380
ENDCHAR
STARTCHAR 029D
ENCODING 669
SWIDTH 352 0
DWIDTH 6 0
BBX 9 17 -3 -4
BITMAP
0E00
0E00
0E00
0000
0E00
0E00
0E00
0E00
0E00
0E00
0E00
0E00
7F80
FF80
CE00
FE00
7800
ENDCHAR
STARTCHAR 029E
ENCODING 670
SWIDTH 705 0
DWIDTH 12 0
BBX 10 13 2 -4
BITMAP
F1C0
79C0
3DC0
1FC0
0FC0
0FC0
3DC0
79C0
F1C0
01C0
01C0
01C0
01C0
ENDCHAR
STARTCHAR 029F
ENCODING 671
SWIDTH 529 0
DWIDTH 9 0
BBX 7 9 1 0
BITMAP
E0
E0
E0
E0
E0
E0
E0
FE
FE
ENDCHAR
STARTCHAR 02A0
ENCODING 672
SWIDTH 764 0
DWIDTH 13 0
BBX 13 17 1 -4
BITMAP
00F8
01F8
01C0
01C0
7DC0
FFC0
E3C0
E1C0
E1C0
E1C0
E3C0
7FC0
7DC0
01C0
01C0
01C0
01C0
ENDCHAR
STARTCHAR 02A1
ENCODING 673
SWIDTH 588 0
DWIDTH 10 0
BBX 8 13 1 0
BITMAP
F8
FC
9E
07
07
07
0F
7E
7C
70
FC
FC
70
ENDCHAR
STARTCHAR 02A2
ENCODING 674
SWIDTH 588 0
DWIDTH 10 0
BBX 8 13 1 0
BITMAP
1F
7F
FB
E0
E0
E0
F0
7C
3C
1C
7F
7F
1C
ENDCHAR
STARTCHAR 02A3
ENCODING 675
SWIDTH 1176 0
DWIDTH 20 0
BBX 18 13 1 0
BITMAP
01C000
01C000
01C000
11C000
7DFFC0
FFFFC0
E3C380
E1C700
E1CE00
E1DC00
E3F800
7FFFC0
7DFFC0
ENDCHAR
STARTCHAR 02A4
ENCODING 676
SWIDTH 1235 0
DWIDTH 21 0
BBX 19 17 1 -4
BITMAP
01C000
01C000
01C000
11C000
7DFFC0
FFFFC0
E3C380
E1C700
E1CE00
E1DF00
E3DFC0
7FC1E0
7DC0E0
0001E0
007FC0
007FC0
001E00
ENDCHAR
STARTCHAR 02A5
ENCODING 677
SWIDTH 1176 0
DWIDTH 20 0
BBX 18 14 1 -1
BITMAP
01C000
01C000
01C000
11C000
7DFFC0
FFFFC0
E3C380
E1C700
E1CF80
E1DDC0
E3FBC0
7FFFC0
7DFF80
000300
ENDCHAR
STARTCHAR 02A6
ENCODING 678
SWIDTH 1000 0
DWIDTH 17 0
BBX 16 12 0 0
BITMAP
3800
3800
3810
FFFE
FFEE
39C0
38F8
38FE
380F
3807
3FFF
1FFC
ENDCHAR
STARTCHAR 02A7
ENCODING 679
SWIDTH 764 0
DWIDTH 13 0
BBX 13 17 0 -4
BITMAP
0078
38F8
38E0
39C0
FFC0
FFC0
39C0
39C0
39C0
39C0
39C0
3FC0
1FC0
01C0
01C0
07C0
0700
ENDCHAR
STARTCHAR 02A8
ENCODING 680
SWIDTH 941 0
DWIDTH 16 0
BBX 15 13 0 -1
BITMAP
3800
3800
3800
FF7E
FFFE
39C0
39C0
39DC
39FE
39F6
3EFE
1E7C
0020
ENDCHAR
STARTCHAR 02A9
ENCODING 681
SWIDTH 1000 0
DWIDTH 17 0
BBX 17 17 0 -4
BITMAP
1F0000
3F0000
380000
380400
FFDF00
FFFF00
39E780
39C380
39C380
39C380
39C380
39C380
39C380
000380
000700
001F00
001C00
ENDCHAR
STARTCHAR 02AA
ENCODING 682
SWIDTH 882 0
DWIDTH 15 0
BBX 13 13 1 0
BITMAP
E000
E000
E000
E080
E7F0
E770
EE00
E7C0
E7F0
E078
E038
FFF8
FFF0
ENDCHAR
STARTCHAR 02AB
ENCODING 683
SWIDTH 764 0
DWIDTH 13 0
BBX 11 13 1 0
BITMAP
E000
E000
E000
E000
FFE0
FFE0
E1E0
E3C0
E780
EF00
EE00
FFE0
FFE0
ENDCHAR
STARTCHAR 02AC
ENCODING 684
SWIDTH 588 0
DWIDTH 10 0
BBX 10 11 0 0
BITMAP
CCC0
6D80
6D80
7B80
3300
0000
4C80
6D80
7F80
7380
3300
ENDCHAR
STARTCHAR 02AD
ENCODING 685
SWIDTH 411 0
DWIDTH 7 0
BBX 6 10 0 1
BITMAP
FC
C4
C4
C4
00
00
FC
C4
C4
C4
ENDCHAR
STARTCHAR 02AE
ENCODING 686
SWIDTH 705 0
DWIDTH 12 0
BBX 13 17 -2 -4
BITMAP
F800
FC00
1C00
1C00
1C38
1C38
1C38
1C38
1C38
1C38
1E78
0FF8
0FB8
0038
0038
0038
0038
ENDCHAR
STARTCHAR 02AF
ENCODING 687
SWIDTH 764 0
DWIDTH 13 0
BBX 16 17 -2 -4
BITMAP
F800
FC00
1C00
1C00
1C38
1C38
1C38
1C38
1C38
1C38
1E78
0FF8
0FB8
0038
0038
003F
000F
ENDCHAR
STARTCHAR 02B0
ENCODING 688
SWIDTH 470 0
DWIDTH 8 0
BBX 6 7 1 6
BITMAP
C0
C0
F8
EC
CC
CC
CC
ENDCHAR
STARTCHAR 02B1
ENCODING 689
SWIDTH 470 0
DWIDTH 8 0
BBX 6 7 1 6
BITMAP
70
C0
F8
EC
CC
CC
CC
ENDCHAR
STARTCHAR 02B2
ENCODING 690
SWIDTH 235 0
DWIDTH 4 0
BBX 3 10 0 3
BITMAP
60
60
60
60
60
60
60
60
E0
80
ENDCHAR
STARTCHAR 02B3
ENCODING 691
SWIDTH 294 0
DWIDTH 5 0
BBX 4 5 1 6
BITMAP
F0
E0
C0
C0
C0
ENDCHAR
STARTCHAR 02B4
ENCODING 692
SWIDTH 294 0
DWIDTH 5 0
BBX 4 6 1 5
BITMAP
30
30
30
30
F0
80
ENDCHAR
STARTCHAR 02B5
ENCODING 693
SWIDTH 294 0
DWIDTH 5 0
BBX 6 8 1 3
BITMAP
30
30
30
30
F0
B0
1C
0C
ENDCHAR
STARTCHAR 02B6
ENCODING 694
SWIDTH 411 0
DWIDTH 7 0
BBX 6 5 0 6
BITMAP
CC
D8
F8
D8
F8
ENDCHAR
STARTCHAR 02B7
ENCODING 695
SWIDTH 588 0
DWIDTH 10 0
BBX 10 5 0 6
BITMAP
CCC0
6D80
6D80
7F80
3300
ENDCHAR
STARTCHAR 02B8
ENCODING 696
SWIDTH 411 0
DWIDTH 7 0
BBX 7 8 0 3
BITMAP
C6
64
6C
38
38
18
70
40
ENDCHAR
STARTCHAR 02B9
ENCODING 697
SWIDTH 294 0
DWIDTH 5 0
BBX 3 5 1 9
BITMAP
60
40
40
C0
C0
ENDCHAR
STARTCHAR 02BA
ENCODING 698
SWIDTH 529 0
DWIDTH 9 0
BBX 6 5 1 9
BITMAP
64
4C
4C
CC
CC
ENDCHAR
STARTCHAR 02BB
ENCODING 699
SWIDTH 352 0
DWIDTH 6 0
BBX 3 5 2 7
BITMAP
60
60
E0
E0
E0
ENDCHAR
STARTCHAR 02BC
ENCODING 700
SWIDTH 352 0
DWIDTH 6 0
BBX 4 5 1 7
BITMAP
70
70
70
60
C0
ENDCHAR
STARTCHAR 02BD
ENCODING 701
SWIDTH 352 0
DWIDTH 6 0
BBX 3 5 2 10
BITMAP
C0
C0
E0
60
60
ENDCHAR
STARTCHAR 02BE
ENCODING 702
SWIDTH 352 0
DWIDTH 6 0
BBX 2 5 2 8
BITMAP
80
C0
40
C0
80
ENDCHAR
STARTCHAR 02BF
ENCODING 703
SWIDTH 352 0
DWIDTH 6 0
BBX 2 5 2 8
BITMAP
40
C0
80
C0
40
ENDCHAR
STARTCHAR 02C0
ENCODING 704
SWIDTH 352 0
DWIDTH 6 0
BBX 6 7 0 6
BITMAP
70
F8
0C
0C
78
60
60
ENDCHAR
STARTCHAR 02C1
ENCODING 705
SWIDTH 352 0
DWIDTH 6 0
BBX 6 7 0 6
BITMAP
3C
7C
C0
E0
78
18
18
ENDCHAR
STARTCHAR 02C2
ENCODING 706
SWIDTH 529 0
DWIDTH 9 0
BBX 4 5 2 9
BITMAP
10
60
C0
70
10
ENDCHAR
STARTCHAR 02C3
ENCODING 707
SWIDTH 529 0
DWIDTH 9 0
BBX 4 5 2 9
BITMAP
C0
70
10
70
C0
ENDCHAR
STARTCHAR 02C4
ENCODING 708
SWIDTH 529 0
DWIDTH 9 0
BBX 5 4 2 10
BITMAP
60
70
D0
98
ENDCHAR
STARTCHAR 02C5
ENCODING 709
SWIDTH 529 0
DWIDTH 9 0
BBX 5 4 2 10
BITMAP
88
90
50
60
ENDCHAR
STARTCHAR 02C6
ENCODING 710
SWIDTH 529 0
DWIDTH 9 0
BBX 6 3 1 11
BITMAP
38
68
CC
ENDCHAR
STARTCHAR 02C7
ENCODING 711
SWIDTH 529 0
DWIDTH 9 0
BBX 6 3 1 11
BITMAP
CC
68
38
ENDCHAR
STARTCHAR 02C8
ENCODING 712
SWIDTH 294 0
DWIDTH 5 0
BBX 1 5 2 8
BITMAP
80
80
80
80
80
ENDCHAR
STARTCHAR 02C9
ENCODING 713
SWIDTH 529 0
DWIDTH 9 0
BBX 5 2 2 11
BITMAP
F8
F8
ENDCHAR
STARTCHAR 02CA
ENCODING 714
SWIDTH 529 0
DWIDTH 9 0
BBX 5 4 3 10
BITMAP
38
30
60
C0
ENDCHAR
STARTCHAR 02CB
ENCODING 715
SWIDTH 529 0
DWIDTH 9 0
BBX 4 4 1 10
BITMAP
C0
60
30
10
ENDCHAR
STARTCHAR 02CC
ENCODING 716
SWIDTH 294 0
DWIDTH 5 0
BBX 1 4 2 -1
BITMAP
80
80
80
80
ENDCHAR
STARTCHAR 02CD
ENCODING 717
SWIDTH 529 0
DWIDTH 9 0
BBX 5 2 2 -3
BITMAP
F8
F8
ENDCHAR
STARTCHAR 02CE
ENCODING 718
SWIDTH 529 0
DWIDTH 9 0
BBX 4 3 1 -4
BITMAP
E0
60
30
ENDCHAR
STARTCHAR 02CF
ENCODING 719
SWIDTH 529 0
DWIDTH 9 0
BBX 4 3 3 -4
BITMAP
30
60
C0
ENDCHAR
STARTCHAR 02D0
ENCODING 720
SWIDTH 352 0
DWIDTH 6 0
BBX 3 9 1 0
BITMAP
E0
40
40
00
00
00
40
40
E0
ENDCHAR
STARTCHAR 02D1
ENCODING 721
SWIDTH 352 0
DWIDTH 6 0
BBX 3 3 1 6
BITMAP
E0
40
40
ENDCHAR
STARTCHAR 02D2
ENCODING 722
SWIDTH 352 0
DWIDTH 6 0
BBX 2 5 2 4
BITMAP
80
C0
40
C0
80
ENDCHAR
STARTCHAR 02D3
ENCODING 723
SWIDTH 352 0
DWIDTH 6 0
BBX 2 5 2 4
BITMAP
40
C0
80
C0
40
ENDCHAR
STARTCHAR 02D4
ENCODING 724
SWIDTH 529 0
DWIDTH 9 0
BBX 4 4 2 4
BITMAP
60
60
F0
F0
ENDCHAR
STARTCHAR 02D5
ENCODING 725
SWIDTH 529 0
DWIDTH 9 0
BBX 4 4 2 4
BITMAP
F0
F0
20
20
ENDCHAR
STARTCHAR 02D6
ENCODING 726
SWIDTH 411 0
DWIDTH 7 0
BBX 5 5 1 2
BITMAP
20
20
F8
20
20
ENDCHAR
STARTCHAR 02D7
ENCODING 727
SWIDTH 352 0
DWIDTH 6 0
BBX 4 1 1 4
BITMAP
F0
ENDCHAR
STARTCHAR 02D8
ENCODING 728
SWIDTH 529 0
DWIDTH 9 0
BBX 5 2 2 11
BITMAP
88
F0
ENDCHAR
STARTCHAR 02D9
ENCODING 729
SWIDTH 529 0
DWIDTH 9 0
BBX 2 2 3 11
BITMAP
C0
C0
ENDCHAR
STARTCHAR 02DA
ENCODING 730
SWIDTH 529 0
DWIDTH 9 0
BBX 5 5 2 10
BITMAP
70
90
98
90
70
ENDCHAR
STARTCHAR 02DB
ENCODING 731
SWIDTH 529 0
DWIDTH 9 0
BBX 3 3 3 -3
BITMAP
C0
80
E0
ENDCHAR
STARTCHAR 02DC
ENCODING 732
SWIDTH 529 0
DWIDTH 9 0
BBX 6 3 1 11
BITMAP
64
7C
DC
ENDCHAR
STARTCHAR 02DD
ENCODING 733
SWIDTH 529 0
DWIDTH 9 0
BBX 6 3 2 10
BITMAP
6C
D8
90
ENDCHAR
STARTCHAR 02DE
ENCODING 734
SWIDTH 352 0
DWIDTH 6 0
BBX 6 5 0 4
BITMAP
30
F0
D0
98
1C
ENDCHAR
STARTCHAR 02DF
ENCODING 735
SWIDTH 529 0
DWIDTH 9 0
BBX 5 4 2 10
BITMAP
D0
70
70
D8
ENDCHAR
STARTCHAR 02E0
ENCODING 736
SWIDTH 411 0
DWIDTH 7 0
BBX 6 7 0 4
BITMAP
C4
6C
38
38
38
68
78
ENDCHAR
STARTCHAR 02E1
ENCODING 737
SWIDTH 235 0
DWIDTH 4 0
BBX 2 7 1 6
BITMAP
C0
C0
C0
C0
C0
C0
C0
ENDCHAR
STARTCHAR 02E2
ENCODING 738
SWIDTH 352 0
DWIDTH 6 0
BBX 5 6 1 5
BITMAP
F8
88
F0
18
F8
60
ENDCHAR
STARTCHAR 02E3
ENCODING 739
SWIDTH 411 0
DWIDTH 7 0
BBX 7 5 0 6
BITMAP
C6
6C
38
38
6C
ENDCHAR
STARTCHAR 02E4
ENCODING 740
SWIDTH 352 0
DWIDTH 6 0
BBX 6 7 0 6
BITMAP
3C
7C
C0
E0
78
18
18
ENDCHAR
STARTCHAR 02E5
ENCODING 741
SWIDTH 529 0
DWIDTH 9 0
BBX 5 12 2 0
BITMAP
F8
F8
18
18
18
18
18
18
18
18
18
18
ENDCHAR
STARTCHAR 02E6
ENCODING 742
SWIDTH 529 0
DWIDTH 9 0
BBX 5 12 2 0
BITMAP
18
18
18
F8
F8
18
18
18
18
18
18
18
ENDCHAR
STARTCHAR 02E7
ENCODING 743
SWIDTH 529 0
DWIDTH 9 0
BBX 5 12 2 0
BITMAP
18
18
18
18
18
F8
F8
18
18
18
18
18
ENDCHAR
STARTCHAR 02E8
ENCODING 744
SWIDTH 529 0
DWIDTH 9 0
BBX 5 12 2 0
BITMAP
18
18
18
18
18
18
18
F8
F8
18
18
18
ENDCHAR
STARTCHAR 02E9
ENCODING 745
SWIDTH 529 0
DWIDTH 9 0
BBX 5 12 2 0
BITMAP
18
18
18
18
18
18
18
18
18
18
F8
F8
ENDCHAR
STARTCHAR 02EC
ENCODING 748
SWIDTH 529 0
DWIDTH 9 0
BBX 5 4 2 -4
BITMAP
88
90
50
60
ENDCHAR
STARTCHAR 02ED
ENCODING 749
SWIDTH 529 0
DWIDTH 9 0
BBX 5 4 2 10
BITMAP
F8
F8
F8
F8
ENDCHAR
STARTCHAR 02EE
ENCODING 750
SWIDTH 647 0
DWIDTH 11 0
BBX 7 5 2 7
BITMAP
E6
E6
E6
CE
CC
ENDCHAR
STARTCHAR 02F3
ENCODING 755
SWIDTH 529 0
DWIDTH 9 0
BBX 5 5 2 -4
BITMAP
70
90
98
90
70
ENDCHAR
STARTCHAR 02F7
ENCODING 759
SWIDTH 529 0
DWIDTH 9 0
BBX 6 2 1 -3
BITMAP
64
FC
ENDCHAR
STARTCHAR 0300
ENCODING 768
SWIDTH 0 0
DWIDTH 0 0
BBX 4 3 -7 11
BITMAP
C0
60
30
ENDCHAR
STARTCHAR 0301
ENCODING 769
SWIDTH 0 0
DWIDTH 0 0
BBX 4 3 -5 11
BITMAP
70
60
C0
ENDCHAR
STARTCHAR 0302
ENCODING 770
SWIDTH 0 0
DWIDTH 0 0
BBX 6 3 -7 11
BITMAP
70
58
CC
ENDCHAR
STARTCHAR 0303
ENCODING 771
SWIDTH 0 0
DWIDTH 0 0
BBX 6 3 -7 11
BITMAP
EC
F8
98
ENDCHAR
STARTCHAR 0304
ENCODING 772
SWIDTH 0 0
DWIDTH 0 0
BBX 5 2 -7 11
BITMAP
F8
F8
ENDCHAR
STARTCHAR 0305
ENCODING 773
SWIDTH 0 0
DWIDTH 0 0
BBX 9 2 -9 11
BITMAP
FF80
FF80
ENDCHAR
STARTCHAR 0306
ENCODING 774
SWIDTH 0 0
DWIDTH 0 0
BBX 6 2 -7 11
BITMAP
8C
78
ENDCHAR
STARTCHAR 0307
ENCODING 775
SWIDTH 0 0
DWIDTH 0 0
BBX 3 3 -6 11
BITMAP
E0
E0
E0
ENDCHAR
STARTCHAR 0308
ENCODING 776
SWIDTH 0 0
DWIDTH 0 0
BBX 5 2 -7 11
BITMAP
D8
D8
ENDCHAR
STARTCHAR 0309
ENCODING 777
SWIDTH 0 0
DWIDTH 0 0
BBX 4 4 -6 10
BITMAP
F0
30
60
40
ENDCHAR
STARTCHAR 030A
ENCODING 778
SWIDTH 0 0
DWIDTH 0 0
BBX 5 5 -7 10
BITMAP
70
48
C8
48
70
ENDCHAR
STARTCHAR 030B
ENCODING 779
SWIDTH 0 0
DWIDTH 0 0
BBX 6 3 -7 10
BITMAP
6C
6C
D8
ENDCHAR
STARTCHAR 030C
ENCODING 780
SWIDTH 0 0
DWIDTH 0 0
BBX 6 3 -7 11
BITMAP
CC
58
70
ENDCHAR
STARTCHAR 030D
ENCODING 781
SWIDTH 0 0
DWIDTH 0 0
BBX 2 4 -5 10
BITMAP
C0
C0
C0
C0
ENDCHAR
STARTCHAR 030E
ENCODING 782
SWIDTH 0 0
DWIDTH 0 0
BBX 5 4 -7 10
BITMAP
D8
D8
D8
D8
ENDCHAR
STARTCHAR 030F
ENCODING 783
SWIDTH 0 0
DWIDTH 0 0
BBX 6 4 -8 10
BITMAP
D8
48
6C
24
ENDCHAR
STARTCHAR 0310
ENCODING 784
SWIDTH 0 0
DWIDTH 0 0
BBX 6 4 -7 11
BITMAP
30
30
8C
78
ENDCHAR
STARTCHAR 0311
ENCODING 785
SWIDTH 0 0
DWIDTH 0 0
BBX 6 2 -7 11
BITMAP
78
8C
ENDCHAR
STARTCHAR 0312
ENCODING 786
SWIDTH 0 0
DWIDTH 0 0
BBX 3 2 -4 7
BITMAP
60
C0
ENDCHAR
STARTCHAR 0313
ENCODING 787
SWIDTH 0 0
DWIDTH 0 0
BBX 3 4 -5 10
BITMAP
E0
E0
60
C0
ENDCHAR
STARTCHAR 0314
ENCODING 788
SWIDTH 0 0
DWIDTH 0 0
BBX 3 4 -5 10
BITMAP
E0
E0
40
60
ENDCHAR
STARTCHAR 0315
ENCODING 789
SWIDTH 0 0
DWIDTH 0 0
BBX 2 4 -1 10
BITMAP
C0
C0
C0
80
ENDCHAR
STARTCHAR 0316
ENCODING 790
SWIDTH 0 0
DWIDTH 0 0
BBX 4 3 -7 -4
BITMAP
C0
60
30
ENDCHAR
STARTCHAR 0317
ENCODING 791
SWIDTH 0 0
DWIDTH 0 0
BBX 4 3 -5 -4
BITMAP
70
60
C0
ENDCHAR
STARTCHAR 0318
ENCODING 792
SWIDTH 0 0
DWIDTH 0 0
BBX 2 4 -6 -4
BITMAP
40
C0
C0
40
ENDCHAR
STARTCHAR 0319
ENCODING 793
SWIDTH 0 0
DWIDTH 0 0
BBX 3 4 -5 -4
BITMAP
80
E0
E0
80
ENDCHAR
STARTCHAR 031A
ENCODING 794
SWIDTH 0 0
DWIDTH 0 0
BBX 5 5 -4 11
BITMAP
F8
F8
18
18
18
ENDCHAR
STARTCHAR 031B
ENCODING 795
SWIDTH 0 0
DWIDTH 0 0
BBX 3 3 -3 7
BITMAP
20
A0
E0
ENDCHAR
STARTCHAR 031C
ENCODING 796
SWIDTH 0 0
DWIDTH 0 0
BBX 2 4 -6 -4
BITMAP
40
C0
C0
40
ENDCHAR
STARTCHAR 031D
ENCODING 797
SWIDTH 0 0
DWIDTH 0 0
BBX 5 3 -7 -4
BITMAP
30
30
F8
ENDCHAR
STARTCHAR 031E
ENCODING 798
SWIDTH 0 0
DWIDTH 0 0
BBX 5 3 -7 -4
BITMAP
F8
F8
20
ENDCHAR
STARTCHAR 031F
ENCODING 799
SWIDTH 0 0
DWIDTH 0 0
BBX 4 4 -6 -4
BITMAP
40
F0
F0
40
ENDCHAR
STARTCHAR 0320
ENCODING 800
SWIDTH 0 0
DWIDTH 0 0
BBX 5 1 -7 -3
BITMAP
F8
ENDCHAR
STARTCHAR 0321
ENCODING 801
SWIDTH 0 0
DWIDTH 0 0
BBX 6 6 -7 -4
BITMAP
1C
1C
1C
38
F8
E0
ENDCHAR
STARTCHAR 0322
ENCODING 802
SWIDTH 0 0
DWIDTH 0 0
BBX 6 6 -7 -4
BITMAP
E0
E0
E0
E0
7C
3C
ENDCHAR
STARTCHAR 0323
ENCODING 803
SWIDTH 0 0
DWIDTH 0 0
BBX 3 3 -6 -4
BITMAP
E0
E0
E0
ENDCHAR
STARTCHAR 0324
ENCODING 804
SWIDTH 0 0
DWIDTH 0 0
BBX 5 2 -7 -4
BITMAP
D8
D8
ENDCHAR
STARTCHAR 0325
ENCODING 805
SWIDTH 0 0
DWIDTH 0 0
BBX 4 4 -6 -4
BITMAP
60
B0
B0
E0
ENDCHAR
STARTCHAR 0326
ENCODING 806
SWIDTH 0 0
DWIDTH 0 0
BBX 2 2 -5 -4
BITMAP
C0
80
ENDCHAR
STARTCHAR 0327
ENCODING 807
SWIDTH 0 0
DWIDTH 0 0
BBX 3 3 -6 -3
BITMAP
20
20
E0
ENDCHAR
STARTCHAR 0328
ENCODING 808
SWIDTH 0 0
DWIDTH 0 0
BBX 4 3 -6 -3
BITMAP
40
C0
70
ENDCHAR
STARTCHAR 0329
ENCODING 809
SWIDTH 0 0
DWIDTH 0 0
BBX 2 3 -5 -4
BITMAP
C0
C0
C0
ENDCHAR
STARTCHAR 032A
ENCODING 810
SWIDTH 0 0
DWIDTH 0 0
BBX 5 3 -7 -4
BITMAP
F8
C8
C8
ENDCHAR
STARTCHAR 032B
ENCODING 811
SWIDTH 0 0
DWIDTH 0 0
BBX 7 2 -8 -4
BITMAP
DA
7E
ENDCHAR
STARTCHAR 032C
ENCODING 812
SWIDTH 0 0
DWIDTH 0 0
BBX 6 3 -7 -4
BITMAP
CC
58
70
ENDCHAR
STARTCHAR 032D
ENCODING 813
SWIDTH 0 0
DWIDTH 0 0
BBX 6 3 -7 -4
BITMAP
70
58
CC
ENDCHAR
STARTCHAR 032E
ENCODING 814
SWIDTH 0 0
DWIDTH 0 0
BBX 6 2 -7 -4
BITMAP
8C
78
ENDCHAR
STARTCHAR 032F
ENCODING 815
SWIDTH 0 0
DWIDTH 0 0
BBX 6 2 -7 -4
BITMAP
78
8C
ENDCHAR
STARTCHAR 0330
ENCODING 816
SWIDTH 0 0
DWIDTH 0 0
BBX 6 3 -7 -4
BITMAP
EC
F8
98
ENDCHAR
STARTCHAR 0331
ENCODING 817
SWIDTH 0 0
DWIDTH 0 0
BBX 5 2 -7 -3
BITMAP
F8
F8
ENDCHAR
STARTCHAR 0332
ENCODING 818
SWIDTH 0 0
DWIDTH 0 0
BBX 9 2 -9 -4
BITMAP
FF80
FF80
ENDCHAR
STARTCHAR 0333
ENCODING 819
SWIDTH 0 0
DWIDTH 0 0
BBX 9 4 -9 -4
BITMAP
FF80
FF80
FF80
FF80
ENDCHAR
STARTCHAR 0334
ENCODING 820
SWIDTH 0 0
DWIDTH 0 0
BBX 11 3 -11 4
BITMAP
7C20
FFE0
C3C0
ENDCHAR
STARTCHAR 0335
ENCODING 821
SWIDTH 0 0
DWIDTH 0 0
BBX 6 1 -8 4
BITMAP
FC
ENDCHAR
STARTCHAR 0336
ENCODING 822
SWIDTH 0 0
DWIDTH 0 0
BBX 13 1 -14 4
BITMAP
FFF8
ENDCHAR
STARTCHAR 0337
ENCODING 823
SWIDTH 0 0
DWIDTH 0 0
BBX 10 11 -11 -1
BITMAP
0040
0080
0180
0300
0600
0C00
1800
3000
6000
C000
8000
ENDCHAR
STARTCHAR 0338
ENCODING 824
SWIDTH 0 0
DWIDTH 0 0
BBX 13 13 -14 -1
BITMAP
0008
0018
0030
0060
00C0
0180
0300
0600
0C00
1800
3000
6000
C000
ENDCHAR
STARTCHAR 0339
ENCODING 825
SWIDTH 0 0
DWIDTH 0 0
BBX 2 4 -5 -4
BITMAP
80
40
40
C0
ENDCHAR
STARTCHAR 033A
ENCODING 826
SWIDTH 0 0
DWIDTH 0 0
BBX 5 3 -7 -4
BITMAP
C8
F8
F8
ENDCHAR
STARTCHAR 033B
ENCODING 827
SWIDTH 0 0
DWIDTH 0 0
BBX 4 4 -6 -4
BITMAP
F0
D0
D0
F0
ENDCHAR
STARTCHAR 033C
ENCODING 828
SWIDTH 0 0
DWIDTH 0 0
BBX 7 2 -8 -4
BITMAP
7E
D2
ENDCHAR
STARTCHAR 033D
ENCODING 829
SWIDTH 0 0
DWIDTH 0 0
BBX 4 4 -6 10
BITMAP
B0
E0
E0
A0
ENDCHAR
STARTCHAR 033E
ENCODING 830
SWIDTH 0 0
DWIDTH 0 0
BBX 3 5 -5 10
BITMAP
60
C0
40
20
C0
ENDCHAR
STARTCHAR 033F
ENCODING 831
SWIDTH 0 0
DWIDTH 0 0
BBX 9 4 -9 9
BITMAP
FF80
FF80
FF80
FF80
ENDCHAR
STARTCHAR 0340
ENCODING 832
SWIDTH 0 0
DWIDTH 0 0
BBX 4 3 -7 11
BITMAP
C0
60
30
ENDCHAR
STARTCHAR 0341
ENCODING 833
SWIDTH 0 0
DWIDTH 0 0
BBX 4 3 -5 11
BITMAP
70
60
C0
ENDCHAR
STARTCHAR 0342
ENCODING 834
SWIDTH 0 0
DWIDTH 0 0
BBX 6 3 -7 11
BITMAP
EC
F8
98
ENDCHAR
STARTCHAR 0343
ENCODING 835
SWIDTH 0 0
DWIDTH 0 0
BBX 3 4 -5 10
BITMAP
E0
E0
60
C0
ENDCHAR
STARTCHAR 0344
ENCODING 836
SWIDTH 0 0
DWIDTH 0 0
BBX 6 6 -7 11
BITMAP
1C
18
30
00
D8
D8
ENDCHAR
STARTCHAR 0345
ENCODING 837
SWIDTH 0 0
DWIDTH 0 0
BBX 2 3 -5 -4
BITMAP
80
80
40
ENDCHAR
STARTCHAR 0346
ENCODING 838
SWIDTH 0 0
DWIDTH 0 0
BBX 5 2 -7 11
BITMAP
F8
C8
ENDCHAR
STARTCHAR 0347
ENCODING 839
SWIDTH 0 0
DWIDTH 0 0
BBX 4 3 -6 -4
BITMAP
F0
00
F0
ENDCHAR
STARTCHAR 0348
ENCODING 840
SWIDTH 0 0
DWIDTH 0 0
BBX 4 3 -6 -4
BITMAP
B0
B0
B0
ENDCHAR
STARTCHAR 0349
ENCODING 841
SWIDTH 0 0
DWIDTH 0 0
BBX 4 4 -6 -4
BITMAP
F0
F0
30
30
ENDCHAR
STARTCHAR 034A
ENCODING 842
SWIDTH 0 0
DWIDTH 0 0
BBX 6 4 -7 10
BITMAP
10
FC
B8
40
ENDCHAR
STARTCHAR 034B
ENCODING 843
SWIDTH 0 0
DWIDTH 0 0
BBX 6 4 -7 10
BITMAP
10
EC
B8
60
ENDCHAR
STARTCHAR 034C
ENCODING 844
SWIDTH 0 0
DWIDTH 0 0
BBX 6 6 -7 9
BITMAP
4C
FC
B8
EC
F8
98
ENDCHAR
STARTCHAR 034D
ENCODING 845
SWIDTH 0 0
DWIDTH 0 0
BBX 7 3 -8 -4
BITMAP
46
FE
64
ENDCHAR
STARTCHAR 034E
ENCODING 846
SWIDTH 0 0
DWIDTH 0 0
BBX 4 3 -6 -4
BITMAP
60
F0
50
ENDCHAR
STARTCHAR 034F
ENCODING 847
SWIDTH 0 0
DWIDTH 0 0
BBX 0 0 0 0
BITMAP
ENDCHAR
STARTCHAR 0351
ENCODING 849
SWIDTH 0 0
DWIDTH 0 0
BBX 2 5 -5 10
BITMAP
C0
80
80
C0
40
ENDCHAR
STARTCHAR 0352
ENCODING 850
SWIDTH 0 0
DWIDTH 0 0
BBX 6 4 -7 11
BITMAP
78
8C
30
30
ENDCHAR
STARTCHAR 0353
ENCODING 851
SWIDTH 0 0
DWIDTH 0 0
BBX 3 4 -6 -4
BITMAP
A0
E0
E0
A0
ENDCHAR
STARTCHAR 0357
ENCODING 855
SWIDTH 0 0
DWIDTH 0 0
BBX 2 4 -5 10
BITMAP
80
C0
40
C0
ENDCHAR
STARTCHAR 0358
ENCODING 856
SWIDTH 0 0
DWIDTH 0 0
BBX 2 2 -2 11
BITMAP
C0
C0
ENDCHAR
STARTCHAR 035A
ENCODING 858
SWIDTH 0 0
DWIDTH 0 0
BBX 7 4 -8 -4
BITMAP
6C
5E
D2
7C
ENDCHAR
STARTCHAR 035C
ENCODING 860
SWIDTH 0 0
DWIDTH 0 0
BBX 15 3 -7 -4
BITMAP
0002
FFFE
1FF0
ENDCHAR
STARTCHAR 035D
ENCODING 861
SWIDTH 0 0
DWIDTH 0 0
BBX 15 3 -7 14
BITMAP
0002
FFFE
1FF0
ENDCHAR
STARTCHAR 035E
ENCODING 862
SWIDTH 0 0
DWIDTH 0 0
BBX 16 1 -8 14
BITMAP
FFFF
ENDCHAR
STARTCHAR 035F
ENCODING 863
SWIDTH 0 0
DWIDTH 0 0
BBX 16 1 -8 -3
BITMAP
FFFF
ENDCHAR
STARTCHAR 0360
ENCODING 864
SWIDTH 0 0
DWIDTH 0 0
BBX 12 2 -6 13
BITMAP
7E30
C7E0
ENDCHAR
STARTCHAR 0361
ENCODING 865
SWIDTH 0 0
DWIDTH 0 0
BBX 16 3 -8 13
BITMAP
07E0
7FFE
C003
ENDCHAR
STARTCHAR 0362
ENCODING 866
SWIDTH 0 0
DWIDTH 0 0
BBX 15 3 -8 -4
BITMAP
0006
FFFE
0006
ENDCHAR
STARTCHAR 0370
ENCODING 880
SWIDTH 705 0
DWIDTH 12 0
BBX 8 12 2 0
BITMAP
E0
E0
E0
E0
FF
FF
FF
E0
E0
E0
E0
E0
ENDCHAR
STARTCHAR 0371
ENCODING 881
SWIDTH 588 0
DWIDTH 10 0
BBX 7 9 1 0
BITMAP
E0
E0
E0
FE
FE
E0
E0
E0
E0
ENDCHAR
STARTCHAR 0372
ENCODING 882
SWIDTH 1000 0
DWIDTH 17 0
BBX 14 12 2 0
BITMAP
FFFC
FFFC
E71C
E71C
E71C
E71C
0700
0700
0700
0700
0700
0700
ENDCHAR
STARTCHAR 0373
ENCODING 883
SWIDTH 823 0
DWIDTH 14 0
BBX 11 12 2 0
BITMAP
FFE0
FFE0
CEE0
CEE0
CEE0
CEE0
0E00
0E00
0E00
0E00
0E00
0E00
ENDCHAR
STARTCHAR 0374
ENCODING 884
SWIDTH 294 0
DWIDTH 5 0
BBX 3 5 1 9
BITMAP
60
40
40
C0
C0
ENDCHAR
STARTCHAR 0375
ENCODING 885
SWIDTH 294 0
DWIDTH 5 0
BBX 3 5 1 -4
BITMAP
60
60
40
40
C0
ENDCHAR
STARTCHAR 0376
ENCODING 886
SWIDTH 823 0
DWIDTH 14 0
BBX 11 12 2 0
BITMAP
E1E0
E3E0
E3E0
E7E0
E6E0
EEE0
ECE0
FCE0
F8E0
F0E0
F0E0
E0E0
ENDCHAR
STARTCHAR 0377
ENCODING 887
SWIDTH 705 0
DWIDTH 12 0
BBX 9 9 1 0
BITMAP
E380
E780
E780
EF80
ED80
FD80
F980
F180
F180
ENDCHAR
STARTCHAR 037A
ENCODING 890
SWIDTH 529 0
DWIDTH 9 0
BBX 3 3 3 -4
BITMAP
C0
C0
60
ENDCHAR
STARTCHAR 037B
ENCODING 891
SWIDTH 588 0
DWIDTH 10 0
BBX 8 9 1 0
BITMAP
78
FE
8F
07
07
07
8F
FE
78
ENDCHAR
STARTCHAR 037C
ENCODING 892
SWIDTH 529 0
DWIDTH 9 0
BBX 8 9 1 0
BITMAP
3E
7F
FF
EE
EE
E0
F1
7F
3E
ENDCHAR
STARTCHAR 037D
ENCODING 893
SWIDTH 529 0
DWIDTH 9 0
BBX 8 9 1 0
BITMAP
78
FE
FF
77
77
07
8F
FE
78
ENDCHAR
STARTCHAR 037E
ENCODING 894
SWIDTH 411 0
DWIDTH 7 0
BBX 4 12 1 -3
BITMAP
70
70
70
00
00
00
70
70
70
60
E0
C0
ENDCHAR
STARTCHAR 037F
ENCODING 895
SWIDTH 352 0
DWIDTH 6 0
BBX 6 15 -1 -3
BITMAP
1C
1C
1C
1C
1C
1C
1C
1C
1C
1C
1C
1C
3C
F8
F0
ENDCHAR
STARTCHAR 0384
ENCODING 900
SWIDTH 470 0
DWIDTH 8 0
BBX 4 3 3 11
BITMAP
30
60
C0
ENDCHAR
STARTCHAR 0385
ENCODING 901
SWIDTH 529 0
DWIDTH 9 0
BBX 5 6 2 11
BITMAP
18
30
60
00
D8
D8
ENDCHAR
STARTCHAR 0386
ENCODING 902
SWIDTH 823 0
DWIDTH 14 0
BBX 12 14 1 0
BITMAP
7000
6000
CF00
0F00
1F80
1F80
39C0
39C0
31C0
7FE0
7FE0
E070
E070
E070
ENDCHAR
STARTCHAR 0387
ENCODING 903
SWIDTH 352 0
DWIDTH 6 0
BBX 3 3 2 5
BITMAP
E0
E0
E0
ENDCHAR
STARTCHAR 0388
ENCODING 904
SWIDTH 823 0
DWIDTH 14 0
BBX 13 14 0 0
BITMAP
3000
6000
CFF8
0FF8
0E00
0E00
0E00
0FF8
0FF8
0E00
0E00
0E00
0FF8
0FF8
ENDCHAR
STARTCHAR 0389
ENCODING 905
SWIDTH 1000 0
DWIDTH 17 0
BBX 16 14 0 0
BITMAP
3000
6000
CF0F
0F0F
0F0F
0F0F
0F0F
0FFF
0FFF
0F0F
0F0F
0F0F
0F0F
0F0F
ENDCHAR
STARTCHAR 038A
ENCODING 906
SWIDTH 588 0
DWIDTH 10 0
BBX 8 14 0 0
BITMAP
30
60
CF
0F
0F
0F
0F
0F
0F
0F
0F
0F
0F
0F
ENDCHAR
STARTCHAR 038C
ENCODING 908
SWIDTH 882 0
DWIDTH 15 0
BBX 14 14 0 0
BITMAP
3000
6000
C7E0
1FF0
3C38
383C
381C
781C
781C
381C
383C
3C38
1FF0
07E0
ENDCHAR
STARTCHAR 038E
ENCODING 910
SWIDTH 1000 0
DWIDTH 17 0
BBX 17 14 0 0
BITMAP
700000
600000
C70780
078F00
038E00
01DC00
01FC00
00F800
007000
007000
007000
007000
007000
007000
ENDCHAR
STARTCHAR 038F
ENCODING 911
SWIDTH 882 0
DWIDTH 15 0
BBX 15 14 0 0
BITMAP
7000
6000
C7E0
1FF0
1C38
383C
381C
381C
381C
381C
3C3C
1C38
7E7E
7E7E
ENDCHAR
STARTCHAR 0390
ENCODING 912
SWIDTH 411 0
DWIDTH 7 0
BBX 6 17 0 0
BITMAP
0C
18
30
00
CC
CC
00
00
70
70
70
70
70
70
78
7C
3C
ENDCHAR
STARTCHAR 0391
ENCODING 913
SWIDTH 764 0
DWIDTH 13 0
BBX 13 12 0 0
BITMAP
0F80
0F80
0F80
1DC0
1DC0
18E0
38E0
3FE0
7FF0
7070
7078
E038
ENDCHAR
STARTCHAR 0392
ENCODING 914
SWIDTH 764 0
DWIDTH 13 0
BBX 10 12 2 0
BITMAP
FF00
FF80
E380
E380
E380
FF00
FF80
E3C0
E1C0
E3C0
FF80
FF00
ENDCHAR
STARTCHAR 0393
ENCODING 915
SWIDTH 647 0
DWIDTH 11 0
BBX 8 12 2 0
BITMAP
FF
FF
E0
E0
E0
E0
E0
E0
E0
E0
E0
E0
ENDCHAR
STARTCHAR 0394
ENCODING 916
SWIDTH 764 0
DWIDTH 13 0
BBX 13 12 0 0
BITMAP
0F80
0F80
0F80
1DC0
1DC0
1DE0
38E0
38E0
78F0
7070
7FF8
FFF8
ENDCHAR
STARTCHAR 0395
ENCODING 917
SWIDTH 705 0
DWIDTH 12 0
BBX 8 12 2 0
BITMAP
FF
FF
E0
E0
E0
FF
FF
E0
E0
E0
FF
FF
ENDCHAR
STARTCHAR 0396
ENCODING 918
SWIDTH 705 0
DWIDTH 12 0
BBX 11 12 1 0
BITMAP
FFC0
FFC0
03C0
0780
0F00
0E00
1E00
3C00
7800
F000
FFE0
FFE0
ENDCHAR
STARTCHAR 0397
ENCODING 919
SWIDTH 823 0
DWIDTH 14 0
BBX 11 12 2 0
BITMAP
E1E0
E1E0
E1E0
E1E0
E1E0
FFE0
FFE0
E1E0
E1E0
E1E0
E1E0
E1E0
ENDCHAR
STARTCHAR 0398
ENCODING 920
SWIDTH 823 0
DWIDTH 14 0
BBX 13 12 1 0
BITMAP
1F80
3FE0
78F0
F070
E070
EF78
EF78
E070
F070
78F0
3FE0
1F80
ENDCHAR
STARTCHAR 0399
ENCODING 921
SWIDTH 352 0
DWIDTH 6 0
BBX 3 12 2 0
BITMAP
E0
E0
E0
E0
E0
E0
E0
E0
E0
E0
E0
E0
ENDCHAR
STARTCHAR 039A
ENCODING 922
SWIDTH 764 0
DWIDTH 13 0
BBX 11 12 2 0
BITMAP
E1E0
E3C0
E700
EE00
FC00
F800
FC00
FE00
EF00
E780
E3C0
E1E0
ENDCHAR
STARTCHAR 039B
ENCODING 923
SWIDTH 764 0
DWIDTH 13 0
BBX 13 12 0 0
BITMAP
0F80
0F80
0F80
1DC0
1DC0
1CE0
38E0
38E0
7870
7070
7078
E038
ENDCHAR
STARTCHAR 039C
ENCODING 924
SWIDTH 1000 0
DWIDTH 17 0
BBX 13 12 2 0
BITMAP
F078
F078
F8F8
F8F8
FDF8
EDB8
EDB8
EFB8
E738
E738
E038
E038
ENDCHAR
STARTCHAR 039D
ENCODING 925
SWIDTH 823 0
DWIDTH 14 0
BBX 11 12 2 0
BITMAP
E0E0
F0E0
F0E0
F8E0
FCE0
ECE0
EEE0
E6E0
E7E0
E3E0
E3E0
E1E0
ENDCHAR
STARTCHAR 039E
ENCODING 926
SWIDTH 647 0
DWIDTH 11 0
BBX 7 12 2 0
BITMAP
FE
FE
00
00
00
7C
7C
00
00
00
FE
FE
ENDCHAR
STARTCHAR 039F
ENCODING 927
SWIDTH 823 0
DWIDTH 14 0
BBX 13 12 1 0
BITMAP
1F80
3FE0
78F0
F070
E070
E078
E078
E070
F070
78F0
3FE0
1F80
ENDCHAR
STARTCHAR 03A0
ENCODING 928
SWIDTH 823 0
DWIDTH 14 0
BBX 11 12 2 0
BITMAP
FFE0
FFE0
E1E0
E1E0
E1E0
E1E0
E1E0
E1E0
E1E0
E1E0
E1E0
E1E0
ENDCHAR
STARTCHAR 03A1
ENCODING 929
SWIDTH 705 0
DWIDTH 12 0
BBX 10 12 2 0
BITMAP
FF00
FF80
E3C0
E3C0
E3C0
E3C0
FF80
FF00
E000
E000
E000
E000
ENDCHAR
STARTCHAR 03A3
ENCODING 931
SWIDTH 705 0
DWIDTH 12 0
BBX 8 12 2 0
BITMAP
FF
FF
E0
70
38
1E
1C
38
70
E0
FF
FF
ENDCHAR
STARTCHAR 03A4
ENCODING 932
SWIDTH 705 0
DWIDTH 12 0
BBX 12 12 0 0
BITMAP
FFF0
FFF0
0E00
0E00
0E00
0E00
0E00
0E00
0E00
0E00
0E00
0E00
ENDCHAR
STARTCHAR 03A5
ENCODING 933
SWIDTH 705 0
DWIDTH 12 0
BBX 12 12 0 0
BITMAP
F070
70E0
39E0
3DC0
1F80
0F80
0F00
0700
0700
0700
0700
0700
ENDCHAR
STARTCHAR 03A6
ENCODING 934
SWIDTH 823 0
DWIDTH 14 0
BBX 13 12 1 0
BITMAP
0700
1FC0
7FE0
F7F0
E770
E778
E778
E770
F7F0
7FE0
1FC0
0700
ENDCHAR
STARTCHAR 03A7
ENCODING 935
SWIDTH 764 0
DWIDTH 13 0
BBX 11 12 1 0
BITMAP
E0E0
71E0
7BC0
3B80
1F00
1F00
1F00
3F80
3B80
71C0
F1E0
E0E0
ENDCHAR
STARTCHAR 03A8
ENCODING 936
SWIDTH 823 0
DWIDTH 14 0
BBX 13 12 1 0
BITMAP
E778
E778
E778
E778
E770
E770
77F0
3FE0
1FC0
0700
0700
0700
ENDCHAR
STARTCHAR 03A9
ENCODING 937
SWIDTH 823 0
DWIDTH 14 0
BBX 14 12 0 0
BITMAP
0FC0
1FF0
3C78
7838
7038
703C
703C
7038
7838
3C70
FCFC
FCFC
ENDCHAR
STARTCHAR 03AA
ENCODING 938
SWIDTH 352 0
DWIDTH 6 0
BBX 5 16 1 0
BITMAP
D8
D8
00
00
70
70
70
70
70
70
70
70
70
70
70
70
ENDCHAR
STARTCHAR 03AB
ENCODING 939
SWIDTH 705 0
DWIDTH 12 0
BBX 12 16 0 0
BITMAP
0D80
0D80
0000
0000
F070
70E0
39E0
3DC0
1F80
0F80
0F00
0700
0700
0700
0700
0700
ENDCHAR
STARTCHAR 03AC
ENCODING 940
SWIDTH 705 0
DWIDTH 12 0
BBX 10 14 1 0
BITMAP
0600
0C00
1800
0000
0000
3FC0
7F80
E780
E380
E300
E700
E780
7FC0
3FC0
ENDCHAR
STARTCHAR 03AD
ENCODING 941
SWIDTH 529 0
DWIDTH 9 0
BBX 7 14 1 0
BITMAP
0E
0C
18
00
00
7C
FE
E2
7C
7C
E0
E2
FE
7E
ENDCHAR
STARTCHAR 03AE
ENCODING 942
SWIDTH 705 0
DWIDTH 12 0
BBX 10 18 1 -4
BITMAP
0700
0600
0C00
0000
0000
E700
EF80
F3C0
F1C0
E1C0
E1C0
E1C0
E1C0
E1C0
01C0
01C0
01C0
01C0
ENDCHAR
STARTCHAR 03AF
ENCODING 943
SWIDTH 411 0
DWIDTH 7 0
BBX 5 14 1 0
BITMAP
38
60
40
00
00
E0
E0
E0
E0
E0
E0
E0
F8
78
ENDCHAR
STARTCHAR 03B0
ENCODING 944
SWIDTH 647 0
DWIDTH 11 0
BBX 10 17 1 0
BITMAP
0600
0C00
1800
0000
3600
3600
0000
0000
E300
E380
E1C0
E1C0
E1C0
E1C0
E380
7F80
3F00
ENDCHAR
STARTCHAR 03B1
ENCODING 945
SWIDTH 705 0
DWIDTH 12 0
BBX 10 9 1 0
BITMAP
3FC0
7F80
E780
E380
E300
E700
E780
7FC0
3FC0
ENDCHAR
STARTCHAR 03B2
ENCODING 946
SWIDTH 705 0
DWIDTH 12 0
BBX 10 17 1 -4
BITMAP
1E00
3F80
7380
6380
E380
EF00
EF80
E3C0
E1C0
F1C0
F1C0
FFC0
E780
E000
E000
E000
E000
ENDCHAR
STARTCHAR 03B3
ENCODING 947
SWIDTH 705 0
DWIDTH 12 0
BBX 11 13 0 -4
BITMAP
E0E0
F0E0
39C0
39C0
1980
1F80
0F80
0F00
0F00
0700
0700
0700
0700
ENDCHAR
STARTCHAR 03B4
ENCODING 948
SWIDTH 705 0
DWIDTH 12 0
BBX 10 13 1 0
BITMAP
3F00
7F80
7080
7000
3E00
7F80
E3C0
E1C0
E1C0
E1C0
F3C0
7F80
3E00
ENDCHAR
STARTCHAR 03B5
ENCODING 949
SWIDTH 529 0
DWIDTH 9 0
BBX 7 9 1 0
BITMAP
7C
FE
E2
7C
7C
E0
E2
FE
7E
ENDCHAR
STARTCHAR 03B6
ENCODING 950
SWIDTH 588 0
DWIDTH 10 0
BBX 8 17 1 -4
BITMAP
FF
FF
0E
1C
30
70
E0
E0
E0
E0
F0
7E
3F
03
03
07
06
ENDCHAR
STARTCHAR 03B7
ENCODING 951
SWIDTH 705 0
DWIDTH 12 0
BBX 10 13 1 -4
BITMAP
E700
EF80
F3C0
F1C0
E1C0
E1C0
E1C0
E1C0
E1C0
01C0
01C0
01C0
01C0
ENDCHAR
STARTCHAR 03B8
ENCODING 952
SWIDTH 705 0
DWIDTH 12 0
BBX 10 13 1 0
BITMAP
3E00
7F80
F380
E1C0
E1C0
FFC0
FFC0
E1C0
E1C0
E3C0
F380
7F80
3E00
ENDCHAR
STARTCHAR 03B9
ENCODING 953
SWIDTH 411 0
DWIDTH 7 0
BBX 5 9 1 0
BITMAP
E0
E0
E0
E0
E0
E0
E0
F8
78
ENDCHAR
STARTCHAR 03BA
ENCODING 954
SWIDTH 705 0
DWIDTH 12 0
BBX 10 9 1 0
BITMAP
E380
E700
FE00
FC00
FE00
EF00
E700
E380
E3C0
ENDCHAR
STARTCHAR 03BB
ENCODING 955
SWIDTH 647 0
DWIDTH 11 0
BBX 9 13 1 0
BITMAP
F000
F800
3800
1C00
1C00
1C00
3E00
3E00
7700
7700
6700
E380
E380
ENDCHAR
STARTCHAR 03BC
ENCODING 956
SWIDTH 764 0
DWIDTH 13 0
BBX 11 13 1 -4
BITMAP
E1C0
E1C0
E1C0
E1C0
E1C0
E1C0
F3C0
FFE0
EEE0
E000
E000
E000
E000
ENDCHAR
STARTCHAR 03BD
ENCODING 957
SWIDTH 705 0
DWIDTH 12 0
BBX 11 9 0 0
BITMAP
E1C0
70C0
70E0
30E0
38E0
39C0
1F80
1F80
0F00
ENDCHAR
STARTCHAR 03BE
ENCODING 958
SWIDTH 588 0
DWIDTH 10 0
BBX 8 17 1 -4
BITMAP
FF
FF
70
70
70
1E
7E
F0
E0
E0
E0
7E
3F
03
03
07
06
ENDCHAR
STARTCHAR 03BF
ENCODING 959
SWIDTH 705 0
DWIDTH 12 0
BBX 10 9 1 0
BITMAP
3F00
7F80
E3C0
E1C0
E1C0
E1C0
E3C0
7F80
3F00
ENDCHAR
STARTCHAR 03C0
ENCODING 960
SWIDTH 764 0
DWIDTH 13 0
BBX 11 9 1 0
BITMAP
FFE0
FFE0
71C0
71C0
71C0
71C0
71C0
71E0
71E0
ENDCHAR
STARTCHAR 03C1
ENCODING 961
SWIDTH 705 0
DWIDTH 12 0
BBX 10 13 1 -4
BITMAP
1F00
3FC0
71C0
71C0
E1C0
F1C0
F1C0
FFC0
E700
E000
E000
E000
E000
ENDCHAR
STARTCHAR 03C2
ENCODING 962
SWIDTH 588 0
DWIDTH 10 0
BBX 8 13 1 -4
BITMAP
3E
7F
F1
E0
E0
E0
F0
7E
3F
03
03
07
06
ENDCHAR
STARTCHAR 03C3
ENCODING 963
SWIDTH 764 0
DWIDTH 13 0
BBX 11 9 1 0
BITMAP
3FE0
7FE0
E3C0
E1C0
E1C0
E1C0
E3C0
7F80
3E00
ENDCHAR
STARTCHAR 03C4
ENCODING 964
SWIDTH 647 0
DWIDTH 11 0
BBX 10 9 0 0
BITMAP
FFC0
FFC0
0E00
0E00
0E00
0E00
0E00
0F00
0F00
ENDCHAR
STARTCHAR 03C5
ENCODING 965
SWIDTH 647 0
DWIDTH 11 0
BBX 10 9 1 0
BITMAP
E300
E380
E1C0
E1C0
E1C0
E1C0
E380
7F80
3F00
ENDCHAR
STARTCHAR 03C6
ENCODING 966
SWIDTH 764 0
DWIDTH 13 0
BBX 11 13 1 -4
BITMAP
3380
77C0
FEE0
EEE0
EEE0
EEE0
FEE0
7FC0
3F80
0E00
0E00
0E00
0E00
ENDCHAR
STARTCHAR 03C7
ENCODING 967
SWIDTH 647 0
DWIDTH 11 0
BBX 11 13 0 -4
BITMAP
F1C0
F9C0
3B80
1F80
1F00
0F00
0E00
1E00
1F00
3F00
3B80
73E0
71E0
ENDCHAR
STARTCHAR 03C8
ENCODING 968
SWIDTH 823 0
DWIDTH 14 0
BBX 11 13 1 -4
BITMAP
EEE0
EEE0
EEE0
EEE0
EEE0
EEE0
FEE0
7FC0
3F80
0E00
0E00
0E00
0E00
ENDCHAR
STARTCHAR 03C9
ENCODING 969
SWIDTH 882 0
DWIDTH 15 0
BBX 13 9 1 0
BITMAP
7070
E030
E038
E738
E738
E738
E738
FDF0
79E0
ENDCHAR
STARTCHAR 03CA
ENCODING 970
SWIDTH 411 0
DWIDTH 7 0
BBX 6 13 0 0
BITMAP
CC
CC
00
00
70
70
70
70
70
70
78
7C
3C
ENDCHAR
STARTCHAR 03CB
ENCODING 971
SWIDTH 647 0
DWIDTH 11 0
BBX 10 13 1 0
BITMAP
3600
3600
0000
0000
E300
E380
E1C0
E1C0
E1C0
E1C0
E380
7F80
3F00
ENDCHAR
STARTCHAR 03CC
ENCODING 972
SWIDTH 705 0
DWIDTH 12 0
BBX 10 14 1 0
BITMAP
0600
0C00
1800
0000
0000
3F00
7F80
E3C0
E1C0
E1C0
E1C0
E3C0
7F80
3F00
ENDCHAR
STARTCHAR 03CD
ENCODING 973
SWIDTH 647 0
DWIDTH 11 0
BBX 10 14 1 0
BITMAP
0600
0C00
0800
0000
0000
E300
E380
E1C0
E1C0
E1C0
E1C0
E380
7F80
3F00
ENDCHAR
STARTCHAR 03CE
ENCODING 974
SWIDTH 882 0
DWIDTH 15 0
BBX 13 14 1 0
BITMAP
0180
0300
0600
0000
0000
7070
E030
E038
E738
E738
E738
E738
FDF0
79E0
ENDCHAR
STARTCHAR 03CF
ENCODING 975
SWIDTH 764 0
DWIDTH 13 0
BBX 11 16 2 -4
BITMAP
E3E0
E780
EF00
FE00
FC00
F800
FC00
FE00
EF00
E780
E3C0
E1E0
00E0
01C0
0380
0300
ENDCHAR
STARTCHAR 03D0
ENCODING 976
SWIDTH 647 0
DWIDTH 11 0
BBX 9 13 1 0
BITMAP
3E00
7F00
7300
E380
E300
FF00
FF00
E780
E380
E380
7380
7F80
3F00
ENDCHAR
STARTCHAR 03D1
ENCODING 977
SWIDTH 647 0
DWIDTH 11 0
BBX 9 13 1 0
BITMAP
3E00
7F00
7380
7380
7180
7F80
3F80
E180
E180
E380
F380
7F00
3E00
ENDCHAR
STARTCHAR 03D2
ENCODING 978
SWIDTH 764 0
DWIDTH 13 0
BBX 13 12 0 1
BITMAP
F8F0
FDF8
1FF0
0F80
0F00
0F00
0700
0700
0700
0700
0700
0700
ENDCHAR
STARTCHAR 03D3
ENCODING 979
SWIDTH 1000 0
DWIDTH 17 0
BBX 17 14 0 0
BITMAP
300000
600000
CF8F00
0FDF80
01FF00
00F800
00F000
00F000
007000
007000
007000
007000
007000
007000
ENDCHAR
STARTCHAR 03D4
ENCODING 980
SWIDTH 764 0
DWIDTH 13 0
BBX 13 16 0 0
BITMAP
0980
0980
0000
0000
F8F0
FDF8
1FF0
0F80
0F00
0F00
0700
0700
0700
0700
0700
0700
ENDCHAR
STARTCHAR 03D5
ENCODING 981
SWIDTH 823 0
DWIDTH 14 0
BBX 11 17 1 -4
BITMAP
0E00
0E00
0E00
0E00
7FC0
7FE0
EEE0
EEE0
EEE0
EEE0
FEE0
7FC0
3F80
0E00
0E00
0E00
0E00
ENDCHAR
STARTCHAR 03D6
ENCODING 982
SWIDTH 882 0
DWIDTH 15 0
BBX 14 9 0 0
BITMAP
FFFC
FFFC
701C
739C
739C
739C
77BC
7EF8
3EF8
ENDCHAR
STARTCHAR 03D7
ENCODING 983
SWIDTH 764 0
DWIDTH 13 0
BBX 11 12 1 -3
BITMAP
F1E0
F9E0
1BC0
1F80
3F00
7B00
F300
F3C0
E3C0
00C0
07C0
0780
ENDCHAR
STARTCHAR 03D8
ENCODING 984
SWIDTH 823 0
DWIDTH 14 0
BBX 13 17 1 -4
BITMAP
0700
3FC0
7FE0
70F0
F070
E078
E078
E078
E070
F070
78F0
3FE0
1FC0
0700
0700
0700
0700
ENDCHAR
STARTCHAR 03D9
ENCODING 985
SWIDTH 705 0
DWIDTH 12 0
BBX 10 14 1 -4
BITMAP
0800
7F00
FF80
E3C0
E1C0
E1C0
E1C0
E3C0
7F80
3F00
1E00
1E00
1E00
1E00
ENDCHAR
STARTCHAR 03DA
ENCODING 986
SWIDTH 705 0
DWIDTH 12 0
BBX 11 15 1 -4
BITMAP
3FE0
7FE0
7000
F000
E000
E000
E000
E000
F000
7800
3F00
1F80
0180
0180
0300
ENDCHAR
STARTCHAR 03DB
ENCODING 987
SWIDTH 588 0
DWIDTH 10 0
BBX 8 13 1 -4
BITMAP
7F
7F
E0
E0
E0
E0
F0
7C
3E
06
06
0E
08
ENDCHAR
STARTCHAR 03DC
ENCODING 988
SWIDTH 705 0
DWIDTH 12 0
BBX 8 12 2 0
BITMAP
FF
FF
E0
E0
E0
FF
FF
E0
E0
E0
E0
E0
ENDCHAR
STARTCHAR 03DD
ENCODING 989
SWIDTH 470 0
DWIDTH 8 0
BBX 8 17 -1 -4
BITMAP
0F
1F
1C
1C
18
18
1F
1F
18
18
18
18
18
38
B8
F8
20
ENDCHAR
STARTCHAR 03DE
ENCODING 990
SWIDTH 705 0
DWIDTH 12 0
BBX 10 12 1 0
BITMAP
F000
F000
3000
70C0
7780
7F80
7F80
FB00
C300
0700
07C0
03C0
ENDCHAR
STARTCHAR 03DF
ENCODING 991
SWIDTH 647 0
DWIDTH 11 0
BBX 9 13 1 0
BITMAP
1800
3800
3800
3000
7000
7F80
7F00
FF00
0700
0600
0600
0E00
0C00
ENDCHAR
STARTCHAR 03E0
ENCODING 992
SWIDTH 941 0
DWIDTH 16 0
BBX 13 17 1 -4
BITMAP
1E00
7F80
FFE0
B0F0
31F0
33B8
3738
0738
0738
0738
0738
0738
0738
0038
0030
0070
00E0
ENDCHAR
STARTCHAR 03E1
ENCODING 993
SWIDTH 647 0
DWIDTH 11 0
BBX 8 12 1 -2
BITMAP
F0
F8
3C
1E
1E
37
6F
FF
DB
03
03
03
ENDCHAR
STARTCHAR 03E2
ENCODING 994
SWIDTH 1117 0
DWIDTH 19 0
BBX 17 16 1 -4
BITMAP
380E00
700F00
700700
E00700
E00780
E1C780
E1C780
E1C780
E3C780
F3EF00
7F7F00
3E3E00
001E00
007800
03E000
010000
ENDCHAR
STARTCHAR 03E3
ENCODING 995
SWIDTH 823 0
DWIDTH 14 0
BBX 12 12 1 -4
BITMAP
6060
E070
E070
E670
E670
E670
EF70
7FF0
39E0
00C0
0380
1E00
ENDCHAR
STARTCHAR 03E4
ENCODING 996
SWIDTH 823 0
DWIDTH 14 0
BBX 12 17 1 -4
BITMAP
0C00
3CF0
7CF0
F0F0
E0F0
E0F0
E0F0
E0F0
E0F0
F0F0
71F0
7FF0
3EF0
00F0
00F0
00F0
00F0
ENDCHAR
STARTCHAR 03E5
ENCODING 997
SWIDTH 705 0
DWIDTH 12 0
BBX 10 14 1 -4
BITMAP
0800
79C0
F9C0
E1C0
E1C0
E1C0
E1C0
E3C0
7FC0
7DC0
01C0
01C0
01C0
01C0
ENDCHAR
STARTCHAR 03E6
ENCODING 998
SWIDTH 941 0
DWIDTH 16 0
BBX 13 15 2 -4
BITMAP
E000
E000
E000
EFE0
FFF0
F0F0
E078
E038
E038
E038
E070
E0F0
01E0
0FC0
1F00
ENDCHAR
STARTCHAR 03E7
ENCODING 999
SWIDTH 764 0
DWIDTH 13 0
BBX 12 10 0 0
BITMAP
0420
1FF0
3FE0
71E0
7FE0
3F60
0070
0060
FFE0
7FC0
ENDCHAR
STARTCHAR 03E8
ENCODING 1000
SWIDTH 705 0
DWIDTH 12 0
BBX 11 17 1 -4
BITMAP
0E00
3F80
7FC0
F1E0
00E0
00E0
01C0
03C0
0780
0F00
1E00
3C00
F820
F0E0
7FE0
1FC0
0400
ENDCHAR
STARTCHAR 03E9
ENCODING 1001
SWIDTH 647 0
DWIDTH 11 0
BBX 9 14 1 -4
BITMAP
0800
7F00
7780
E180
0180
0380
0700
0E00
1C00
7800
E000
7B80
3F80
0400
ENDCHAR
STARTCHAR 03EA
ENCODING 1002
SWIDTH 764 0
DWIDTH 13 0
BBX 12 13 1 0
BITMAP
C060
F0F0
F1F0
3BC0
3F80
1F00
0F00
1F00
3F80
3BC0
71E0
FFE0
FFE0
ENDCHAR
STARTCHAR 03EB
ENCODING 1003
SWIDTH 647 0
DWIDTH 11 0
BBX 10 10 1 0
BITMAP
0080
F3C0
F7C0
3E00
1E00
1E00
3E00
7700
FFC0
FFC0
ENDCHAR
STARTCHAR 03EC
ENCODING 1004
SWIDTH 764 0
DWIDTH 13 0
BBX 11 13 1 0
BITMAP
0060
3FE0
7800
F200
EFC0
FFC0
F1E0
E1E0
E0E0
E1E0
F1E0
7FC0
3F80
ENDCHAR
STARTCHAR 03ED
ENCODING 1005
SWIDTH 705 0
DWIDTH 12 0
BBX 10 13 1 0
BITMAP
00C0
1FC0
7800
7200
6F80
7FC0
F1C0
E1C0
E1C0
71C0
71C0
7FC0
1F80
ENDCHAR
STARTCHAR 03EE
ENCODING 1006
SWIDTH 705 0
DWIDTH 12 0
BBX 11 16 0 -4
BITMAP
0E00
0E00
0E00
FFE0
FFE0
EE60
0E00
0E00
0E00
0E00
0E00
0E00
0E00
0E00
0E00
0E00
ENDCHAR
STARTCHAR 03EF
ENCODING 1007
SWIDTH 588 0
DWIDTH 10 0
BBX 10 16 0 -4
BITMAP
0E00
0E00
0E00
FFC0
FFC0
CEC0
0E00
0E00
0E00
0E00
0E00
0E00
0E00
0E00
0E00
0E00
ENDCHAR
STARTCHAR 03F0
ENCODING 1008
SWIDTH 764 0
DWIDTH 13 0
BBX 11 9 1 0
BITMAP
F1E0
F9E0
1BC0
1F80
3F00
7B00
F300
F3C0
E1C0
ENDCHAR
STARTCHAR 03F1
ENCODING 1009
SWIDTH 705 0
DWIDTH 12 0
BBX 10 14 1 -4
BITMAP
0600
3F80
7FC0
71C0
E1C0
E1C0
F1C0
F1C0
FFC0
EF80
E000
7000
7FC0
1FC0
ENDCHAR
STARTCHAR 03F2
ENCODING 1010
SWIDTH 588 0
DWIDTH 10 0
BBX 8 9 1 0
BITMAP
3E
7F
F1
E0
E0
E0
F1
7F
3E
ENDCHAR
STARTCHAR 03F3
ENCODING 1011
SWIDTH 352 0
DWIDTH 6 0
BBX 5 17 -1 -4
BITMAP
38
38
38
00
38
38
38
38
38
38
38
38
38
38
38
F8
F0
ENDCHAR
STARTCHAR 03F4
ENCODING 1012
SWIDTH 823 0
DWIDTH 14 0
BBX 13 12 1 0
BITMAP
1F80
3FE0
78F0
F070
E070
FFF8
FFF8
E070
F070
70F0
3FE0
1F80
ENDCHAR
STARTCHAR 03F5
ENCODING 1013
SWIDTH 647 0
DWIDTH 11 0
BBX 8 10 1 0
BITMAP
04
3F
7B
E0
FF
FF
E0
70
7F
3F
ENDCHAR
STARTCHAR 03F6
ENCODING 1014
SWIDTH 647 0
DWIDTH 11 0
BBX 9 10 1 0
BITMAP
1000
FE00
CF00
0700
FF80
FF80
0700
0700
FF00
FC00
ENDCHAR
STARTCHAR 03F7
ENCODING 1015
SWIDTH 764 0
DWIDTH 13 0
BBX 10 12 2 0
BITMAP
E000
E000
FF00
FF80
E3C0
E3C0
E3C0
E3C0
FF80
FF00
E000
E000
ENDCHAR
STARTCHAR 03F8
ENCODING 1016
SWIDTH 705 0
DWIDTH 12 0
BBX 10 17 1 -4
BITMAP
E000
E000
E000
E000
E700
EFC0
F1C0
F1C0
E1C0
F1C0
F1C0
EFC0
E700
E000
E000
E000
E000
ENDCHAR
STARTCHAR 03F9
ENCODING 1017
SWIDTH 705 0
DWIDTH 12 0
BBX 10 12 1 0
BITMAP
0FC0
3FC0
7840
F000
E000
E000
E000
E000
F000
7840
3FC0
0FC0
ENDCHAR
STARTCHAR 03FA
ENCODING 1018
SWIDTH 1000 0
DWIDTH 17 0
BBX 13 12 2 0
BITMAP
F078
F8F8
FDF8
FFF8
EFB8
E738
E638
E038
E038
E038
E038
E038
ENDCHAR
STARTCHAR 03FB
ENCODING 1019
SWIDTH 705 0
DWIDTH 12 0
BBX 10 13 1 -4
BITMAP
F3C0
FFC0
FFC0
EDC0
E1C0
E1C0
E1C0
E1C0
E1C0
E000
E000
E000
E000
ENDCHAR
STARTCHAR 03FC
ENCODING 1020
SWIDTH 705 0
DWIDTH 12 0
BBX 10 14 1 -4
BITMAP
0600
3F80
7FC0
71C0
E1C0
E1C0
F1C0
F1C0
FFC0
EF80
E000
FE00
FE00
E000
ENDCHAR
STARTCHAR 03FD
ENCODING 1021
SWIDTH 705 0
DWIDTH 12 0
BBX 10 13 1 0
BITMAP
3800
FF00
FF80
0380
03C0
01C0
01C0
01C0
01C0
03C0
8780
FF00
FE00
ENDCHAR
STARTCHAR 03FE
ENCODING 1022
SWIDTH 705 0
DWIDTH 12 0
BBX 10 12 1 0
BITMAP
0FC0
3FC0
7840
F000
E700
E700
E700
E000
F000
7840
3FC0
0FC0
ENDCHAR
STARTCHAR 03FF
ENCODING 1023
SWIDTH 705 0
DWIDTH 12 0
BBX 10 13 1 0
BITMAP
3800
FF00
FF80
0380
03C0
39C0
39C0
39C0
01C0
03C0
8780
FF00
FE00
ENDCHAR
STARTCHAR 0400
ENCODING 1024
SWIDTH 705 0
DWIDTH 12 0
BBX 8 15 2 0
BITMAP
18
0C
00
FF
FF
E0
E0
E0
FF
FF
E0
E0
E0
FF
FF
ENDCHAR
STARTCHAR 0401
ENCODING 1025
SWIDTH 705 0
DWIDTH 12 0
BBX 8 16 2 0
BITMAP
6C
6C
00
00
FF
FF
E0
E0
E0
FF
FF
E0
E0
E0
FF
FF
ENDCHAR
STARTCHAR 0402
ENCODING 1026
SWIDTH 882 0
DWIDTH 15 0
BBX 14 15 0 -3
BITMAP
FFC0
FFC0
1C00
1C00
1FE0
1FF8
1FF8
1C3C
1C3C
1C3C
1C3C
1C3C
0038
00F8
00F0
ENDCHAR
STARTCHAR 0403
ENCODING 1027
SWIDTH 647 0
DWIDTH 11 0
BBX 8 15 2 0
BITMAP
0C
18
00
FF
FF
E0
E0
E0
E0
E0
E0
E0
E0
E0
E0
ENDCHAR
STARTCHAR 0404
ENCODING 1028
SWIDTH 705 0
DWIDTH 12 0
BBX 10 12 1 0
BITMAP
0FC0
3FC0
7840
F000
E000
FF80
FF80
E000
F000
7840
3FC0
0FC0
ENDCHAR
STARTCHAR 0405
ENCODING 1029
SWIDTH 705 0
DWIDTH 12 0
BBX 10 12 1 0
BITMAP
3F80
7F80
E080
E000
F000
7F00
3FC0
07C0
01C0
C1C0
FF80
7F00
ENDCHAR
STARTCHAR 0406
ENCODING 1030
SWIDTH 352 0
DWIDTH 6 0
BBX 3 12 2 0
BITMAP
E0
E0
E0
E0
E0
E0
E0
E0
E0
E0
E0
E0
ENDCHAR
STARTCHAR 0407
ENCODING 1031
SWIDTH 352 0
DWIDTH 6 0
BBX 5 16 1 0
BITMAP
98
98
00
00
70
70
70
70
70
70
70
70
70
70
70
70
ENDCHAR
STARTCHAR 0408
ENCODING 1032
SWIDTH 352 0
DWIDTH 6 0
BBX 6 15 -1 -3
BITMAP
1C
1C
1C
1C
1C
1C
1C
1C
1C
1C
1C
1C
3C
F8
F0
ENDCHAR
STARTCHAR 0409
ENCODING 1033
SWIDTH 1176 0
DWIDTH 20 0
BBX 18 12 1 0
BITMAP
1FF000
1FF000
1CF000
1CF000
1CFE00
1CFF80
1CFF80
3CF3C0
38F1C0
F8F3C0
F0FF80
C0FF00
ENDCHAR
STARTCHAR 040A
ENCODING 1034
SWIDTH 1117 0
DWIDTH 19 0
BBX 16 12 2 0
BITMAP
E1C0
E1C0
E1C0
E1C0
FFF8
FFFE
FFFF
E1C7
E1C7
E1CF
E1FE
E1FC
ENDCHAR
STARTCHAR 040B
ENCODING 1035
SWIDTH 882 0
DWIDTH 15 0
BBX 14 12 0 0
BITMAP
FFC0
FFC0
1C00
1C00
1FE0
1FF8
1FF8
1C3C
1C3C
1C3C
1C3C
1C3C
ENDCHAR
STARTCHAR 040C
ENCODING 1036
SWIDTH 823 0
DWIDTH 14 0
BBX 11 15 2 0
BITMAP
0600
0C00
0000
E1E0
E3C0
E780
EF00
FE00
FE00
FF00
F700
E380
E3C0
E1E0
E0E0
ENDCHAR
STARTCHAR 040D
ENCODING 1037
SWIDTH 823 0
DWIDTH 14 0
BBX 11 15 2 0
BITMAP
1800
0C00
0000
E1E0
E3E0
E3E0
E7E0
E6E0
EEE0
ECE0
FCE0
F8E0
F0E0
F0E0
E0E0
ENDCHAR
STARTCHAR 040E
ENCODING 1038
SWIDTH 764 0
DWIDTH 13 0
BBX 11 15 1 0
BITMAP
1100
0F00
0000
E0E0
F0E0
71C0
79C0
3B80
3B80
1F00
1F00
0E00
0E00
7C00
7800
ENDCHAR
STARTCHAR 040F
ENCODING 1039
SWIDTH 823 0
DWIDTH 14 0
BBX 11 15 2 -3
BITMAP
E1E0
E1E0
E1E0
E1E0
E1E0
E1E0
E1E0
E1E0
E1E0
E1E0
FFE0
FFE0
0C00
0C00
0C00
ENDCHAR
STARTCHAR 0410
ENCODING 1040
SWIDTH 764 0
DWIDTH 13 0
BBX 13 12 0 0
BITMAP
0F80
0F80
0F80
1DC0
1DC0
18E0
38E0
3FE0
7FF0
7070
7078
E038
ENDCHAR
STARTCHAR 0411
ENCODING 1041
SWIDTH 764 0
DWIDTH 13 0
BBX 10 12 2 0
BITMAP
FF80
FF80
E000
E000
E000
FF00
FF80
E3C0
E1C0
E3C0
FF80
FF00
ENDCHAR
STARTCHAR 0412
ENCODING 1042
SWIDTH 764 0
DWIDTH 13 0
BBX 10 12 2 0
BITMAP
FF00
FF80
E380
E380
E380
FF00
FF80
E3C0
E1C0
E3C0
FF80
FF00
ENDCHAR
STARTCHAR 0413
ENCODING 1043
SWIDTH 647 0
DWIDTH 11 0
BBX 8 12 2 0
BITMAP
FF
FF
E0
E0
E0
E0
E0
E0
E0
E0
E0
E0
ENDCHAR
STARTCHAR 0414
ENCODING 1044
SWIDTH 882 0
DWIDTH 15 0
BBX 13 15 1 -3
BITMAP
3FE0
3FE0
38E0
38E0
38E0
38E0
38E0
38E0
38E0
38E0
FFF8
FFF8
C018
C018
C018
ENDCHAR
STARTCHAR 0415
ENCODING 1045
SWIDTH 705 0
DWIDTH 12 0
BBX 8 12 2 0
BITMAP
FF
FF
E0
E0
E0
FF
FF
E0
E0
E0
FF
FF
ENDCHAR
STARTCHAR 0416
ENCODING 1046
SWIDTH 1235 0
DWIDTH 21 0
BBX 19 12 1 0
BITMAP
F0E1E0
78E3C0
38E780
1CEF00
0EFE00
0FFE00
1FFF00
3DF700
38E380
70E3C0
F0E1E0
E0E0E0
ENDCHAR
STARTCHAR 0417
ENCODING 1047
SWIDTH 705 0
DWIDTH 12 0
BBX 10 12 1 0
BITMAP
3F00
FF80
83C0
03C0
0380
3F00
3F80
03C0
01C0
83C0
FF80
7F00
ENDCHAR
STARTCHAR 0418
ENCODING 1048
SWIDTH 823 0
DWIDTH 14 0
BBX 11 12 2 0
BITMAP
E1E0
E3E0
E3E0
E7E0
E6E0
EEE0
ECE0
FCE0
F8E0
F0E0
F0E0
E0E0
ENDCHAR
STARTCHAR 0419
ENCODING 1049
SWIDTH 823 0
DWIDTH 14 0
BBX 11 15 2 0
BITMAP
3300
1E00
0000
E1E0
E3E0
E3E0
E7E0
E6E0
EEE0
ECE0
FCE0
F8E0
F0E0
F0E0
E0E0
ENDCHAR
STARTCHAR 041A
ENCODING 1050
SWIDTH 823 0
DWIDTH 14 0
BBX 11 12 2 0
BITMAP
E1E0
E3C0
E780
EF00
FE00
FE00
FF00
F700
E380
E3C0
E1E0
E0E0
ENDCHAR
STARTCHAR 041B
ENCODING 1051
SWIDTH 823 0
DWIDTH 14 0
BBX 12 12 1 0
BITMAP
1FF0
1FF0
1CF0
1CF0
1CF0
1CF0
1CF0
3CF0
38F0
78F0
F0F0
C0F0
ENDCHAR
STARTCHAR 041C
ENCODING 1052
SWIDTH 1000 0
DWIDTH 17 0
BBX 13 12 2 0
BITMAP
F078
F078
F8F8
F8F8
FDF8
EDB8
EDB8
EFB8
E738
E738
E038
E038
ENDCHAR
STARTCHAR 041D
ENCODING 1053
SWIDTH 823 0
DWIDTH 14 0
BBX 11 12 2 0
BITMAP
E1E0
E1E0
E1E0
E1E0
E1E0
FFE0
FFE0
E1E0
E1E0
E1E0
E1E0
E1E0
ENDCHAR
STARTCHAR 041E
ENCODING 1054
SWIDTH 823 0
DWIDTH 14 0
BBX 13 12 1 0
BITMAP
1F80
3FE0
78F0
F070
E070
E078
E078
E070
F070
78F0
3FE0
1F80
ENDCHAR
STARTCHAR 041F
ENCODING 1055
SWIDTH 823 0
DWIDTH 14 0
BBX 11 12 2 0
BITMAP
FFE0
FFE0
E1E0
E1E0
E1E0
E1E0
E1E0
E1E0
E1E0
E1E0
E1E0
E1E0
ENDCHAR
STARTCHAR 0420
ENCODING 1056
SWIDTH 705 0
DWIDTH 12 0
BBX 10 12 2 0
BITMAP
FF00
FF80
E3C0
E3C0
E3C0
E3C0
FF80
FF00
E000
E000
E000
E000
ENDCHAR
STARTCHAR 0421
ENCODING 1057
SWIDTH 705 0
DWIDTH 12 0
BBX 10 12 1 0
BITMAP
0FC0
3FC0
7840
F000
E000
E000
E000
E000
F000
7840
3FC0
0FC0
ENDCHAR
STARTCHAR 0422
ENCODING 1058
SWIDTH 705 0
DWIDTH 12 0
BBX 12 12 0 0
BITMAP
FFF0
FFF0
0E00
0E00
0E00
0E00
0E00
0E00
0E00
0E00
0E00
0E00
ENDCHAR
STARTCHAR 0423
ENCODING 1059
SWIDTH 764 0
DWIDTH 13 0
BBX 11 12 1 0
BITMAP
E0E0
F0E0
71C0
79C0
3B80
3B80
1F00
1F00
0E00
0E00
7C00
7800
ENDCHAR
STARTCHAR 0424
ENCODING 1060
SWIDTH 1000 0
DWIDTH 17 0
BBX 15 12 1 0
BITMAP
0380
1FF0
7FFC
F39C
E39E
E38E
E38E
E39E
F39C
7FFC
1FF0
0380
ENDCHAR
STARTCHAR 0425
ENCODING 1061
SWIDTH 764 0
DWIDTH 13 0
BBX 11 12 1 0
BITMAP
E0E0
71E0
7BC0
3B80
1F00
1F00
1F00
3F80
3B80
71C0
F1E0
E0E0
ENDCHAR
STARTCHAR 0426
ENCODING 1062
SWIDTH 941 0
DWIDTH 16 0
BBX 13 15 2 -3
BITMAP
E1E0
E1E0
E1E0
E1E0
E1E0
E1E0
E1E0
E1E0
E1E0
E1E0
FFF8
FFF8
0038
0038
0038
ENDCHAR
STARTCHAR 0427
ENCODING 1063
SWIDTH 823 0
DWIDTH 14 0
BBX 11 12 1 0
BITMAP
F0E0
F0E0
F0E0
F0E0
F0E0
7FE0
3FE0
00E0
00E0
00E0
00E0
00E0
ENDCHAR
STARTCHAR 0428
ENCODING 1064
SWIDTH 1235 0
DWIDTH 21 0
BBX 17 12 2 0
BITMAP
E1C380
E1C380
E1C380
E1C380
E1C380
E1C380
E1C380
E1C380
E1C380
E1C380
FFFF80
FFFF80
ENDCHAR
STARTCHAR 0429
ENCODING 1065
SWIDTH 1352 0
DWIDTH 23 0
BBX 20 15 2 -3
BITMAP
E1C380
E1C380
E1C380
E1C380
E1C380
E1C380
E1C380
E1C380
E1C380
E1C380
FFFFF0
FFFFF0
000070
000070
000070
ENDCHAR
STARTCHAR 042A
ENCODING 1066
SWIDTH 941 0
DWIDTH 16 0
BBX 14 12 1 0
BITMAP
FE00
FE00
0E00
0E00
0FE0
0FF8
0FFC
0E1C
0E1C
0E3C
0FF8
0FF0
ENDCHAR
STARTCHAR 042B
ENCODING 1067
SWIDTH 1058 0
DWIDTH 18 0
BBX 14 12 2 0
BITMAP
E01C
E01C
E01C
E01C
FF1C
FF9C
E3DC
E1DC
E1DC
E3DC
FF9C
FF1C
ENDCHAR
STARTCHAR 042C
ENCODING 1068
SWIDTH 764 0
DWIDTH 13 0
BBX 10 12 2 0
BITMAP
E000
E000
E000
E000
FF00
FF80
E3C0
E1C0
E1C0
E3C0
FF80
FF00
ENDCHAR
STARTCHAR 042D
ENCODING 1069
SWIDTH 705 0
DWIDTH 12 0
BBX 11 13 1 0
BITMAP
3800
FF00
FF80
83C0
01C0
01E0
3FE0
3FE0
01C0
01C0
83C0
FF80
FE00
ENDCHAR
STARTCHAR 042E
ENCODING 1070
SWIDTH 1176 0
DWIDTH 20 0
BBX 17 12 2 0
BITMAP
E0FC00
E3FE00
E78F00
E70780
EF0380
FF0380
FF0380
EF0380
E70780
E78F00
E3FE00
E0FC00
ENDCHAR
STARTCHAR 042F
ENCODING 1071
SWIDTH 764 0
DWIDTH 13 0
BBX 11 12 1 0
BITMAP
3FE0
7FE0
71E0
71E0
71E0
71E0
1FE0
1FE0
3DE0
39E0
79E0
F1E0
ENDCHAR
STARTCHAR 0430
ENCODING 1072
SWIDTH 647 0
DWIDTH 11 0
BBX 9 9 1 0
BITMAP
7E00
7F80
0380
7F80
FF80
E380
E380
FF80
7B80
ENDCHAR
STARTCHAR 0431
ENCODING 1073
SWIDTH 705 0
DWIDTH 12 0
BBX 10 13 1 0
BITMAP
1F00
7F80
E000
C000
FF00
FF80
F3C0
E1C0
E1C0
E1C0
F3C0
7F80
3F00
ENDCHAR
STARTCHAR 0432
ENCODING 1074
SWIDTH 647 0
DWIDTH 11 0
BBX 9 9 1 0
BITMAP
FF00
FF00
E380
FF00
FF00
E380
E380
FF80
FF00
ENDCHAR
STARTCHAR 0433
ENCODING 1075
SWIDTH 529 0
DWIDTH 9 0
BBX 7 9 1 0
BITMAP
FE
FE
E0
E0
E0
E0
E0
E0
E0
ENDCHAR
STARTCHAR 0434
ENCODING 1076
SWIDTH 823 0
DWIDTH 14 0
BBX 12 11 1 -2
BITMAP
3FC0
3FC0
39C0
39C0
39C0
39C0
79C0
FFF0
FFF0
C030
C030
ENDCHAR
STARTCHAR 0435
ENCODING 1077
SWIDTH 705 0
DWIDTH 12 0
BBX 10 9 1 0
BITMAP
3E00
7F80
E380
FFC0
FFC0
E000
F080
7F80
3F00
ENDCHAR
STARTCHAR 0436
ENCODING 1078
SWIDTH 1000 0
DWIDTH 17 0
BBX 15 9 1 0
BITMAP
E38E
73BC
3BF8
1FF0
1FF0
3BB8
739C
E39C
E38E
ENDCHAR
STARTCHAR 0437
ENCODING 1079
SWIDTH 588 0
DWIDTH 10 0
BBX 8 9 1 0
BITMAP
7E
FE
87
7E
7E
07
87
FF
7C
ENDCHAR
STARTCHAR 0438
ENCODING 1080
SWIDTH 705 0
DWIDTH 12 0
BBX 9 9 1 0
BITMAP
E380
E780
E780
EF80
ED80
FD80
F980
F180
F180
ENDCHAR
STARTCHAR 0439
ENCODING 1081
SWIDTH 705 0
DWIDTH 12 0
BBX 9 13 1 0
BITMAP
3300
1E00
0000
0000
E380
E780
E780
EF80
ED80
FD80
F980
F180
F180
ENDCHAR
STARTCHAR 043A
ENCODING 1082
SWIDTH 705 0
DWIDTH 12 0
BBX 10 9 1 0
BITMAP
E380
E700
EE00
FC00
FE00
FE00
E700
E380
E1C0
ENDCHAR
STARTCHAR 043B
ENCODING 1083
SWIDTH 705 0
DWIDTH 12 0
BBX 10 9 1 0
BITMAP
3FC0
3FC0
39C0
39C0
39C0
39C0
79C0
F1C0
E1C0
ENDCHAR
STARTCHAR 043C
ENCODING 1084
SWIDTH 823 0
DWIDTH 14 0
BBX 11 9 1 0
BITMAP
F0E0
F9E0
F9E0
FBE0
EFE0
EFE0
E6E0
E0E0
E0E0
ENDCHAR
STARTCHAR 043D
ENCODING 1085
SWIDTH 705 0
DWIDTH 12 0
BBX 9 9 1 0
BITMAP
E380
E380
E380
FF80
FF80
E380
E380
E380
E380
ENDCHAR
STARTCHAR 043E
ENCODING 1086
SWIDTH 705 0
DWIDTH 12 0
BBX 10 9 1 0
BITMAP
3F00
7F80
E3C0
E1C0
E1C0
E1C0
E3C0
7F80
3F00
ENDCHAR
STARTCHAR 043F
ENCODING 1087
SWIDTH 705 0
DWIDTH 12 0
BBX 9 9 1 0
BITMAP
FF80
FF80
E380
E380
E380
E380
E380
E380
E380
ENDCHAR
STARTCHAR 0440
ENCODING 1088
SWIDTH 705 0
DWIDTH 12 0
BBX 10 13 1 -4
BITMAP
E700
EFC0
F1C0
F1C0
E1C0
F1C0
F1C0
EFC0
E700
E000
E000
E000
E000
ENDCHAR
STARTCHAR 0441
ENCODING 1089
SWIDTH 588 0
DWIDTH 10 0
BBX 8 9 1 0
BITMAP
3E
7F
F1
E0
E0
E0
F1
7F
3E
ENDCHAR
STARTCHAR 0442
ENCODING 1090
SWIDTH 588 0
DWIDTH 10 0
BBX 10 9 0 0
BITMAP
FFC0
FFC0
1C00
1C00
1C00
1C00
1C00
1C00
1C00
ENDCHAR
STARTCHAR 0443
ENCODING 1091
SWIDTH 647 0
DWIDTH 11 0
BBX 11 13 0 -4
BITMAP
E0E0
71C0
71C0
3980
3B80
1B80
1F00
1F00
0E00
0E00
0E00
3C00
3800
ENDCHAR
STARTCHAR 0444
ENCODING 1092
SWIDTH 1000 0
DWIDTH 17 0
BBX 15 17 1 -4
BITMAP
0380
0380
0380
0380
3BB8
7FFC
F39E
E38E
E38E
E38E
F39E
7FFC
3BB8
0380
0380
0380
0380
ENDCHAR
STARTCHAR 0445
ENCODING 1093
SWIDTH 647 0
DWIDTH 11 0
BBX 9 9 1 0
BITMAP
E380
7700
7700
3E00
1C00
3E00
7700
E780
E380
ENDCHAR
STARTCHAR 0446
ENCODING 1094
SWIDTH 764 0
DWIDTH 13 0
BBX 11 11 1 -2
BITMAP
E380
E380
E380
E380
E380
E380
E380
FFE0
FFE0
0060
0060
ENDCHAR
STARTCHAR 0447
ENCODING 1095
SWIDTH 705 0
DWIDTH 12 0
BBX 9 9 1 0
BITMAP
E380
E380
E380
E380
FF80
7F80
0380
0380
0380
ENDCHAR
STARTCHAR 0448
ENCODING 1096
SWIDTH 1058 0
DWIDTH 18 0
BBX 16 9 1 0
BITMAP
E387
E387
E387
E387
E387
E387
E387
FFFF
FFFF
ENDCHAR
STARTCHAR 0449
ENCODING 1097
SWIDTH 1117 0
DWIDTH 19 0
BBX 17 11 1 -2
BITMAP
E38700
E38700
E38700
E38700
E38700
E38700
E38700
FFFF80
FFFF80
000180
000180
ENDCHAR
STARTCHAR 044A
ENCODING 1098
SWIDTH 764 0
DWIDTH 13 0
BBX 12 9 0 0
BITMAP
FC00
FC00
0C00
0FC0
0FF0
0C70
0C70
0FF0
0FE0
ENDCHAR
STARTCHAR 044B
ENCODING 1099
SWIDTH 882 0
DWIDTH 15 0
BBX 13 9 1 0
BITMAP
E038
E038
E038
FF38
FFB8
E3B8
E3B8
FFB8
FF38
ENDCHAR
STARTCHAR 044C
ENCODING 1100
SWIDTH 647 0
DWIDTH 11 0
BBX 9 9 1 0
BITMAP
E000
E000
E000
FF00
FF80
E380
E380
FF80
FF00
ENDCHAR
STARTCHAR 044D
ENCODING 1101
SWIDTH 588 0
DWIDTH 10 0
BBX 8 9 1 1
BITMAP
FE
FF
07
7F
7F
07
0F
FE
FC
ENDCHAR
STARTCHAR 044E
ENCODING 1102
SWIDTH 1000 0
DWIDTH 17 0
BBX 15 9 1 0
BITMAP
E1F0
E3FC
E71C
E70E
FF0E
E70E
E71C
E3FC
E1F0
ENDCHAR
STARTCHAR 044F
ENCODING 1103
SWIDTH 647 0
DWIDTH 11 0
BBX 9 9 1 0
BITMAP
7F80
FF80
E380
E380
7F80
3F80
7380
E380
E380
ENDCHAR
STARTCHAR 0450
ENCODING 1104
SWIDTH 705 0
DWIDTH 12 0
BBX 10 14 1 0
BITMAP
3000
1800
0800
0000
0000
3E00
7F80
E380
FFC0
FFC0
E000
F080
7F80
3F00
ENDCHAR
STARTCHAR 0451
ENCODING 1105
SWIDTH 705 0
DWIDTH 12 0
BBX 10 13 1 0
BITMAP
3300
3300
0000
0000
3E00
7F80
E380
FFC0
FFC0
E000
F080
7F80
3F00
ENDCHAR
STARTCHAR 0452
ENCODING 1106
SWIDTH 705 0
DWIDTH 12 0
BBX 11 17 0 -4
BITMAP
3800
3800
3800
3800
FF80
FF80
3980
3FC0
3FE0
38E0
38E0
38E0
38E0
00E0
01C0
0380
0200
ENDCHAR
STARTCHAR 0453
ENCODING 1107
SWIDTH 529 0
DWIDTH 9 0
BBX 7 14 1 0
BITMAP
06
0C
08
00
00
FE
FE
E0
E0
E0
E0
E0
E0
E0
ENDCHAR
STARTCHAR 0454
ENCODING 1108
SWIDTH 588 0
DWIDTH 10 0
BBX 8 9 1 0
BITMAP
3E
7F
E1
FE
FE
E0
F1
7F
3E
ENDCHAR
STARTCHAR 0455
ENCODING 1109
SWIDTH 588 0
DWIDTH 10 0
BBX 8 9 1 0
BITMAP
7E
FF
E1
E0
7E
07
87
FF
7E
ENDCHAR
STARTCHAR 0456
ENCODING 1110
SWIDTH 352 0
DWIDTH 6 0
BBX 3 13 1 0
BITMAP
E0
E0
E0
00
E0
E0
E0
E0
E0
E0
E0
E0
E0
ENDCHAR
STARTCHAR 0457
ENCODING 1111
SWIDTH 352 0
DWIDTH 6 0
BBX 6 13 0 0
BITMAP
CC
CC
00
00
70
70
70
70
70
70
70
70
70
ENDCHAR
STARTCHAR 0458
ENCODING 1112
SWIDTH 352 0
DWIDTH 6 0
BBX 5 17 -1 -4
BITMAP
38
38
38
00
38
38
38
38
38
38
38
38
38
38
38
F8
F0
ENDCHAR
STARTCHAR 0459
ENCODING 1113
SWIDTH 1000 0
DWIDTH 17 0
BBX 15 9 1 0
BITMAP
3FC0
3FC0
39C0
39F8
39FE
39CE
71CE
F1FE
C1FC
ENDCHAR
STARTCHAR 045A
ENCODING 1114
SWIDTH 941 0
DWIDTH 16 0
BBX 14 9 1 0
BITMAP
E380
E380
E380
FFF8
FFFC
E38C
E38C
E3FC
E3F8
ENDCHAR
STARTCHAR 045B
ENCODING 1115
SWIDTH 705 0
DWIDTH 12 0
BBX 11 13 0 0
BITMAP
3800
3800
3800
3800
FF80
FF80
3980
3FC0
3FE0
38E0
38E0
38E0
38E0
ENDCHAR
STARTCHAR 045C
ENCODING 1116
SWIDTH 705 0
DWIDTH 12 0
BBX 10 14 1 0
BITMAP
0300
0600
0C00
0000
0000
E380
E700
EE00
FC00
FE00
FE00
E700
E380
E1C0
ENDCHAR
STARTCHAR 045D
ENCODING 1117
SWIDTH 705 0
DWIDTH 12 0
BBX 9 14 1 0
BITMAP
3800
0C00
0400
0000
0000
E380
E780
E780
EF80
ED80
FD80
F980
F180
F180
ENDCHAR
STARTCHAR 045E
ENCODING 1118
SWIDTH 647 0
DWIDTH 11 0
BBX 11 17 0 -4
BITMAP
1100
0F00
0000
0000
E0E0
71C0
71C0
3980
3B80
1B80
1F00
1F00
0E00
0E00
0E00
3C00
3800
ENDCHAR
STARTCHAR 045F
ENCODING 1119
SWIDTH 705 0
DWIDTH 12 0
BBX 9 11 1 -2
BITMAP
E380
E380
E380
E380
E380
E380
E380
FF80
FF80
0C00
0C00
ENDCHAR
STARTCHAR 0460
ENCODING 1120
SWIDTH 1117 0
DWIDTH 19 0
BBX 17 12 1 0
BITMAP
380E00
700F00
700700
E00700
E00780
E1C780
E1C780
E1C780
E3C700
F3EF00
7F7F00
3E3E00
ENDCHAR
STARTCHAR 0461
ENCODING 1121
SWIDTH 882 0
DWIDTH 15 0
BBX 13 9 1 0
BITMAP
7070
E030
E038
E738
E738
E738
E738
FDF0
79E0
ENDCHAR
STARTCHAR 0462
ENCODING 1122
SWIDTH 823 0
DWIDTH 14 0
BBX 12 12 1 0
BITMAP
3800
FF00
FF00
3800
3F80
3FE0
3FF0
3870
3870
3870
3FF0
3FC0
ENDCHAR
STARTCHAR 0463
ENCODING 1123
SWIDTH 764 0
DWIDTH 13 0
BBX 12 12 0 0
BITMAP
1C00
1C00
FFC0
FFC0
1C00
1C00
1FC0
1FE0
1C70
1C70
1FE0
1FC0
ENDCHAR
STARTCHAR 0464
ENCODING 1124
SWIDTH 1000 0
DWIDTH 17 0
BBX 14 13 2 0
BITMAP
0070
E3FC
E7FC
EF00
EE00
FFF8
FFF8
FFF8
EE00
EF00
E784
E7FC
E1FC
ENDCHAR
STARTCHAR 0465
ENCODING 1125
SWIDTH 823 0
DWIDTH 14 0
BBX 12 9 1 1
BITMAP
E7F0
E7F0
EE00
FFC0
FFC0
EE00
EF00
E7F0
E3F0
ENDCHAR
STARTCHAR 0466
ENCODING 1126
SWIDTH 1000 0
DWIDTH 17 0
BBX 16 12 0 0
BITMAP
03E0
03E0
0770
0770
0E38
1FF8
1FFC
3FFC
39CE
79CE
71C7
F1C7
ENDCHAR
STARTCHAR 0467
ENCODING 1127
SWIDTH 823 0
DWIDTH 14 0
BBX 12 9 1 0
BITMAP
0F00
0F00
1F80
19C0
3FC0
7FE0
7660
E670
C630
ENDCHAR
STARTCHAR 0468
ENCODING 1128
SWIDTH 1352 0
DWIDTH 23 0
BBX 21 12 2 0
BITMAP
E03E00
E03F00
E07700
E07780
FFE380
FFFFC0
FFFFC0
E1FFE0
E39CE0
E39C70
E71C70
E71C38
ENDCHAR
STARTCHAR 0469
ENCODING 1129
SWIDTH 1117 0
DWIDTH 19 0
BBX 17 9 1 0
BITMAP
E07800
E07800
E0FC00
FFCC00
FFFE00
E3FF00
E33300
E73380
E63180
ENDCHAR
STARTCHAR 046A
ENCODING 1130
SWIDTH 823 0
DWIDTH 14 0
BBX 13 12 1 0
BITMAP
7FF0
7FE0
30E0
39C0
1D80
0F80
1FC0
7FE0
76F0
E670
E670
E638
ENDCHAR
STARTCHAR 046B
ENCODING 1131
SWIDTH 705 0
DWIDTH 12 0
BBX 10 9 1 0
BITMAP
FF80
7F80
3300
3F00
1E00
7F80
FF80
EDC0
CDC0
ENDCHAR
STARTCHAR 046C
ENCODING 1132
SWIDTH 1235 0
DWIDTH 21 0
BBX 17 12 2 0
BITMAP
E7FF80
E3FF00
E18600
E1CE00
FFCC00
FFFC00
FFFE00
E3FF00
E7B780
E73380
E73380
E73380
ENDCHAR
STARTCHAR 046D
ENCODING 1133
SWIDTH 1000 0
DWIDTH 17 0
BBX 15 9 1 0
BITMAP
E3FE
E3FC
E19C
FFD8
FFF8
E3FC
E3EE
E76E
E766
ENDCHAR
STARTCHAR 046E
ENCODING 1134
SWIDTH 705 0
DWIDTH 12 0
BBX 9 19 1 -4
BITMAP
2200
3400
1400
1C00
7F00
7F80
0380
0380
0700
3F00
3F80
0380
0380
0780
FF80
FE00
C000
FF00
7F80
ENDCHAR
STARTCHAR 046F
ENCODING 1135
SWIDTH 529 0
DWIDTH 9 0
BBX 7 16 1 -3
BITMAP
44
68
28
38
FE
8E
0E
3C
3E
0E
06
7E
FC
C0
E0
7E
ENDCHAR
STARTCHAR 0470
ENCODING 1136
SWIDTH 1058 0
DWIDTH 18 0
BBX 18 12 0 0
BITMAP
E1C3C0
71C3C0
71C700
71C700
39C600
39CE00
19CE00
1FFC00
1FFC00
01C000
01C000
01C000
ENDCHAR
STARTCHAR 0471
ENCODING 1137
SWIDTH 1058 0
DWIDTH 18 0
BBX 18 17 0 -4
BITMAP
01C000
01C000
01C000
01C080
E1C3C0
71C7C0
71C700
31C600
39CE00
39CE00
1FFC00
1FFC00
0FF800
01C000
01C000
01C000
01C000
ENDCHAR
STARTCHAR 0472
ENCODING 1138
SWIDTH 823 0
DWIDTH 14 0
BBX 13 12 1 0
BITMAP
1F80
3FE0
78F0
F070
E070
FFF8
FFF8
E070
F070
70F0
3FE0
1F80
ENDCHAR
STARTCHAR 0473
ENCODING 1139
SWIDTH 705 0
DWIDTH 12 0
BBX 10 9 1 0
BITMAP
3F00
7F80
F3C0
E1C0
FFC0
FFC0
E1C0
7F80
3F00
ENDCHAR
STARTCHAR 0474
ENCODING 1140
SWIDTH 823 0
DWIDTH 14 0
BBX 14 13 0 0
BITMAP
001C
F03C
707C
7070
38F0
38E0
38E0
1DE0
1DC0
1DC0
0F80
0F80
0F80
ENDCHAR
STARTCHAR 0475
ENCODING 1141
SWIDTH 705 0
DWIDTH 12 0
BBX 12 10 0 0
BITMAP
0020
E0F0
71F0
71C0
3380
3B80
3B00
1F00
1F00
0E00
ENDCHAR
STARTCHAR 0476
ENCODING 1142
SWIDTH 823 0
DWIDTH 14 0
BBX 14 16 0 0
BITMAP
1B00
0D80
06C0
001C
F03C
707C
7070
38F0
38E0
38E0
1DE0
1DC0
1DC0
0F80
0F80
0F80
ENDCHAR
STARTCHAR 0477
ENCODING 1143
SWIDTH 705 0
DWIDTH 12 0
BBX 12 14 0 0
BITMAP
1B00
0D80
0480
06C0
0020
E0F0
71F0
71C0
3380
3B80
3B00
1F00
1F00
0E00
ENDCHAR
STARTCHAR 0478
ENCODING 1144
SWIDTH 1176 0
DWIDTH 20 0
BBX 18 17 1 -4
BITMAP
1C0000
3E0000
7F0000
E38000
E3B9C0
E3B9C0
E3BB80
E39F80
E39F00
E39F00
770F00
7F0E00
3E0E00
000C00
001C00
007800
007000
ENDCHAR
STARTCHAR 0479
ENCODING 1145
SWIDTH 1058 0
DWIDTH 18 0
BBX 16 13 1 -3
BITMAP
7EE7
7FE7
E766
E77E
E77E
E73C
E73C
7E38
3C38
0038
0070
01F0
01C0
ENDCHAR
STARTCHAR 047A
ENCODING 1146
SWIDTH 1058 0
DWIDTH 18 0
BBX 16 13 1 0
BITMAP
0080
1FF8
3FFE
788F
F007
E007
E007
E007
E007
F00F
799E
3FFC
0FF0
ENDCHAR
STARTCHAR 047B
ENCODING 1147
SWIDTH 882 0
DWIDTH 15 0
BBX 13 10 1 0
BITMAP
0200
3FE0
7FF0
E078
E038
E038
E038
E070
7FF0
1FC0
ENDCHAR
STARTCHAR 047C
ENCODING 1148
SWIDTH 1411 0
DWIDTH 24 0
BBX 22 15 1 0
BITMAP
007C00
018400
003000
001000
382070
700038
700038
E00038
E0001C
E0001C
E0001C
E0781C
F3FF3C
7F87F8
3E01F0
ENDCHAR
STARTCHAR 047D
ENCODING 1149
SWIDTH 1176 0
DWIDTH 20 0
BBX 18 14 1 0
BITMAP
01F000
061000
000000
00C000
004000
708380
E00180
E001C0
E001C0
E001C0
E1E1C0
E7F9C0
FE1FC0
780780
ENDCHAR
STARTCHAR 047E
ENCODING 1150
SWIDTH 1117 0
DWIDTH 19 0
BBX 17 15 1 0
BITMAP
0FF000
009000
000000
380E00
700F00
700700
E00700
E00780
E1C780
E1C780
E1C780
E3C700
F3EF00
7F7F00
3E3E00
ENDCHAR
STARTCHAR 047F
ENCODING 1151
SWIDTH 882 0
DWIDTH 15 0
BBX 13 12 1 0
BITMAP
3FC0
0240
0000
7070
E030
E038
E738
E738
E738
E738
FDF0
79E0
ENDCHAR
STARTCHAR 0480
ENCODING 1152
SWIDTH 705 0
DWIDTH 12 0
BBX 10 17 1 -4
BITMAP
0700
3FC0
7FC0
7000
F000
E000
E000
E000
E000
F000
7C00
3FC0
1FC0
01C0
01C0
01C0
01C0
ENDCHAR
STARTCHAR 0481
ENCODING 1153
SWIDTH 588 0
DWIDTH 10 0
BBX 8 13 1 -3
BITMAP
7F
7F
E0
E0
E0
E0
F0
7F
3F
07
07
07
07
ENDCHAR
STARTCHAR 0482
ENCODING 1154
SWIDTH 647 0
DWIDTH 11 0
BBX 8 8 1 -1
BITMAP
2C
7C
1E
9F
FA
78
7C
68
ENDCHAR
STARTCHAR 0483
ENCODING 1155
SWIDTH 0 0
DWIDTH 0 0
BBX 9 4 -10 10
BITMAP
0300
FF80
FF00
C000
ENDCHAR
STARTCHAR 0484
ENCODING 1156
SWIDTH 0 0
DWIDTH 0 0
BBX 7 2 -7 11
BITMAP
7C
C2
ENDCHAR
STARTCHAR 0485
ENCODING 1157
SWIDTH 0 0
DWIDTH 0 0
BBX 2 3 -6 10
BITMAP
C0
80
40
ENDCHAR
STARTCHAR 0486
ENCODING 1158
SWIDTH 0 0
DWIDTH 0 0
BBX 2 3 -6 10
BITMAP
C0
40
80
ENDCHAR
STARTCHAR 0487
ENCODING 1159
SWIDTH 0 0
DWIDTH 0 0
BBX 13 3 -13 10
BITMAP
7F00
C3E0
8078
ENDCHAR
STARTCHAR 0488
ENCODING 1160
SWIDTH 411 0
DWIDTH 7 0
BBX 24 19 -18 -3
BITMAP
001C00
003E00
006200
1F0078
1100CC
000000
000000
000000
300006
F8001F
880011
000000
000000
000000
0E0070
1B00D8
110084
003C00
006200
ENDCHAR
STARTCHAR 0489
ENCODING 1161
SWIDTH 411 0
DWIDTH 7 0
BBX 22 22 -17 -5
BITMAP
001800
003000
083000
0C3030
0E00F0
0C00C0
000000
000000
000000
C00000
F00038
30003C
000000
000000
000000
0400C0
1E01C0
3C00C0
003060
003000
003000
006000
ENDCHAR
STARTCHAR 048A
ENCODING 1162
SWIDTH 941 0
DWIDTH 16 0
BBX 14 19 2 -4
BITMAP
3300
1E00
0000
E1E0
E3E0
E3E0
E7E0
E6E0
EEE0
FCE0
FCE0
F8E0
F0E0
F0FC
E0FC
0038
0070
0060
00C0
ENDCHAR
STARTCHAR 048B
ENCODING 1163
SWIDTH 823 0
DWIDTH 14 0
BBX 12 17 1 -4
BITMAP
2300
1E00
0000
0000
E380
E780
E780
EF80
FF80
FF80
FB80
F3F0
F3F0
0070
00E0
01C0
0180
ENDCHAR
STARTCHAR 048C
ENCODING 1164
SWIDTH 764 0
DWIDTH 13 0
BBX 12 12 0 0
BITMAP
3800
FC00
FC00
3800
3F80
3FE0
3FE0
38F0
3870
38F0
3FE0
3FC0
ENDCHAR
STARTCHAR 048D
ENCODING 1165
SWIDTH 588 0
DWIDTH 10 0
BBX 10 12 0 0
BITMAP
7000
7000
7000
FC00
FC00
7000
7F00
7F80
71C0
71C0
7F80
7F00
ENDCHAR
STARTCHAR 048E
ENCODING 1166
SWIDTH 705 0
DWIDTH 12 0
BBX 10 12 2 0
BITMAP
FF00
FF80
E3C0
E7C0
E7C0
FF80
FF80
FEC0
E000
E000
E000
E000
ENDCHAR
STARTCHAR 048F
ENCODING 1167
SWIDTH 705 0
DWIDTH 12 0
BBX 10 14 1 -4
BITMAP
0200
EF80
FFC0
F1C0
E1C0
E1C0
F7C0
F3C0
FFC0
EF80
E0C0
E000
E000
E000
ENDCHAR
STARTCHAR 0490
ENCODING 1168
SWIDTH 647 0
DWIDTH 11 0
BBX 8 15 2 0
BITMAP
03
03
03
FF
FF
E0
E0
E0
E0
E0
E0
E0
E0
E0
E0
ENDCHAR
STARTCHAR 0491
ENCODING 1169
SWIDTH 529 0
DWIDTH 9 0
BBX 7 12 1 0
BITMAP
02
02
02
FE
FE
E0
E0
E0
E0
E0
E0
E0
ENDCHAR
STARTCHAR 0492
ENCODING 1170
SWIDTH 647 0
DWIDTH 11 0
BBX 11 12 0 0
BITMAP
3FE0
3FE0
3800
3800
FF80
FF80
FF80
3800
3800
3800
3800
3800
ENDCHAR
STARTCHAR 0493
ENCODING 1171
SWIDTH 529 0
DWIDTH 9 0
BBX 9 9 0 0
BITMAP
3F80
3F80
3800
FF00
FF00
3800
3800
3800
3800
ENDCHAR
STARTCHAR 0494
ENCODING 1172
SWIDTH 823 0
DWIDTH 14 0
BBX 10 15 2 -3
BITMAP
FF00
FF00
E000
E000
FF00
FFC0
FFC0
E1C0
E1C0
E1C0
E1C0
E1C0
01C0
07C0
0780
ENDCHAR
STARTCHAR 0495
ENCODING 1173
SWIDTH 647 0
DWIDTH 11 0
BBX 9 13 1 -4
BITMAP
FE00
FE00
E000
FC00
FF00
E780
E380
E380
E380
0380
0380
0F00
0E00
ENDCHAR
STARTCHAR 0496
ENCODING 1174
SWIDTH 1235 0
DWIDTH 21 0
BBX 20 15 1 -3
BITMAP
F0E1E0
38E380
3CE700
1EEE00
0FFE00
0FFE00
1FFF00
3DF700
38E380
70E3C0
F0E1F0
E0E0F0
0000F0
0000F0
0000F0
ENDCHAR
STARTCHAR 0497
ENCODING 1175
SWIDTH 1000 0
DWIDTH 17 0
BBX 16 11 1 -2
BITMAP
F39E
7BB8
3FF0
1FE0
1FF0
3BB8
739C
E39F
E38F
0007
0007
ENDCHAR
STARTCHAR 0498
ENCODING 1176
SWIDTH 705 0
DWIDTH 12 0
BBX 10 15 1 -3
BITMAP
3F00
FF80
83C0
03C0
0380
3F00
3F80
03C0
01C0
83C0
FF80
7F00
0C00
0400
3C00
ENDCHAR
STARTCHAR 0499
ENCODING 1177
SWIDTH 588 0
DWIDTH 10 0
BBX 8 12 1 -3
BITMAP
7E
FE
87
7E
7E
07
87
FF
7C
08
08
38
ENDCHAR
STARTCHAR 049A
ENCODING 1178
SWIDTH 764 0
DWIDTH 13 0
BBX 12 15 2 -3
BITMAP
E1E0
E3C0
E780
EF00
FE00
FE00
FF00
F700
E380
E3C0
E1F0
E0F0
00F0
00F0
00F0
ENDCHAR
STARTCHAR 049B
ENCODING 1179
SWIDTH 705 0
DWIDTH 12 0
BBX 10 11 1 -2
BITMAP
E380
E700
EE00
FC00
FE00
F700
E700
E3C0
E1C0
01C0
01C0
ENDCHAR
STARTCHAR 049C
ENCODING 1180
SWIDTH 823 0
DWIDTH 14 0
BBX 11 12 2 0
BITMAP
E1E0
EBC0
EF80
EF00
FE00
FE00
FF00
FF00
EB80
EBC0
E1E0
E0E0
ENDCHAR
STARTCHAR 049D
ENCODING 1181
SWIDTH 705 0
DWIDTH 12 0
BBX 10 9 1 0
BITMAP
EB80
EF00
EE00
FC00
FE00
FF00
EF00
EB80
E1C0
ENDCHAR
STARTCHAR 049E
ENCODING 1182
SWIDTH 823 0
DWIDTH 14 0
BBX 13 12 0 0
BITMAP
FC78
FCF0
39E0
3BC0
3F80
3F80
3FC0
3DC0
38E0
38F0
3878
3838
ENDCHAR
STARTCHAR 049F
ENCODING 1183
SWIDTH 705 0
DWIDTH 12 0
BBX 11 13 0 0
BITMAP
7000
FE00
FE00
7000
71C0
7380
7700
7E00
7F00
7B80
7380
71C0
70E0
ENDCHAR
STARTCHAR 04A0
ENCODING 1184
SWIDTH 1000 0
DWIDTH 17 0
BBX 17 12 0 0
BITMAP
FF0F00
FF1E00
073C00
077800
07F000
07F000
07F800
07BC00
071E00
070E00
070F00
070780
ENDCHAR
STARTCHAR 04A1
ENCODING 1185
SWIDTH 823 0
DWIDTH 14 0
BBX 13 9 0 0
BITMAP
FE78
FEF0
0FE0
0FC0
0FC0
0EE0
0E70
0E38
0E38
ENDCHAR
STARTCHAR 04A2
ENCODING 1186
SWIDTH 941 0
DWIDTH 16 0
BBX 14 15 2 -3
BITMAP
E1E0
E1E0
E1E0
E1E0
FFE0
FFE0
FFE0
E1E0
E1E0
E1E0
E1FC
E1FC
001C
001C
001C
ENDCHAR
STARTCHAR 04A3
ENCODING 1187
SWIDTH 823 0
DWIDTH 14 0
BBX 12 11 1 -2
BITMAP
E380
E380
E380
FF80
FF80
E380
E380
E3F0
E3F0
0070
0070
ENDCHAR
STARTCHAR 04A4
ENCODING 1188
SWIDTH 1117 0
DWIDTH 19 0
BBX 16 12 2 0
BITMAP
E1FF
E1FF
E1E0
E1E0
FFE0
FFE0
FFE0
E1E0
E1E0
E1E0
E1E0
E1E0
ENDCHAR
STARTCHAR 04A5
ENCODING 1189
SWIDTH 882 0
DWIDTH 15 0
BBX 13 9 1 0
BITMAP
E3F8
E3F8
E380
FF80
FF80
E380
E380
E380
E380
ENDCHAR
STARTCHAR 04A6
ENCODING 1190
SWIDTH 1294 0
DWIDTH 22 0
BBX 18 15 2 -3
BITMAP
FFE000
FFE000
E1E000
E1E000
E1FF00
E1FFC0
E1FFC0
E1E1C0
E1E1C0
E1E1C0
E1E1C0
E1E1C0
0001C0
0007C0
000780
ENDCHAR
STARTCHAR 04A7
ENCODING 1191
SWIDTH 1000 0
DWIDTH 17 0
BBX 15 13 1 -4
BITMAP
FF80
FF80
E380
E3F0
E3FC
E39E
E38E
E38E
E38E
000E
001E
003C
0038
ENDCHAR
STARTCHAR 04A8
ENCODING 1192
SWIDTH 941 0
DWIDTH 16 0
BBX 15 13 1 0
BITMAP
0400
3CE0
7DF8
73F8
F398
E39C
E39C
E398
E3B8
F1F8
78F0
3FFE
1FFE
ENDCHAR
STARTCHAR 04A9
ENCODING 1193
SWIDTH 882 0
DWIDTH 15 0
BBX 13 9 1 1
BITMAP
39C0
7BE0
E770
E770
E770
E770
F3E0
7FF8
3F78
ENDCHAR
STARTCHAR 04AA
ENCODING 1194
SWIDTH 705 0
DWIDTH 12 0
BBX 10 15 1 -3
BITMAP
0FC0
3FC0
7840
F000
E000
E000
E000
E000
F000
7840
3FC0
0FC0
0300
0100
0F00
ENDCHAR
STARTCHAR 04AB
ENCODING 1195
SWIDTH 588 0
DWIDTH 10 0
BBX 8 12 1 -3
BITMAP
3E
7F
F1
E0
E0
E0
F1
7F
3E
04
04
1C
ENDCHAR
STARTCHAR 04AC
ENCODING 1196
SWIDTH 705 0
DWIDTH 12 0
BBX 12 15 0 -3
BITMAP
FFF0
FFF0
0E00
0E00
0E00
0E00
0E00
0E00
0E00
0E00
0FE0
0FE0
01E0
01E0
01E0
ENDCHAR
STARTCHAR 04AD
ENCODING 1197
SWIDTH 588 0
DWIDTH 10 0
BBX 10 11 0 -2
BITMAP
FFC0
FFC0
1C00
1C00
1C00
1C00
1C00
1F80
1F80
0380
0380
ENDCHAR
STARTCHAR 04AE
ENCODING 1198
SWIDTH 705 0
DWIDTH 12 0
BBX 12 12 0 0
BITMAP
F070
70E0
39E0
3DC0
1F80
0F80
0F00
0700
0700
0700
0700
0700
ENDCHAR
STARTCHAR 04AF
ENCODING 1199
SWIDTH 647 0
DWIDTH 11 0
BBX 9 13 1 -4
BITMAP
C180
E380
E380
7300
7700
3600
3E00
1C00
1C00
1C00
1C00
1C00
1C00
ENDCHAR
STARTCHAR 04B0
ENCODING 1200
SWIDTH 705 0
DWIDTH 12 0
BBX 12 12 0 0
BITMAP
F0F0
78E0
39E0
3FC0
1F80
0F80
0F00
0700
1FC0
1FC0
0700
0700
ENDCHAR
STARTCHAR 04B1
ENCODING 1201
SWIDTH 647 0
DWIDTH 11 0
BBX 9 13 1 -4
BITMAP
C180
E380
E380
7300
7700
3600
3E00
1C00
1C00
1C00
7F00
1C00
1C00
ENDCHAR
STARTCHAR 04B2
ENCODING 1202
SWIDTH 764 0
DWIDTH 13 0
BBX 12 15 1 -3
BITMAP
E0E0
71C0
7BC0
3B80
1F00
0F00
1F00
3F80
3B80
71C0
F1F0
E0F0
0070
0070
0070
ENDCHAR
STARTCHAR 04B3
ENCODING 1203
SWIDTH 647 0
DWIDTH 11 0
BBX 10 11 1 -2
BITMAP
E380
7700
7E00
3E00
1C00
3E00
7700
E7C0
E3C0
01C0
01C0
ENDCHAR
STARTCHAR 04B4
ENCODING 1204
SWIDTH 1117 0
DWIDTH 19 0
BBX 19 15 0 -3
BITMAP
FFFE00
FFFE00
0E0E00
0E0E00
0E0E00
0E0E00
0E0E00
0E0E00
0E0E00
0E0E00
0FFFE0
0FFFE0
0001E0
0001E0
0001E0
ENDCHAR
STARTCHAR 04B5
ENCODING 1205
SWIDTH 1000 0
DWIDTH 17 0
BBX 17 11 0 -2
BITMAP
FFDC00
FFDC00
1C1C00
1C1C00
1C1C00
1C1C00
1C1C00
1FFF80
1FFF80
000380
000380
ENDCHAR
STARTCHAR 04B6
ENCODING 1206
SWIDTH 823 0
DWIDTH 14 0
BBX 14 15 1 -3
BITMAP
F0E0
F0E0
F0E0
F0E0
7FE0
7FE0
3FE0
00E0
00E0
00E0
00FC
00FC
001C
001C
001C
ENDCHAR
STARTCHAR 04B7
ENCODING 1207
SWIDTH 705 0
DWIDTH 12 0
BBX 12 11 1 -2
BITMAP
E380
E380
E380
FF80
7F80
0380
0380
03F0
03F0
0070
0070
ENDCHAR
STARTCHAR 04B8
ENCODING 1208
SWIDTH 823 0
DWIDTH 14 0
BBX 11 12 1 0
BITMAP
F0E0
F0E0
F4E0
F4E0
7FE0
7FE0
3FE0
04E0
00E0
00E0
00E0
00E0
ENDCHAR
STARTCHAR 04B9
ENCODING 1209
SWIDTH 705 0
DWIDTH 12 0
BBX 9 9 1 0
BITMAP
E380
EB80
EB80
FF80
7F80
0B80
0B80
0380
0380
ENDCHAR
STARTCHAR 04BA
ENCODING 1210
SWIDTH 823 0
DWIDTH 14 0
BBX 11 12 1 0
BITMAP
F000
F000
F000
F000
FF80
FFC0
FFE0
F0E0
F0E0
F0E0
F0E0
F0E0
ENDCHAR
STARTCHAR 04BB
ENCODING 1211
SWIDTH 705 0
DWIDTH 12 0
BBX 10 13 1 0
BITMAP
E000
E000
E000
E000
E700
EF80
F3C0
F1C0
E1C0
E1C0
E1C0
E1C0
E1C0
ENDCHAR
STARTCHAR 04BC
ENCODING 1212
SWIDTH 1000 0
DWIDTH 17 0
BBX 17 13 0 0
BITMAP
007000
03FC00
07FE00
E70F00
EF0700
7FFF00
3FFF80
0FFF80
0E0000
0F0000
078200
03FE00
01FE00
ENDCHAR
STARTCHAR 04BD
ENCODING 1213
SWIDTH 823 0
DWIDTH 14 0
BBX 13 10 0 0
BITMAP
0080
07E0
CF70
DC38
FFF8
7FF8
1C00
1C08
0FF8
07F0
ENDCHAR
STARTCHAR 04BE
ENCODING 1214
SWIDTH 1000 0
DWIDTH 17 0
BBX 17 16 0 -3
BITMAP
007000
03FC00
07FE00
E70F00
EF0700
7FFF00
3FFF80
0FFF80
0E0000
0F0000
078200
03FE00
01FE00
007000
007000
007000
ENDCHAR
STARTCHAR 04BF
ENCODING 1215
SWIDTH 823 0
DWIDTH 14 0
BBX 13 13 0 -3
BITMAP
0080
07E0
CF70
DC38
FFF8
7FF8
1C00
1C08
0FF8
07F0
0180
0180
0180
ENDCHAR
STARTCHAR 04C0
ENCODING 1216
SWIDTH 352 0
DWIDTH 6 0
BBX 3 12 2 0
BITMAP
E0
E0
E0
E0
E0
E0
E0
E0
E0
E0
E0
E0
ENDCHAR
STARTCHAR 04C1
ENCODING 1217
SWIDTH 1235 0
DWIDTH 21 0
BBX 19 15 1 0
BITMAP
011000
00E000
000000
F0E1E0
78E3C0
38E780
1CEF00
0EFE00
0FFE00
1FFF00
3DF700
38E380
70E3C0
F0E1E0
E0E0E0
ENDCHAR
STARTCHAR 04C2
ENCODING 1218
SWIDTH 1000 0
DWIDTH 17 0
BBX 15 13 1 0
BITMAP
0440
03C0
0000
0000
E38E
73BC
3BF8
1FF0
1FF0
3BB8
739C
E39C
E38E
ENDCHAR
STARTCHAR 04C3
ENCODING 1219
SWIDTH 764 0
DWIDTH 13 0
BBX 11 15 2 -3
BITMAP
E3E0
E780
EF00
FE00
FF00
FFC0
FFC0
E1C0
E1C0
E1C0
E1C0
E1C0
01C0
07C0
0780
ENDCHAR
STARTCHAR 04C4
ENCODING 1220
SWIDTH 647 0
DWIDTH 11 0
BBX 9 13 1 -4
BITMAP
E780
EF00
FE00
FC00
FF00
E780
E380
E380
E380
0380
0380
0F00
0E00
ENDCHAR
STARTCHAR 04C5
ENCODING 1221
SWIDTH 941 0
DWIDTH 16 0
BBX 16 16 0 -4
BITMAP
0FF8
0FF8
0E78
0E78
0E78
0E78
1E78
1C78
1C78
3C78
F87F
F07F
000E
001C
0038
0030
ENDCHAR
STARTCHAR 04C6
ENCODING 1222
SWIDTH 823 0
DWIDTH 14 0
BBX 13 13 0 -4
BITMAP
1FC0
1FC0
1DC0
1DC0
1DC0
1DC0
39C0
F9F8
F1F8
0038
0070
00E0
00C0
ENDCHAR
STARTCHAR 04C7
ENCODING 1223
SWIDTH 823 0
DWIDTH 14 0
BBX 11 15 2 -3
BITMAP
E1E0
E1E0
E1E0
E1E0
FFE0
FFE0
FFE0
E1E0
E1E0
E1E0
E1E0
E1E0
01C0
07C0
0780
ENDCHAR
STARTCHAR 04C8
ENCODING 1224
SWIDTH 705 0
DWIDTH 12 0
BBX 9 13 1 -4
BITMAP
E380
E380
E380
FF80
FF80
E380
E380
E380
E380
0380
0380
0F80
0E00
ENDCHAR
STARTCHAR 04C9
ENCODING 1225
SWIDTH 941 0
DWIDTH 16 0
BBX 14 16 2 -4
BITMAP
E1E0
E1E0
E1E0
E1E0
FFE0
FFE0
FFE0
E1E0
E1E0
E1E0
E1FC
E1FC
0038
0070
0060
00C0
ENDCHAR
STARTCHAR 04CA
ENCODING 1226
SWIDTH 823 0
DWIDTH 14 0
BBX 12 13 1 -4
BITMAP
E380
E380
E380
FF80
FF80
E380
E380
E3F0
E3F0
0070
00E0
01C0
0180
ENDCHAR
STARTCHAR 04CB
ENCODING 1227
SWIDTH 823 0
DWIDTH 14 0
BBX 11 15 1 -3
BITMAP
F0E0
F0E0
F0E0
F0E0
7FE0
7FE0
3FE0
00E0
00E0
00E0
07E0
07E0
0700
0700
0700
ENDCHAR
STARTCHAR 04CC
ENCODING 1228
SWIDTH 705 0
DWIDTH 12 0
BBX 9 11 1 -2
BITMAP
E380
E380
E380
FF80
7F80
0380
0380
1F80
1F80
1C00
1C00
ENDCHAR
STARTCHAR 04CD
ENCODING 1229
SWIDTH 1117 0
DWIDTH 19 0
BBX 17 16 2 -4
BITMAP
F07800
F0F800
F8F800
F8F800
FDF800
EDB800
EFB800
E73800
E73800
E73800
E03F80
E03F80
000700
000E00
001C00
003800
ENDCHAR
STARTCHAR 04CE
ENCODING 1230
SWIDTH 941 0
DWIDTH 16 0
BBX 14 13 1 -4
BITMAP
F0E0
F9E0
F9E0
FFE0
EFE0
EFE0
E6E0
E0FC
E0FC
001C
0038
0030
0060
ENDCHAR
STARTCHAR 04CF
ENCODING 1231
SWIDTH 352 0
DWIDTH 6 0
BBX 3 13 1 0
BITMAP
E0
E0
E0
E0
E0
E0
E0
E0
E0
E0
E0
E0
E0
ENDCHAR
STARTCHAR 04D0
ENCODING 1232
SWIDTH 764 0
DWIDTH 13 0
BBX 13 16 0 0
BITMAP
0880
0780
0000
0000
0F80
0F80
0F80
1DC0
1DC0
18E0
38E0
3FE0
7FF0
7070
7078
E038
ENDCHAR
STARTCHAR 04D1
ENCODING 1233
SWIDTH 647 0
DWIDTH 11 0
BBX 9 13 1 0
BITMAP
3300
1E00
0000
0000
7E00
7F80
0380
7F80
FF80
E380
E380
FF80
7B80
ENDCHAR
STARTCHAR 04D2
ENCODING 1234
SWIDTH 764 0
DWIDTH 13 0
BBX 13 16 0 0
BITMAP
0D80
0D80
0000
0000
0F80
0F80
0F80
1DC0
1DC0
18E0
38E0
3FE0
7FF0
7070
7078
E038
ENDCHAR
STARTCHAR 04D3
ENCODING 1235
SWIDTH 647 0
DWIDTH 11 0
BBX 9 13 1 0
BITMAP
3600
3600
0000
0000
7E00
7F80
0380
7F80
FF80
E380
E380
FF80
7B80
ENDCHAR
STARTCHAR 04D4
ENCODING 1236
SWIDTH 1058 0
DWIDTH 18 0
BBX 17 12 0 0
BITMAP
07FF80
07FF80
0EF000
0EF000
1CF000
1CFF80
38FF80
3FF000
3FF000
70F000
70FF80
E0FF80
ENDCHAR
STARTCHAR 04D5
ENCODING 1237
SWIDTH 1058 0
DWIDTH 18 0
BBX 16 9 1 0
BITMAP
7E7C
7FFE
0387
7FFF
FFFF
E380
E7C3
FFFF
787C
ENDCHAR
STARTCHAR 04D6
ENCODING 1238
SWIDTH 705 0
DWIDTH 12 0
BBX 8 15 2 0
BITMAP
44
3C
00
FF
FF
E0
E0
E0
FF
FF
E0
E0
E0
FF
FF
ENDCHAR
STARTCHAR 04D7
ENCODING 1239
SWIDTH 705 0
DWIDTH 12 0
BBX 10 13 1 0
BITMAP
3300
1E00
0000
0000
3E00
7F80
E380
FFC0
FFC0
E000
F080
7F80
3F00
ENDCHAR
STARTCHAR 04D8
ENCODING 1240
SWIDTH 823 0
DWIDTH 14 0
BBX 13 12 1 0
BITMAP
3F80
7FE0
40F0
0070
0070
FFF8
FFF8
E070
F070
78F0
3FE0
1F80
ENDCHAR
STARTCHAR 04D9
ENCODING 1241
SWIDTH 705 0
DWIDTH 12 0
BBX 10 9 1 0
BITMAP
7E00
FF80
8380
01C0
FFC0
FFC0
E380
7F80
3E00
ENDCHAR
STARTCHAR 04DA
ENCODING 1242
SWIDTH 823 0
DWIDTH 14 0
BBX 13 16 1 0
BITMAP
1B00
1B00
0000
0000
3F80
7FE0
40F0
0070
0070
FFF8
FFF8
E070
F070
78F0
3FE0
1F80
ENDCHAR
STARTCHAR 04DB
ENCODING 1243
SWIDTH 705 0
DWIDTH 12 0
BBX 10 13 1 0
BITMAP
3600
3600
0000
0000
7E00
FF80
8380
01C0
FFC0
FFC0
E380
7F80
3E00
ENDCHAR
STARTCHAR 04DC
ENCODING 1244
SWIDTH 1235 0
DWIDTH 21 0
BBX 19 16 1 0
BITMAP
01B000
01B000
000000
000000
F0E1E0
78E3C0
38E780
1CEF00
0EFE00
0FFE00
1FFF00
3DF700
38E380
70E3C0
F0E1E0
E0E0E0
ENDCHAR
STARTCHAR 04DD
ENCODING 1245
SWIDTH 1000 0
DWIDTH 17 0
BBX 15 13 1 0
BITMAP
06C0
06C0
0000
0000
E38E
73BC
3BF8
1FF0
1FF0
3BB8
739C
E39C
E38E
ENDCHAR
STARTCHAR 04DE
ENCODING 1246
SWIDTH 705 0
DWIDTH 12 0
BBX 10 16 1 0
BITMAP
3600
3600
0000
0000
3F00
FF80
83C0
03C0
0380
3F00
3F80
03C0
01C0
83C0
FF80
7F00
ENDCHAR
STARTCHAR 04DF
ENCODING 1247
SWIDTH 588 0
DWIDTH 10 0
BBX 8 13 1 0
BITMAP
6C
6C
00
00
7E
FE
87
7E
7E
07
87
FF
7C
ENDCHAR
STARTCHAR 04E0
ENCODING 1248
SWIDTH 764 0
DWIDTH 13 0
BBX 11 13 1 -1
BITMAP
FFC0
FFC0
03C0
0780
0F00
0F80
0FE0
00E0
00E0
80E0
FFE0
FFC0
0E00
ENDCHAR
STARTCHAR 04E1
ENCODING 1249
SWIDTH 647 0
DWIDTH 11 0
BBX 9 13 1 -4
BITMAP
FF00
FF00
0E00
1C00
3800
3C00
3F00
0780
0380
0380
FF80
FF00
3C00
ENDCHAR
STARTCHAR 04E2
ENCODING 1250
SWIDTH 823 0
DWIDTH 14 0
BBX 11 16 2 0
BITMAP
3E00
3E00
0000
0000
E1E0
E3E0
E3E0
E7E0
E6E0
EEE0
ECE0
FCE0
F8E0
F0E0
F0E0
E0E0
ENDCHAR
STARTCHAR 04E3
ENCODING 1251
SWIDTH 705 0
DWIDTH 12 0
BBX 9 13 1 0
BITMAP
3F00
3F00
0000
0000
E380
E780
E780
EF80
ED80
FD80
F980
F180
F180
ENDCHAR
STARTCHAR 04E4
ENCODING 1252
SWIDTH 823 0
DWIDTH 14 0
BBX 11 16 2 0
BITMAP
3600
3600
0000
0000
E1E0
E3E0
E3E0
E7E0
E6E0
EEE0
ECE0
FCE0
F8E0
F0E0
F0E0
E0E0
ENDCHAR
STARTCHAR 04E5
ENCODING 1253
SWIDTH 705 0
DWIDTH 12 0
BBX 9 13 1 0
BITMAP
3300
3300
0000
0000
E380
E780
E780
EF80
ED80
FD80
F980
F180
F180
ENDCHAR
STARTCHAR 04E6
ENCODING 1254
SWIDTH 823 0
DWIDTH 14 0
BBX 13 16 1 0
BITMAP
0D80
0D80
0000
0000
1F80
3FE0
78F0
F070
E070
E078
E078
E070
F070
78F0
3FE0
1F80
ENDCHAR
STARTCHAR 04E7
ENCODING 1255
SWIDTH 705 0
DWIDTH 12 0
BBX 10 13 1 0
BITMAP
3600
3600
0000
0000
3F00
7F80
E3C0
E1C0
E1C0
E1C0
E3C0
7F80
3F00
ENDCHAR
STARTCHAR 04E8
ENCODING 1256
SWIDTH 823 0
DWIDTH 14 0
BBX 13 12 1 0
BITMAP
1F80
3FE0
78F0
F070
E070
FFF8
FFF8
E070
F070
70F0
3FE0
1F80
ENDCHAR
STARTCHAR 04E9
ENCODING 1257
SWIDTH 705 0
DWIDTH 12 0
BBX 10 9 1 0
BITMAP
3F00
7F80
F3C0
E1C0
FFC0
FFC0
E1C0
7F80
3F00
ENDCHAR
STARTCHAR 04EA
ENCODING 1258
SWIDTH 823 0
DWIDTH 14 0
BBX 13 16 1 0
BITMAP
0D80
0D80
0000
0000
1F80
3FE0
78F0
F070
E070
FFF8
FFF8
E070
F070
70F0
3FE0
1F80
ENDCHAR
STARTCHAR 04EB
ENCODING 1259
SWIDTH 705 0
DWIDTH 12 0
BBX 10 13 1 0
BITMAP
3200
3200
0000
0000
3F00
7F80
F3C0
E1C0
FFC0
FFC0
E1C0
7F80
3F00
ENDCHAR
STARTCHAR 04EC
ENCODING 1260
SWIDTH 705 0
DWIDTH 12 0
BBX 11 16 1 0
BITMAP
3600
3600
0000
3800
FF00
FF80
83C0
01C0
01E0
3FE0
3FE0
01C0
01C0
83C0
FF80
FE00
ENDCHAR
STARTCHAR 04ED
ENCODING 1261
SWIDTH 588 0
DWIDTH 10 0
BBX 8 13 1 0
BITMAP
64
64
00
00
FE
FF
07
7F
7F
07
0F
FE
FC
ENDCHAR
STARTCHAR 04EE
ENCODING 1262
SWIDTH 764 0
DWIDTH 13 0
BBX 11 16 1 0
BITMAP
1F00
1F00
0000
0000
E0E0
F0E0
71C0
79C0
3B80
3B80
1F00
1F00
0E00
0E00
7C00
7800
ENDCHAR
STARTCHAR 04EF
ENCODING 1263
SWIDTH 647 0
DWIDTH 11 0
BBX 11 17 0 -4
BITMAP
1F00
1F00
0000
0000
E0E0
71C0
71C0
3980
3B80
1B80
1F00
1F00
0E00
0E00
0E00
3C00
3800
ENDCHAR
STARTCHAR 04F0
ENCODING 1264
SWIDTH 764 0
DWIDTH 13 0
BBX 11 16 1 0
BITMAP
1B00
1B00
0000
0000
E0E0
F0E0
71C0
79C0
3B80
3B80
1F00
1F00
0E00
0E00
7C00
7800
ENDCHAR
STARTCHAR 04F1
ENCODING 1265
SWIDTH 647 0
DWIDTH 11 0
BBX 11 17 0 -4
BITMAP
1B00
1B00
0000
0000
E0E0
71C0
71C0
3980
3B80
1B80
1F00
1F00
0E00
0E00
0E00
3C00
3800
ENDCHAR
STARTCHAR 04F2
ENCODING 1266
SWIDTH 764 0
DWIDTH 13 0
BBX 11 15 1 0
BITMAP
0D80
1B00
0000
E0E0
F0E0
71C0
79C0
3B80
3B80
1F00
1F00
0E00
0E00
7C00
7800
ENDCHAR
STARTCHAR 04F3
ENCODING 1267
SWIDTH 647 0
DWIDTH 11 0
BBX 11 17 0 -4
BITMAP
0D80
0900
1A00
0000
E0E0
71C0
71C0
3980
3B80
1B80
1F00
1F00
0E00
0E00
0E00
3C00
3800
ENDCHAR
STARTCHAR 04F4
ENCODING 1268
SWIDTH 823 0
DWIDTH 14 0
BBX 11 16 1 0
BITMAP
1980
1980
0000
0000
F0E0
F0E0
F0E0
F0E0
F0E0
7FE0
3FE0
00E0
00E0
00E0
00E0
00E0
ENDCHAR
STARTCHAR 04F5
ENCODING 1269
SWIDTH 705 0
DWIDTH 12 0
BBX 9 13 1 0
BITMAP
3600
3600
0000
0000
E380
E380
E380
E380
FF80
7F80
0380
0380
0380
ENDCHAR
STARTCHAR 04F6
ENCODING 1270
SWIDTH 647 0
DWIDTH 11 0
BBX 8 15 2 -3
BITMAP
FF
FF
E0
E0
E0
E0
E0
E0
E0
E0
FC
FC
1C
1C
1C
ENDCHAR
STARTCHAR 04F7
ENCODING 1271
SWIDTH 529 0
DWIDTH 9 0
BBX 7 11 1 -2
BITMAP
FE
FE
E0
E0
E0
E0
E0
FC
FC
1C
1C
ENDCHAR
STARTCHAR 04F8
ENCODING 1272
SWIDTH 1058 0
DWIDTH 18 0
BBX 14 16 2 0
BITMAP
0D80
0D80
0000
0000
E01C
E01C
E01C
E01C
FF1C
FF9C
E3DC
E1DC
E1DC
E3DC
FF9C
FF1C
ENDCHAR
STARTCHAR 04F9
ENCODING 1273
SWIDTH 882 0
DWIDTH 15 0
BBX 13 13 1 0
BITMAP
0D80
0D80
0000
0000
E038
E038
E038
FF38
FFB8
E3B8
E3B8
FFB8
FF38
ENDCHAR
STARTCHAR 04FA
ENCODING 1274
SWIDTH 647 0
DWIDTH 11 0
BBX 11 16 0 -4
BITMAP
3FE0
3FE0
3800
3800
FF80
FF80
FF80
3800
3800
3800
3F00
3F00
0700
0700
1E00
1C00
ENDCHAR
STARTCHAR 04FB
ENCODING 1275
SWIDTH 529 0
DWIDTH 9 0
BBX 9 13 0 -4
BITMAP
3F80
3F80
3800
FF00
FF00
3800
3800
3F00
3F00
0700
0F00
1E00
1C00
ENDCHAR
STARTCHAR 04FC
ENCODING 1276
SWIDTH 764 0
DWIDTH 13 0
BBX 12 15 1 -3
BITMAP
E0E0
71C0
7BC0
3B80
1F00
0F00
1F00
3F80
3B80
71C0
F1E0
E0E0
00F0
03E0
03C0
ENDCHAR
STARTCHAR 04FD
ENCODING 1277
SWIDTH 647 0
DWIDTH 11 0
BBX 10 13 1 -4
BITMAP
E380
7700
7E00
3E00
1C00
3E00
7700
E780
E380
01C0
0380
0780
0600
ENDCHAR
STARTCHAR 04FE
ENCODING 1278
SWIDTH 764 0
DWIDTH 13 0
BBX 11 12 1 0
BITMAP
E0E0
71C0
7BC0
3B80
1F00
FFE0
FFE0
3F80
3B80
71C0
F1E0
E0E0
ENDCHAR
STARTCHAR 04FF
ENCODING 1279
SWIDTH 647 0
DWIDTH 11 0
BBX 9 9 1 0
BITMAP
E380
7700
7E00
FF80
FF80
3E00
7700
E780
E380
ENDCHAR
STARTCHAR 0500
ENCODING 1280
SWIDTH 764 0
DWIDTH 13 0
BBX 10 12 1 0
BITMAP
01C0
01C0
01C0
01C0
1FC0
7FC0
FFC0
F1C0
E1C0
F1C0
7FC0
3FC0
ENDCHAR
STARTCHAR 0501
ENCODING 1281
SWIDTH 588 0
DWIDTH 10 0
BBX 8 9 1 0
BITMAP
07
07
07
3F
FF
E7
E7
FF
7F
ENDCHAR
STARTCHAR 0502
ENCODING 1282
SWIDTH 1176 0
DWIDTH 20 0
BBX 17 12 1 0
BITMAP
01C000
01C000
01C000
01C380
1FC380
7FC380
FFC380
F1C380
E1E380
F3E780
7FFF00
3E7E00
ENDCHAR
STARTCHAR 0503
ENCODING 1283
SWIDTH 882 0
DWIDTH 15 0
BBX 13 9 1 0
BITMAP
0700
0700
0700
3F18
FF18
E718
E738
FFF8
79F0
ENDCHAR
STARTCHAR 0504
ENCODING 1284
SWIDTH 1117 0
DWIDTH 19 0
BBX 15 13 2 0
BITMAP
3800
FE00
FF00
0700
070E
0E0E
7C0E
7F0E
070E
070E
079E
03FE
01F8
ENDCHAR
STARTCHAR 0505
ENCODING 1285
SWIDTH 941 0
DWIDTH 16 0
BBX 13 10 1 0
BITMAP
1000
FE00
CE00
0E00
3C38
3E38
0E38
0738
07F8
03F0
ENDCHAR
STARTCHAR 0506
ENCODING 1286
SWIDTH 823 0
DWIDTH 14 0
BBX 12 17 2 -4
BITMAP
3800
FE00
FF00
0700
0700
0E00
7C00
7F00
0700
0700
0700
07F0
07F0
00F0
00F0
00F0
00F0
ENDCHAR
STARTCHAR 0507
ENCODING 1287
SWIDTH 705 0
DWIDTH 12 0
BBX 10 14 1 -4
BITMAP
1000
FE00
CE00
0E00
3C00
3C00
0E00
0600
07C0
07C0
01C0
01C0
01C0
01C0
ENDCHAR
STARTCHAR 0508
ENCODING 1288
SWIDTH 1235 0
DWIDTH 21 0
BBX 20 12 0 0
BITMAP
0FF800
0FF800
0E7800
0E78F0
0E78F0
0E78F0
1E78F0
1C78F0
1C78E0
3C38E0
F83FE0
F01FC0
ENDCHAR
STARTCHAR 0509
ENCODING 1289
SWIDTH 1000 0
DWIDTH 17 0
BBX 16 9 0 0
BITMAP
1FC0
1FC0
1DC0
1DC7
1DC7
1DC7
39E7
F8FE
F07C
ENDCHAR
STARTCHAR 050A
ENCODING 1290
SWIDTH 1294 0
DWIDTH 22 0
BBX 18 12 2 0
BITMAP
E1E000
E1E000
E1E000
E1E1C0
FFE1C0
FFE1C0
FFE1C0
E1E1C0
E0E1C0
E0E3C0
E0FF80
E03F00
ENDCHAR
STARTCHAR 050B
ENCODING 1291
SWIDTH 1000 0
DWIDTH 17 0
BBX 15 9 1 0
BITMAP
E380
E380
E380
FF8E
FF8E
E38E
E3CE
E1FC
E0F8
ENDCHAR
STARTCHAR 050C
ENCODING 1292
SWIDTH 823 0
DWIDTH 14 0
BBX 12 13 1 0
BITMAP
0700
3FE0
7FE0
7000
F000
E070
E070
E070
E070
F0F0
78E0
3FE0
1FC0
ENDCHAR
STARTCHAR 050D
ENCODING 1293
SWIDTH 647 0
DWIDTH 11 0
BBX 8 9 1 0
BITMAP
3F
7F
E0
C0
C3
C3
E7
7F
3E
ENDCHAR
STARTCHAR 050E
ENCODING 1294
SWIDTH 941 0
DWIDTH 16 0
BBX 14 12 0 0
BITMAP
FFF0
FFF0
0E00
0E1C
0E1C
0E1C
0E1C
0E1C
0F1C
073C
07F8
03F0
ENDCHAR
STARTCHAR 050F
ENCODING 1295
SWIDTH 823 0
DWIDTH 14 0
BBX 12 9 0 0
BITMAP
FFC0
FFC0
1C00
1C70
1C70
1C70
0E70
0FE0
07C0
ENDCHAR
STARTCHAR 0510
ENCODING 1296
SWIDTH 705 0
DWIDTH 12 0
BBX 9 12 1 0
BITMAP
3E00
7F00
F180
F000
7000
3E00
7E00
F000
E000
F080
7F80
3F00
ENDCHAR
STARTCHAR 0511
ENCODING 1297
SWIDTH 529 0
DWIDTH 9 0
BBX 7 9 1 0
BITMAP
7C
FE
E2
7C
7C
E0
E2
FE
7E
ENDCHAR
STARTCHAR 0512
ENCODING 1298
SWIDTH 823 0
DWIDTH 14 0
BBX 12 15 1 -3
BITMAP
1FF0
1FF0
1CF0
1CF0
1CF0
1CF0
1CF0
3CF0
38F0
F8F0
F0F0
C0F0
00E0
03E0
03C0
ENDCHAR
STARTCHAR 0513
ENCODING 1299
SWIDTH 705 0
DWIDTH 12 0
BBX 10 13 1 -4
BITMAP
3FC0
3FC0
39C0
39C0
39C0
39C0
79C0
F1C0
E1C0
01C0
01C0
0780
0700
ENDCHAR
STARTCHAR 0514
ENCODING 1300
SWIDTH 1294 0
DWIDTH 22 0
BBX 20 12 1 0
BITMAP
1FF0F0
1FF8E0
1C3DC0
1C1FC0
1C0F80
1C0F00
1C0F80
3C1F80
383DC0
F839E0
F070E0
C0F070
ENDCHAR
STARTCHAR 0515
ENCODING 1301
SWIDTH 1058 0
DWIDTH 18 0
BBX 17 9 1 0
BITMAP
3FC700
3FEE00
387E00
387C00
383C00
387C00
78EE00
F0E700
E1C780
ENDCHAR
STARTCHAR 0516
ENCODING 1302
SWIDTH 1058 0
DWIDTH 18 0
BBX 15 12 2 0
BITMAP
FF0E
FF9C
E3FC
E3F8
E3F0
FFF0
FFF0
FE78
E038
E01C
E01E
E00E
ENDCHAR
STARTCHAR 0517
ENCODING 1303
SWIDTH 1000 0
DWIDTH 17 0
BBX 15 14 1 -4
BITMAP
0200
EF9E
FFDC
F1F8
E1F0
E1F0
F1F8
F1FC
FFDC
EF8E
E000
E000
E000
E000
ENDCHAR
STARTCHAR 0518
ENCODING 1304
SWIDTH 1058 0
DWIDTH 18 0
BBX 16 12 1 0
BITMAP
3FFF
7FFF
71E0
71E0
71FF
7FFF
1FFF
1DE0
3DE0
39E0
71FF
F1FF
ENDCHAR
STARTCHAR 0519
ENCODING 1305
SWIDTH 1000 0
DWIDTH 17 0
BBX 15 10 1 0
BITMAP
0020
7FFC
FFDE
E38E
E3FE
7FFE
3F80
7382
E3FE
E0FE
ENDCHAR
STARTCHAR 051A
ENCODING 1306
SWIDTH 823 0
DWIDTH 14 0
BBX 13 14 1 -2
BITMAP
1F80
3FE0
78F0
F070
E070
E078
E078
E070
F070
70F0
3FE0
1F80
01C0
00E0
ENDCHAR
STARTCHAR 051B
ENCODING 1307
SWIDTH 705 0
DWIDTH 12 0
BBX 10 13 1 -4
BITMAP
39C0
7DC0
E3C0
E1C0
E1C0
E1C0
E3C0
7DC0
39C0
01C0
01C0
01C0
01C0
ENDCHAR
STARTCHAR 051C
ENCODING 1308
SWIDTH 1117 0
DWIDTH 19 0
BBX 17 12 1 0
BITMAP
E1C380
E3C380
E3E380
E36700
736700
736700
767700
767E00
3E3E00
3E3E00
3E3E00
3C3C00
ENDCHAR
STARTCHAR 051D
ENCODING 1309
SWIDTH 941 0
DWIDTH 16 0
BBX 14 9 1 0
BITMAP
E71C
E71C
E798
67B8
7DB8
7CB8
7CF0
3CF0
38F0
ENDCHAR
STARTCHAR 051E
ENCODING 1310
SWIDTH 823 0
DWIDTH 14 0
BBX 11 12 2 0
BITMAP
EDE0
E7C0
E780
EF80
FE40
FE00
FF00
F700
E380
E3C0
E1E0
E0E0
ENDCHAR
STARTCHAR 051F
ENCODING 1311
SWIDTH 705 0
DWIDTH 12 0
BBX 10 9 1 0
BITMAP
EF80
E700
EF00
FC00
FE00
F700
E700
E380
E1C0
ENDCHAR
STARTCHAR 0520
ENCODING 1312
SWIDTH 1294 0
DWIDTH 22 0
BBX 19 15 1 -3
BITMAP
1FF000
1FF000
1CF000
1CF000
1CFF80
1CFFC0
1CFFE0
3CF0E0
38F0E0
F8F0E0
F0F0E0
C0F0E0
0001E0
0007E0
0007C0
ENDCHAR
STARTCHAR 0521
ENCODING 1313
SWIDTH 1058 0
DWIDTH 18 0
BBX 16 13 1 -4
BITMAP
3FC0
3FC0
39C0
39F0
39FE
39CE
79C7
F1C7
E1C7
0007
000E
001E
0018
ENDCHAR
STARTCHAR 0522
ENCODING 1314
SWIDTH 1294 0
DWIDTH 22 0
BBX 18 15 2 -3
BITMAP
E1E000
E1E000
E1E000
E1E000
FFFF00
FFFFC0
FFFFC0
E1E1C0
E1E1C0
E1E1C0
E1E1C0
E1E1C0
0001C0
0007C0
000780
ENDCHAR
STARTCHAR 0523
ENCODING 1315
SWIDTH 1000 0
DWIDTH 17 0
BBX 15 13 1 -4
BITMAP
E380
E380
E380
FFF0
FFFC
E39E
E38E
E38E
E38E
000E
001E
003C
0038
ENDCHAR
STARTCHAR 0524
ENCODING 1316
SWIDTH 941 0
DWIDTH 16 0
BBX 14 15 2 -3
BITMAP
FFE0
FFE0
E1E0
E1E0
E1E0
E1E0
E1E0
E1E0
E1E0
E1E0
E1FC
E1FC
001C
001C
001C
ENDCHAR
STARTCHAR 0525
ENCODING 1317
SWIDTH 823 0
DWIDTH 14 0
BBX 12 11 1 -2
BITMAP
FF80
FF80
E380
E380
E380
E380
E380
E3F0
E3F0
0070
0070
ENDCHAR
STARTCHAR 0531
ENCODING 1329
SWIDTH 823 0
DWIDTH 14 0
BBX 11 12 1 -1
BITMAP
E0E0
E0E0
E0E0
E0E0
E0E0
E0E0
E2E0
E7E0
77E0
73E0
7FE0
1FE0
ENDCHAR
STARTCHAR 0532
ENCODING 1330
SWIDTH 705 0
DWIDTH 12 0
BBX 10 13 1 0
BITMAP
0E00
3F80
7F80
71C0
E1C0
E1C0
E000
FFC0
FFC0
E000
E000
E000
E000
ENDCHAR
STARTCHAR 0533
ENCODING 1331
SWIDTH 705 0
DWIDTH 12 0
BBX 12 13 0 0
BITMAP
0E00
3F80
7FC0
71C0
E1C0
E1C0
71C0
7FF0
3FF0
01C0
01C0
01C0
01C0
ENDCHAR
STARTCHAR 0534
ENCODING 1332
SWIDTH 705 0
DWIDTH 12 0
BBX 12 13 0 0
BITMAP
0E00
3F80
7F80
71C0
E1C0
E1C0
01C0
01F0
01F0
01C0
01C0
01C0
01C0
ENDCHAR
STARTCHAR 0535
ENCODING 1333
SWIDTH 705 0
DWIDTH 12 0
BBX 10 12 1 0
BITMAP
E000
E000
E000
FFC0
FFC0
E000
E000
E1C0
61C0
73C0
7F80
3F00
ENDCHAR
STARTCHAR 0536
ENCODING 1334
SWIDTH 705 0
DWIDTH 12 0
BBX 10 13 1 0
BITMAP
0C00
3F80
7B80
E1C0
E1C0
E1C0
01C0
01C0
01C0
0380
EF00
FFC0
FFC0
ENDCHAR
STARTCHAR 0537
ENCODING 1335
SWIDTH 647 0
DWIDTH 11 0
BBX 10 12 1 0
BITMAP
E000
E000
E000
FFC0
FFC0
E000
E000
E000
E000
E000
FF80
FF80
ENDCHAR
STARTCHAR 0538
ENCODING 1336
SWIDTH 705 0
DWIDTH 12 0
BBX 10 13 1 0
BITMAP
0E00
3F80
7F80
71C0
E1C0
E1C0
E000
E000
E000
E000
E000
FFC0
FFC0
ENDCHAR
STARTCHAR 0539
ENCODING 1337
SWIDTH 882 0
DWIDTH 15 0
BBX 14 13 1 0
BITMAP
0700
3FE0
7FF0
7078
E038
E0FC
E3FC
E7FC
E738
E738
E738
E7F0
E3E0
ENDCHAR
STARTCHAR 053A
ENCODING 1338
SWIDTH 705 0
DWIDTH 12 0
BBX 12 12 0 0
BITMAP
01C0
01C0
01C0
3FF0
7FF0
71C0
61C0
E1C0
71C0
73C0
7F80
1F00
ENDCHAR
STARTCHAR 053B
ENCODING 1339
SWIDTH 647 0
DWIDTH 11 0
BBX 10 12 1 0
BITMAP
E000
E000
E000
FF00
FF80
F1C0
E1C0
E1C0
E000
E000
E000
E000
ENDCHAR
STARTCHAR 053C
ENCODING 1340
SWIDTH 529 0
DWIDTH 9 0
BBX 8 12 1 0
BITMAP
E0
E0
E0
E0
E0
E0
E0
E0
E0
E0
FF
FF
ENDCHAR
STARTCHAR 053D
ENCODING 1341
SWIDTH 941 0
DWIDTH 16 0
BBX 14 12 1 0
BITMAP
E000
E000
E000
FF1C
FF1C
E31C
E31C
E31C
E39C
E39C
E3F8
E1F0
ENDCHAR
STARTCHAR 053E
ENCODING 1342
SWIDTH 764 0
DWIDTH 13 0
BBX 11 13 1 0
BITMAP
0180
EFE0
FFE0
FFA0
FFC0
71E0
70E0
70E0
70E0
70E0
70E0
3FC0
1F80
ENDCHAR
STARTCHAR 053F
ENCODING 1343
SWIDTH 705 0
DWIDTH 12 0
BBX 10 12 1 0
BITMAP
E000
E000
E000
E1C0
E1C0
E1C0
73C0
7FC0
3FC0
01C0
01C0
01C0
ENDCHAR
STARTCHAR 0540
ENCODING 1344
SWIDTH 647 0
DWIDTH 11 0
BBX 10 13 0 -1
BITMAP
0700
0380
03C0
0F80
1E00
7800
7000
F000
FE00
7FC0
0FC0
03C0
0040
ENDCHAR
STARTCHAR 0541
ENCODING 1345
SWIDTH 705 0
DWIDTH 12 0
BBX 10 14 1 -1
BITMAP
0C00
3F80
7B80
E1C0
E1C0
E1C0
01C0
01C0
7DC0
FF80
E780
FFC0
7DC0
0080
ENDCHAR
STARTCHAR 0542
ENCODING 1346
SWIDTH 705 0
DWIDTH 12 0
BBX 12 13 0 0
BITMAP
0E00
3F80
7F80
71C0
E1C0
E1C0
01C0
01C0
01C0
01C0
01C0
01F0
01F0
ENDCHAR
STARTCHAR 0543
ENCODING 1347
SWIDTH 705 0
DWIDTH 12 0
BBX 11 12 0 1
BITMAP
39C0
1FC0
1F00
1E00
1F00
3F80
7380
71C0
61C0
E0E0
FFE0
7FE0
ENDCHAR
STARTCHAR 0544
ENCODING 1348
SWIDTH 764 0
DWIDTH 13 0
BBX 12 12 1 0
BITMAP
E1F0
E1F0
E1C0
E1C0
E1C0
E1C0
E1C0
E1C0
61C0
73C0
7F80
3F00
ENDCHAR
STARTCHAR 0545
ENCODING 1349
SWIDTH 705 0
DWIDTH 12 0
BBX 10 13 1 0
BITMAP
0C00
3F00
7780
7380
0380
FF80
FF00
FF80
01C0
E1C0
E1C0
7F80
3F00
ENDCHAR
STARTCHAR 0546
ENCODING 1350
SWIDTH 705 0
DWIDTH 12 0
BBX 12 12 0 0
BITMAP
F800
F800
3800
3800
3800
3800
3800
3870
3870
1CF0
1FE0
0FC0
ENDCHAR
STARTCHAR 0547
ENCODING 1351
SWIDTH 705 0
DWIDTH 12 0
BBX 10 12 1 0
BITMAP
FF00
FFC0
3FC0
71C0
E040
E000
E1C0
E1C0
E1C0
71C0
7F80
3F00
ENDCHAR
STARTCHAR 0548
ENCODING 1352
SWIDTH 705 0
DWIDTH 12 0
BBX 10 13 1 0
BITMAP
0E00
3F80
7F80
71C0
E1C0
E1C0
E1C0
E1C0
E1C0
E1C0
E1C0
E1C0
E1C0
ENDCHAR
STARTCHAR 0549
ENCODING 1353
SWIDTH 705 0
DWIDTH 12 0
BBX 10 13 1 -1
BITMAP
1C00
7F00
F780
E3C0
E1C0
E1C0
01C0
01C0
2380
3F00
3E00
3E00
0600
ENDCHAR
STARTCHAR 054A
ENCODING 1354
SWIDTH 882 0
DWIDTH 15 0
BBX 13 13 0 0
BITMAP
0780
3FE0
7FF0
7738
E738
E718
0718
0718
0718
0018
0018
0018
0018
ENDCHAR
STARTCHAR 054B
ENCODING 1355
SWIDTH 705 0
DWIDTH 12 0
BBX 10 13 1 0
BITMAP
0C00
7F00
7780
E1C0
E1C0
E1C0
FDC0
7FC0
0780
0780
EF00
FFC0
FFC0
ENDCHAR
STARTCHAR 054C
ENCODING 1356
SWIDTH 764 0
DWIDTH 13 0
BBX 12 13 1 0
BITMAP
0E00
3F80
7F80
71C0
E1C0
E1C0
E1C0
E1F0
E1F0
E1C0
E1C0
E1C0
E1C0
ENDCHAR
STARTCHAR 054D
ENCODING 1357
SWIDTH 705 0
DWIDTH 12 0
BBX 10 12 2 0
BITMAP
E1C0
E1C0
E1C0
E1C0
E1C0
E1C0
E1C0
E1C0
E1C0
E3C0
7F80
3F00
ENDCHAR
STARTCHAR 054E
ENCODING 1358
SWIDTH 705 0
DWIDTH 12 0
BBX 12 12 0 0
BITMAP
01C0
01C0
01C0
01C0
E1C0
E1C0
73C0
7FC0
3FC0
01C0
01F0
01F0
ENDCHAR
STARTCHAR 054F
ENCODING 1359
SWIDTH 705 0
DWIDTH 12 0
BBX 10 13 1 0
BITMAP
1C00
3F00
7780
6380
7000
7C00
7F80
1F80
03C0
E1C0
E1C0
7F80
3F00
ENDCHAR
STARTCHAR 0550
ENCODING 1360
SWIDTH 647 0
DWIDTH 11 0
BBX 10 13 1 0
BITMAP
0E00
3F80
7F80
71C0
E1C0
E1C0
E000
E000
E000
E000
E000
E000
E000
ENDCHAR
STARTCHAR 0551
ENCODING 1361
SWIDTH 705 0
DWIDTH 12 0
BBX 10 13 1 0
BITMAP
0C00
3F00
7780
7380
7380
FF80
FF00
FF80
01C0
E1C0
E1C0
7F80
3F00
ENDCHAR
STARTCHAR 0552
ENCODING 1362
SWIDTH 588 0
DWIDTH 10 0
BBX 9 12 1 0
BITMAP
E000
E000
E000
FF80
FF80
E000
E000
E000
E000
E000
E000
E000
ENDCHAR
STARTCHAR 0553
ENCODING 1363
SWIDTH 823 0
DWIDTH 14 0
BBX 14 12 0 0
BITMAP
0380
1FE0
3FF8
7BF8
739C
E39C
E39C
73BC
7FF8
3FF0
0FC0
0380
ENDCHAR
STARTCHAR 0554
ENCODING 1364
SWIDTH 705 0
DWIDTH 12 0
BBX 11 13 0 0
BITMAP
0700
1FC0
3DC0
38E0
30E0
70E0
79E0
7FC0
7F80
7000
FFE0
FFE0
7000
ENDCHAR
STARTCHAR 0555
ENCODING 1365
SWIDTH 764 0
DWIDTH 13 0
BBX 13 12 1 0
BITMAP
1F80
3FE0
78F0
F070
E070
E078
E078
E070
F070
78F0
3FE0
1F80
ENDCHAR
STARTCHAR 0556
ENCODING 1366
SWIDTH 882 0
DWIDTH 15 0
BBX 13 12 1 0
BITMAP
7F00
7F00
6700
7FE0
3FF0
0778
0738
E738
E738
F778
7FF0
3FE0
ENDCHAR
STARTCHAR 0559
ENCODING 1369
SWIDTH 352 0
DWIDTH 6 0
BBX 2 5 2 8
BITMAP
40
80
80
C0
40
ENDCHAR
STARTCHAR 055A
ENCODING 1370
SWIDTH 352 0
DWIDTH 6 0
BBX 3 5 1 7
BITMAP
60
60
60
C0
C0
ENDCHAR
STARTCHAR 055B
ENCODING 1371
SWIDTH 294 0
DWIDTH 5 0
BBX 5 4 0 10
BITMAP
38
70
60
E0
ENDCHAR
STARTCHAR 055C
ENCODING 1372
SWIDTH 352 0
DWIDTH 6 0
BBX 6 5 0 10
BITMAP
0C
1C
78
E0
C0
ENDCHAR
STARTCHAR 055D
ENCODING 1373
SWIDTH 294 0
DWIDTH 5 0
BBX 5 4 0 10
BITMAP
E0
70
30
38
ENDCHAR
STARTCHAR 055E
ENCODING 1374
SWIDTH 470 0
DWIDTH 8 0
BBX 8 5 0 10
BITMAP
1C
7F
67
DF
CE
ENDCHAR
STARTCHAR 055F
ENCODING 1375
SWIDTH 470 0
DWIDTH 8 0
BBX 6 5 1 10
BITMAP
40
C0
C0
FC
FC
ENDCHAR
STARTCHAR 0561
ENCODING 1377
SWIDTH 941 0
DWIDTH 16 0
BBX 14 9 1 0
BITMAP
E31C
E31C
E31C
E31C
E31C
E71C
E7BC
7FFC
79DC
ENDCHAR
STARTCHAR 0562
ENCODING 1378
SWIDTH 647 0
DWIDTH 11 0
BBX 9 14 1 -4
BITMAP
0400
FF00
FF00
E380
E380
E380
E000
E000
FF80
FF80
E000
E000
E000
E000
ENDCHAR
STARTCHAR 0563
ENCODING 1379
SWIDTH 705 0
DWIDTH 12 0
BBX 11 13 1 -3
BITMAP
7F80
FF80
E380
C380
C380
E380
E780
FFE0
7BE0
0380
0380
0380
0380
ENDCHAR
STARTCHAR 0564
ENCODING 1380
SWIDTH 705 0
DWIDTH 12 0
BBX 11 14 1 -4
BITMAP
0400
FF00
FF00
E380
E380
E380
E380
E380
E3E0
E3E0
0380
0380
0380
0380
ENDCHAR
STARTCHAR 0565
ENCODING 1381
SWIDTH 647 0
DWIDTH 11 0
BBX 9 13 1 0
BITMAP
E000
E000
E000
E000
FF80
FF80
E000
E380
E380
E380
E780
7F80
7B80
ENDCHAR
STARTCHAR 0566
ENCODING 1382
SWIDTH 647 0
DWIDTH 11 0
BBX 11 13 1 -3
BITMAP
7F80
FF80
E380
C380
C380
E380
E780
FF80
7B80
0380
03E0
03E0
03E0
ENDCHAR
STARTCHAR 0567
ENCODING 1383
SWIDTH 588 0
DWIDTH 10 0
BBX 8 13 1 0
BITMAP
E0
E0
E0
E0
FF
FF
E0
E0
E0
E0
E0
FE
FE
ENDCHAR
STARTCHAR 0568
ENCODING 1384
SWIDTH 647 0
DWIDTH 11 0
BBX 9 14 1 -4
BITMAP
0400
FF00
FF00
E380
E380
E380
E380
E380
E380
E380
E000
FF80
FF80
FF80
ENDCHAR
STARTCHAR 0569
ENCODING 1385
SWIDTH 764 0
DWIDTH 13 0
BBX 12 14 1 -4
BITMAP
0200
FF80
FFC0
F0E0
E0E0
E7F0
EFF0
ECE0
EFC0
E780
E000
E000
E000
E000
ENDCHAR
STARTCHAR 056A
ENCODING 1386
SWIDTH 705 0
DWIDTH 12 0
BBX 11 13 1 0
BITMAP
0380
0380
0380
0380
7FE0
FFE0
E380
C380
C380
E380
E700
FF00
7E00
ENDCHAR
STARTCHAR 056B
ENCODING 1387
SWIDTH 647 0
DWIDTH 11 0
BBX 9 17 1 -4
BITMAP
E000
E000
E000
E400
FF00
FF00
E380
E380
E380
E380
E380
E380
E380
E000
E000
E000
E000
ENDCHAR
STARTCHAR 056C
ENCODING 1388
SWIDTH 294 0
DWIDTH 5 0
BBX 6 13 1 -4
BITMAP
E0
E0
E0
E0
E0
E0
E0
E0
E0
E0
FC
FC
FC
ENDCHAR
STARTCHAR 056D
ENCODING 1389
SWIDTH 1000 0
DWIDTH 17 0
BBX 14 17 1 -4
BITMAP
E000
E000
E000
E400
FF0C
FF0C
E38C
E38C
E38C
E38C
E39C
E3FC
E1EC
E000
E000
E000
E000
ENDCHAR
STARTCHAR 056E
ENCODING 1390
SWIDTH 647 0
DWIDTH 11 0
BBX 9 13 1 0
BITMAP
1C00
3800
7800
3C00
7F80
FF80
E380
E380
C380
E380
E380
7F00
3E00
ENDCHAR
STARTCHAR 056F
ENCODING 1391
SWIDTH 647 0
DWIDTH 11 0
BBX 9 17 1 -4
BITMAP
E000
E000
E000
E000
E380
E380
E380
E380
E380
E380
E780
7F80
7B80
0380
0380
0380
0380
ENDCHAR
STARTCHAR 0570
ENCODING 1392
SWIDTH 647 0
DWIDTH 11 0
BBX 9 13 1 0
BITMAP
E000
E000
E000
E400
FF00
FF00
E380
E380
E380
E380
E380
E380
E380
ENDCHAR
STARTCHAR 0571
ENCODING 1393
SWIDTH 588 0
DWIDTH 10 0
BBX 9 13 0 0
BITMAP
3800
3800
3A00
1E00
1E00
3F00
3300
7380
6380
E380
7380
7F80
3F80
ENDCHAR
STARTCHAR 0572
ENCODING 1394
SWIDTH 647 0
DWIDTH 11 0
BBX 11 14 1 -4
BITMAP
0400
FF00
FF00
E380
E380
E380
E380
E380
E380
E380
0380
03E0
03E0
03E0
ENDCHAR
STARTCHAR 0573
ENCODING 1395
SWIDTH 647 0
DWIDTH 11 0
BBX 9 13 1 0
BITMAP
0780
0F80
1C00
3800
FE00
FF00
6300
E380
E380
E380
E780
FF80
7B80
ENDCHAR
STARTCHAR 0574
ENCODING 1396
SWIDTH 647 0
DWIDTH 11 0
BBX 11 13 1 0
BITMAP
03E0
03E0
0380
0380
E380
E380
E380
E380
E380
E380
E780
7F80
7B80
ENDCHAR
STARTCHAR 0575
ENCODING 1397
SWIDTH 294 0
DWIDTH 5 0
BBX 5 13 -1 -4
BITMAP
38
38
38
38
38
38
38
38
38
38
38
F0
E0
ENDCHAR
STARTCHAR 0576
ENCODING 1398
SWIDTH 647 0
DWIDTH 11 0
BBX 11 13 -1 0
BITMAP
F800
F800
3800
3800
38E0
38E0
38E0
38E0
38E0
38E0
39E0
1FE0
1EE0
ENDCHAR
STARTCHAR 0577
ENCODING 1399
SWIDTH 470 0
DWIDTH 8 0
BBX 8 14 0 -4
BITMAP
10
7E
7E
07
07
07
0E
1C
38
70
60
FE
FE
3E
ENDCHAR
STARTCHAR 0578
ENCODING 1400
SWIDTH 647 0
DWIDTH 11 0
BBX 9 10 1 0
BITMAP
0400
FF00
FF00
E380
E380
E380
E380
E380
E380
E380
ENDCHAR
STARTCHAR 0579
ENCODING 1401
SWIDTH 352 0
DWIDTH 6 0
BBX 6 13 0 -4
BITMAP
70
60
60
78
38
38
70
70
E0
E0
FC
FC
3C
ENDCHAR
STARTCHAR 057A
ENCODING 1402
SWIDTH 941 0
DWIDTH 16 0
BBX 14 13 1 -4
BITMAP
E31C
E31C
E31C
E31C
E31C
E71C
E73C
7FFC
79DC
001C
001C
001C
001C
ENDCHAR
STARTCHAR 057B
ENCODING 1403
SWIDTH 588 0
DWIDTH 10 0
BBX 8 13 1 -3
BITMAP
7E
FF
E7
E7
E7
6E
7C
78
70
E0
FF
FF
7F
ENDCHAR
STARTCHAR 057C
ENCODING 1404
SWIDTH 647 0
DWIDTH 11 0
BBX 10 10 1 0
BITMAP
0400
FF00
FF80
E380
E380
E380
E300
E700
E7C0
EFC0
ENDCHAR
STARTCHAR 057D
ENCODING 1405
SWIDTH 647 0
DWIDTH 11 0
BBX 9 9 1 0
BITMAP
E380
E380
E380
E380
E380
E380
E780
7F80
7B80
ENDCHAR
STARTCHAR 057E
ENCODING 1406
SWIDTH 647 0
DWIDTH 11 0
BBX 11 17 1 -4
BITMAP
0380
0380
0380
0380
E380
E380
E380
E380
E380
E380
E780
7F80
7B80
0380
03E0
03E0
03E0
ENDCHAR
STARTCHAR 057F
ENCODING 1407
SWIDTH 941 0
DWIDTH 16 0
BBX 14 9 1 1
BITMAP
E378
E3F8
E39C
E31C
E31C
E71C
E71C
7F1C
7B1C
ENDCHAR
STARTCHAR 0580
ENCODING 1408
SWIDTH 647 0
DWIDTH 11 0
BBX 9 14 1 -4
BITMAP
0400
FF00
FF00
E380
E380
E380
E380
E380
E380
E380
E000
E000
E000
E000
ENDCHAR
STARTCHAR 0581
ENCODING 1409
SWIDTH 647 0
DWIDTH 11 0
BBX 10 13 1 -4
BITMAP
39C0
7DC0
E3C0
E1C0
E1C0
E1C0
E3C0
7DC0
39C0
03C0
4380
7F00
3E00
ENDCHAR
STARTCHAR 0582
ENCODING 1410
SWIDTH 470 0
DWIDTH 8 0
BBX 7 9 1 0
BITMAP
E0
E0
E0
E0
E0
E0
E0
FE
FE
ENDCHAR
STARTCHAR 0583
ENCODING 1411
SWIDTH 941 0
DWIDTH 16 0
BBX 14 17 1 -4
BITMAP
0300
0300
0300
0300
E378
E3F8
E39C
E31C
E31C
E71C
E71C
7F1C
7B1C
0300
0300
0300
0300
ENDCHAR
STARTCHAR 0584
ENCODING 1412
SWIDTH 647 0
DWIDTH 11 0
BBX 11 14 -1 -4
BITMAP
0100
3FC0
3FE0
38E0
38E0
38E0
38E0
38E0
3FE0
3BC0
3800
FFE0
FFE0
3800
ENDCHAR
STARTCHAR 0585
ENCODING 1413
SWIDTH 647 0
DWIDTH 11 0
BBX 10 9 1 0
BITMAP
3F00
7F80
E3C0
E1C0
E1C0
E1C0
E3C0
7F80
3F00
ENDCHAR
STARTCHAR 0586
ENCODING 1414
SWIDTH 823 0
DWIDTH 14 0
BBX 12 16 1 -3
BITMAP
3E00
7E00
6E00
6E00
7FC0
3FE0
0E70
CE70
CE70
CE70
EEF0
7FE0
3F80
0E00
0E00
0E00
ENDCHAR
STARTCHAR 0587
ENCODING 1415
SWIDTH 823 0
DWIDTH 14 0
BBX 13 13 1 0
BITMAP
E000
E000
E000
E000
E380
E380
E380
E380
E380
E380
E780
7FF8
7BF8
ENDCHAR
STARTCHAR 0589
ENCODING 1417
SWIDTH 352 0
DWIDTH 6 0
BBX 2 9 2 0
BITMAP
C0
C0
C0
00
00
00
C0
C0
C0
ENDCHAR
STARTCHAR 058A
ENCODING 1418
SWIDTH 352 0
DWIDTH 6 0
BBX 5 3 1 3
BITMAP
98
F8
F0
ENDCHAR
STARTCHAR 05B0
ENCODING 1456
SWIDTH 0 0
DWIDTH 0 0
BBX 2 4 5 -4
BITMAP
C0
C0
C0
C0
ENDCHAR
STARTCHAR 05B1
ENCODING 1457
SWIDTH 0 0
DWIDTH 0 0
BBX 7 4 2 -4
BITMAP
D6
D6
26
26
ENDCHAR
STARTCHAR 05B2
ENCODING 1458
SWIDTH 0 0
DWIDTH 0 0
BBX 6 4 2 -4
BITMAP
F4
F4
04
04
ENDCHAR
STARTCHAR 05B3
ENCODING 1459
SWIDTH 0 0
DWIDTH 0 0
BBX 6 4 2 -4
BITMAP
F4
F4
64
64
ENDCHAR
STARTCHAR 05B4
ENCODING 1460
SWIDTH 0 0
DWIDTH 0 0
BBX 2 2 5 -3
BITMAP
C0
C0
ENDCHAR
STARTCHAR 05B5
ENCODING 1461
SWIDTH 0 0
DWIDTH 0 0
BBX 4 2 4 -3
BITMAP
B0
B0
ENDCHAR
STARTCHAR 05B6
ENCODING 1462
SWIDTH 0 0
DWIDTH 0 0
BBX 4 4 4 -4
BITMAP
F0
F0
60
60
ENDCHAR
STARTCHAR 05B7
ENCODING 1463
SWIDTH 0 0
DWIDTH 0 0
BBX 6 2 3 -2
BITMAP
FC
FC
ENDCHAR
STARTCHAR 05B8
ENCODING 1464
SWIDTH 0 0
DWIDTH 0 0
BBX 6 3 3 -3
BITMAP
FC
30
30
ENDCHAR
STARTCHAR 05B9
ENCODING 1465
SWIDTH 0 0
DWIDTH 0 0
BBX 1 1 0 9
BITMAP
80
ENDCHAR
STARTCHAR 05BA
ENCODING 1466
SWIDTH 0 0
DWIDTH 0 0
BBX 1 1 0 9
BITMAP
80
ENDCHAR
STARTCHAR 05BB
ENCODING 1467
SWIDTH 0 0
DWIDTH 0 0
BBX 6 4 3 -4
BITMAP
C0
F0
3C
0C
ENDCHAR
STARTCHAR 05BC
ENCODING 1468
SWIDTH 0 0
DWIDTH 0 0
BBX 2 1 5 4
BITMAP
C0
ENDCHAR
STARTCHAR 05BD
ENCODING 1469
SWIDTH 0 0
DWIDTH 0 0
BBX 2 4 5 -4
BITMAP
C0
C0
C0
C0
ENDCHAR
STARTCHAR 05BE
ENCODING 1470
SWIDTH 411 0
DWIDTH 7 0
BBX 5 2 1 7
BITMAP
F8
F8
ENDCHAR
STARTCHAR 05BF
ENCODING 1471
SWIDTH 0 0
DWIDTH 0 0
BBX 6 2 3 9
BITMAP
FC
FC
ENDCHAR
STARTCHAR 05C0
ENCODING 1472
SWIDTH 352 0
DWIDTH 6 0
BBX 3 13 2 -2
BITMAP
E0
E0
E0
E0
E0
E0
E0
E0
E0
E0
E0
E0
E0
ENDCHAR
STARTCHAR 05C1
ENCODING 1473
SWIDTH 0 0
DWIDTH 0 0
BBX 1 2 13 10
BITMAP
80
80
ENDCHAR
STARTCHAR 05C2
ENCODING 1474
SWIDTH 0 0
DWIDTH 0 0
BBX 2 2 2 10
BITMAP
C0
C0
ENDCHAR
STARTCHAR 05C3
ENCODING 1475
SWIDTH 352 0
DWIDTH 6 0
BBX 3 9 2 0
BITMAP
E0
E0
E0
00
00
00
E0
E0
E0
ENDCHAR
STARTCHAR 05C6
ENCODING 1478
SWIDTH 470 0
DWIDTH 8 0
BBX 7 9 1 0
BITMAP
7C
7C
F0
E0
E0
E0
E0
FE
FE
ENDCHAR
STARTCHAR 05C7
ENCODING 1479
SWIDTH 0 0
DWIDTH 0 0
BBX 6 4 3 -4
BITMAP
FC
FC
30
30
ENDCHAR
STARTCHAR 05D0
ENCODING 1488
SWIDTH 705 0
DWIDTH 12 0
BBX 9 9 2 0
BITMAP
E380
F380
7380
3B00
7F00
FC00
EE00
E700
E380
ENDCHAR
STARTCHAR 05D1
ENCODING 1489
SWIDTH 588 0
DWIDTH 10 0
BBX 9 9 1 0
BITMAP
FC00
FE00
0E00
0600
0600
0600
0600
FF80
FF80
ENDCHAR
STARTCHAR 05D2
ENCODING 1490
SWIDTH 470 0
DWIDTH 8 0
BBX 6 9 1 0
BITMAP
F0
F8
38
18
18
18
38
FC
DC
ENDCHAR
STARTCHAR 05D3
ENCODING 1491
SWIDTH 588 0
DWIDTH 10 0
BBX 8 9 1 0
BITMAP
FF
FF
0E
0E
0E
0E
0E
0E
0E
ENDCHAR
STARTCHAR 05D4
ENCODING 1492
SWIDTH 705 0
DWIDTH 12 0
BBX 8 9 2 0
BITMAP
FC
FF
07
47
C7
C7
C7
C7
C7
ENDCHAR
STARTCHAR 05D5
ENCODING 1493
SWIDTH 352 0
DWIDTH 6 0
BBX 2 9 2 0
BITMAP
C0
C0
C0
C0
C0
C0
C0
C0
C0
ENDCHAR
STARTCHAR 05D6
ENCODING 1494
SWIDTH 411 0
DWIDTH 7 0
BBX 5 9 1 0
BITMAP
F8
F8
70
60
60
60
60
60
60
ENDCHAR
STARTCHAR 05D7
ENCODING 1495
SWIDTH 705 0
DWIDTH 12 0
BBX 8 9 2 0
BITMAP
FC
FF
C7
C7
C7
C7
C7
C7
C7
ENDCHAR
STARTCHAR 05D8
ENCODING 1496
SWIDTH 705 0
DWIDTH 12 0
BBX 9 9 2 0
BITMAP
CE00
CF00
C300
C380
C380
C380
E700
FF00
7E00
ENDCHAR
STARTCHAR 05D9
ENCODING 1497
SWIDTH 294 0
DWIDTH 5 0
BBX 3 6 1 3
BITMAP
E0
E0
E0
E0
E0
C0
ENDCHAR
STARTCHAR 05DA
ENCODING 1498
SWIDTH 588 0
DWIDTH 10 0
BBX 7 13 1 -4
BITMAP
F8
FE
0E
0E
06
06
06
06
06
06
06
06
06
ENDCHAR
STARTCHAR 05DB
ENCODING 1499
SWIDTH 588 0
DWIDTH 10 0
BBX 8 9 1 0
BITMAP
F8
FE
0E
07
07
07
0E
FE
F8
ENDCHAR
STARTCHAR 05DC
ENCODING 1500
SWIDTH 588 0
DWIDTH 10 0
BBX 8 12 1 0
BITMAP
C0
C0
C0
FF
FF
06
0E
0C
1C
1C
38
38
ENDCHAR
STARTCHAR 05DD
ENCODING 1501
SWIDTH 705 0
DWIDTH 12 0
BBX 8 9 2 0
BITMAP
FE
FF
C7
C3
C3
C3
C3
FF
FF
ENDCHAR
STARTCHAR 05DE
ENCODING 1502
SWIDTH 705 0
DWIDTH 12 0
BBX 10 9 1 0
BITMAP
EF00
7F80
79C0
71C0
71C0
71C0
71C0
67C0
67C0
ENDCHAR
STARTCHAR 05DF
ENCODING 1503
SWIDTH 352 0
DWIDTH 6 0
BBX 2 13 2 -4
BITMAP
C0
C0
C0
C0
C0
C0
C0
C0
C0
C0
C0
C0
C0
ENDCHAR
STARTCHAR 05E0
ENCODING 1504
SWIDTH 470 0
DWIDTH 8 0
BBX 5 9 1 0
BITMAP
F0
F8
38
38
38
38
38
F8
F8
ENDCHAR
STARTCHAR 05E1
ENCODING 1505
SWIDTH 705 0
DWIDTH 12 0
BBX 9 9 2 0
BITMAP
FE00
FF00
C700
C380
C380
C380
E700
FF00
3E00
ENDCHAR
STARTCHAR 05E2
ENCODING 1506
SWIDTH 647 0
DWIDTH 11 0
BBX 9 10 1 -1
BITMAP
E380
E380
6380
7380
7380
7700
3F00
7C00
F000
8000
ENDCHAR
STARTCHAR 05E3
ENCODING 1507
SWIDTH 647 0
DWIDTH 11 0
BBX 8 13 2 -4
BITMAP
FC
FE
C7
C7
E7
E7
07
07
07
07
07
07
07
ENDCHAR
STARTCHAR 05E4
ENCODING 1508
SWIDTH 647 0
DWIDTH 11 0
BBX 8 9 2 0
BITMAP
FC
FE
C7
C7
E7
E7
07
FE
FC
ENDCHAR
STARTCHAR 05E5
ENCODING 1509
SWIDTH 647 0
DWIDTH 11 0
BBX 8 13 1 -4
BITMAP
C7
E7
77
77
3E
3C
38
38
38
38
38
38
38
ENDCHAR
STARTCHAR 05E6
ENCODING 1510
SWIDTH 647 0
DWIDTH 11 0
BBX 9 9 1 0
BITMAP
E380
7380
7380
3B00
1F00
1E00
0E00
FF00
FF00
ENDCHAR
STARTCHAR 05E7
ENCODING 1511
SWIDTH 764 0
DWIDTH 13 0
BBX 9 13 2 -4
BITMAP
FF80
FF80
0380
4300
C700
C700
CE00
CE00
CE00
C000
C000
C000
C000
ENDCHAR
STARTCHAR 05E8
ENCODING 1512
SWIDTH 588 0
DWIDTH 10 0
BBX 8 9 1 0
BITMAP
FC
FE
0E
07
07
07
07
07
07
ENDCHAR
STARTCHAR 05E9
ENCODING 1513
SWIDTH 764 0
DWIDTH 13 0
BBX 13 9 0 0
BITMAP
E738
6738
6730
7E70
7C70
70E0
71E0
7FC0
7F00
ENDCHAR
STARTCHAR 05EA
ENCODING 1514
SWIDTH 705 0
DWIDTH 12 0
BBX 10 9 0 0
BITMAP
FF00
FF80
39C0
39C0
39C0
39C0
39C0
F1C0
F1C0
ENDCHAR
STARTCHAR 05F0
ENCODING 1520
SWIDTH 647 0
DWIDTH 11 0
BBX 8 9 2 0
BITMAP
C7
C7
C7
C7
C7
C7
C7
C7
C7
ENDCHAR
STARTCHAR 05F1
ENCODING 1521
SWIDTH 588 0
DWIDTH 10 0
BBX 8 9 1 0
BITMAP
E7
E7
E7
E7
E7
C7
07
07
07
ENDCHAR
STARTCHAR 05F2
ENCODING 1522
SWIDTH 529 0
DWIDTH 9 0
BBX 7 6 1 3
BITMAP
E6
E6
E6
E6
E6
C4
ENDCHAR
STARTCHAR 05F3
ENCODING 1523
SWIDTH 470 0
DWIDTH 8 0
BBX 4 3 2 6
BITMAP
70
C0
80
ENDCHAR
STARTCHAR 05F4
ENCODING 1524
SWIDTH 705 0
DWIDTH 12 0
BBX 8 3 2 6
BITMAP
73
C6
8C
ENDCHAR
STARTCHAR 0606
ENCODING 1542
SWIDTH 647 0
DWIDTH 11 0
BBX 10 15 0 0
BITMAP
0D40
CFC0
4600
6600
2600
3600
3000
11C0
1980
0980
0B00
0F00
0700
0600
0600
ENDCHAR
STARTCHAR 0607
ENCODING 1543
SWIDTH 647 0
DWIDTH 11 0
BBX 10 15 0 0
BITMAP
0380
C600
4300
6600
2C00
3780
3000
11C0
1980
0980
0B00
0F00
0700
0600
0600
ENDCHAR
STARTCHAR 0609
ENCODING 1545
SWIDTH 882 0
DWIDTH 15 0
BBX 13 11 1 0
BITMAP
E300
E200
E600
0400
0C00
1800
1800
3000
2000
6338
C338
ENDCHAR
STARTCHAR 060A
ENCODING 1546
SWIDTH 1176 0
DWIDTH 20 0
BBX 17 11 1 0
BITMAP
E30000
E20000
E60000
040000
0C0000
180000
180000
300000
200000
633980
C33980
ENDCHAR
STARTCHAR 060C
ENCODING 1548
SWIDTH 352 0
DWIDTH 6 0
BBX 3 6 2 0
BITMAP
20
60
E0
E0
E0
E0
ENDCHAR
STARTCHAR 0615
ENCODING 1557
SWIDTH 0 0
DWIDTH 0 0
BBX 4 5 2 10
BITMAP
40
40
70
F0
E0
ENDCHAR
STARTCHAR 061B
ENCODING 1563
SWIDTH 411 0
DWIDTH 7 0
BBX 3 12 2 0
BITMAP
20
60
E0
E0
E0
E0
00
00
00
E0
E0
E0
ENDCHAR
STARTCHAR 061F
ENCODING 1567
SWIDTH 588 0
DWIDTH 10 0
BBX 8 13 1 0
BITMAP
1C
7F
FF
E1
E0
70
38
1C
1C
00
1C
1C
1C
ENDCHAR
STARTCHAR 0621
ENCODING 1569
SWIDTH 529 0
DWIDTH 9 0
BBX 6 8 1 0
BITMAP
7C
FC
E0
E0
7C
7C
F8
80
ENDCHAR
STARTCHAR 0622
ENCODING 1570
SWIDTH 352 0
DWIDTH 6 0
BBX 6 16 0 1
BITMAP
EC
B8
00
70
70
70
70
70
70
70
70
70
70
70
70
70
ENDCHAR
STARTCHAR 0623
ENCODING 1571
SWIDTH 352 0
DWIDTH 6 0
BBX 3 17 1 0
BITMAP
60
C0
C0
E0
E0
E0
E0
E0
E0
E0
E0
E0
E0
E0
E0
E0
E0
ENDCHAR
STARTCHAR 0624
ENCODING 1572
SWIDTH 647 0
DWIDTH 11 0
BBX 10 14 -1 -4
BITMAP
0700
0500
0500
0600
0000
1F80
1DC0
39C0
1FC0
0FC0
01C0
07C0
FF80
FE00
ENDCHAR
STARTCHAR 0625
ENCODING 1573
SWIDTH 352 0
DWIDTH 6 0
BBX 3 17 1 -4
BITMAP
E0
E0
E0
E0
E0
E0
E0
E0
E0
E0
E0
E0
E0
60
C0
C0
E0
ENDCHAR
STARTCHAR 0626
ENCODING 1574
SWIDTH 941 0
DWIDTH 16 0
BBX 14 12 1 -2
BITMAP
1800
2000
39F0
3BF8
039C
03E0
00F0
E038
E038
F1F8
7FE0
3F00
ENDCHAR
STARTCHAR 0627
ENCODING 1575
SWIDTH 352 0
DWIDTH 6 0
BBX 3 13 1 0
BITMAP
E0
E0
E0
E0
E0
E0
E0
E0
E0
E0
E0
E0
E0
ENDCHAR
STARTCHAR 0628
ENCODING 1576
SWIDTH 1000 0
DWIDTH 17 0
BBX 15 9 1 -3
BITMAP
000E
E00E
E01E
F07C
7FF8
3FE0
0000
0000
0300
ENDCHAR
STARTCHAR 0629
ENCODING 1577
SWIDTH 588 0
DWIDTH 10 0
BBX 8 8 1 -1
BITMAP
68
00
7C
FE
E7
E7
FF
FE
ENDCHAR
STARTCHAR 062A
ENCODING 1578
SWIDTH 1000 0
DWIDTH 17 0
BBX 15 7 1 0
BITMAP
0680
000E
E00E
E01E
F07C
7FF8
3FE0
ENDCHAR
STARTCHAR 062B
ENCODING 1579
SWIDTH 1000 0
DWIDTH 17 0
BBX 15 9 1 0
BITMAP
0300
0000
0680
000E
E00E
E01E
F07C
7FF8
3FE0
ENDCHAR
STARTCHAR 062C
ENCODING 1580
SWIDTH 705 0
DWIDTH 12 0
BBX 11 11 1 -4
BITMAP
FFC0
FFC0
1E00
3800
7000
7000
E100
7000
7820
3FE0
1FE0
ENDCHAR
STARTCHAR 062D
ENCODING 1581
SWIDTH 705 0
DWIDTH 12 0
BBX 11 11 1 -4
BITMAP
FFC0
FFC0
1E00
3800
7000
7000
E000
7000
7820
3FE0
1FE0
ENDCHAR
STARTCHAR 062E
ENCODING 1582
SWIDTH 705 0
DWIDTH 12 0
BBX 11 14 1 -4
BITMAP
0800
0000
0000
FFC0
FFC0
1E00
3800
7000
7000
E000
7000
7820
3FE0
1FE0
ENDCHAR
STARTCHAR 062F
ENCODING 1583
SWIDTH 529 0
DWIDTH 9 0
BBX 7 7 1 0
BITMAP
38
1C
0C
0E
0E
FC
F8
ENDCHAR
STARTCHAR 0630
ENCODING 1584
SWIDTH 529 0
DWIDTH 9 0
BBX 7 10 1 0
BITMAP
10
00
00
38
1C
0C
0E
0E
FC
F8
ENDCHAR
STARTCHAR 0631
ENCODING 1585
SWIDTH 588 0
DWIDTH 10 0
BBX 10 9 -1 -4
BITMAP
0380
01C0
01C0
01C0
0380
0380
0F00
FE00
FC00
ENDCHAR
STARTCHAR 0632
ENCODING 1586
SWIDTH 588 0
DWIDTH 10 0
BBX 10 12 -1 -4
BITMAP
0100
0000
0000
0380
01C0
01C0
01C0
0380
0380
0F00
FE00
FC00
ENDCHAR
STARTCHAR 0633
ENCODING 1587
SWIDTH 1352 0
DWIDTH 23 0
BBX 21 10 1 -4
BITMAP
000038
00E738
00E738
70E738
E0FFF8
E0FDF0
E1E000
F3C000
7FC000
3F0000
ENDCHAR
STARTCHAR 0634
ENCODING 1588
SWIDTH 1352 0
DWIDTH 23 0
BBX 21 14 1 -4
BITMAP
000800
000000
001400
000000
000038
00E738
00E738
70E738
E0FFF8
E0FDF0
E1E000
F3C000
7FC000
3F0000
ENDCHAR
STARTCHAR 0635
ENCODING 1589
SWIDTH 1352 0
DWIDTH 23 0
BBX 20 10 1 -4
BITMAP
0003E0
000FF0
00CE30
70FCF0
E0FFF0
E0FFC0
E1E000
F3C000
7FC000
3F0000
ENDCHAR
STARTCHAR 0636
ENCODING 1590
SWIDTH 1352 0
DWIDTH 23 0
BBX 20 12 1 -4
BITMAP
003000
000000
0003E0
000FF0
00CE30
70FCF0
E0FFF0
E0FFC0
E1E000
F3C000
7FC000
3F0000
ENDCHAR
STARTCHAR 0637
ENCODING 1591
SWIDTH 1058 0
DWIDTH 18 0
BBX 16 13 1 0
BITMAP
1C00
1C00
1C00
1C00
1C00
1C00
1C00
1C7C
1DFE
1FC7
1F9E
FFFE
FFF8
ENDCHAR
STARTCHAR 0638
ENCODING 1592
SWIDTH 1058 0
DWIDTH 18 0
BBX 16 13 1 0
BITMAP
1C00
1C00
1C00
1C00
1C00
1CC0
1C00
1C7C
1DFE
1FC7
1F9E
FFFE
FFF8
ENDCHAR
STARTCHAR 0639
ENCODING 1593
SWIDTH 705 0
DWIDTH 12 0
BBX 10 13 2 -4
BITMAP
3C00
7C00
F000
E100
FF00
7F00
F000
E000
C000
E000
E040
FFC0
3FC0
ENDCHAR
STARTCHAR 063A
ENCODING 1594
SWIDTH 705 0
DWIDTH 12 0
BBX 10 15 2 -4
BITMAP
2000
0000
3C00
7C00
F000
E100
FF00
7F00
F000
E000
C000
E000
E040
FFC0
3FC0
ENDCHAR
STARTCHAR 0640
ENCODING 1600
SWIDTH 352 0
DWIDTH 6 0
BBX 6 2 0 0
BITMAP
FC
FC
ENDCHAR
STARTCHAR 0641
ENCODING 1601
SWIDTH 1176 0
DWIDTH 20 0
BBX 17 10 1 0
BITMAP
000400
000000
003F00
003F80
007380
703F80
E03F80
E00780
FFFF80
7FFE00
ENDCHAR
STARTCHAR 0642
ENCODING 1602
SWIDTH 882 0
DWIDTH 15 0
BBX 13 15 1 -4
BITMAP
01E0
0000
0000
03F0
07F8
0738
07F8
73F8
E038
E038
E070
E0F0
F7E0
7F80
1E00
ENDCHAR
STARTCHAR 0643
ENCODING 1603
SWIDTH 941 0
DWIDTH 16 0
BBX 13 13 1 0
BITMAP
0038
0038
0038
0338
0438
0638
0138
0E38
0038
0038
E078
FFF0
7FE0
ENDCHAR
STARTCHAR 0644
ENCODING 1604
SWIDTH 882 0
DWIDTH 15 0
BBX 12 16 1 -3
BITMAP
0070
0070
0070
0070
0070
0070
0070
0070
0070
0070
7070
E070
E070
F1E0
7FC0
1E00
ENDCHAR
STARTCHAR 0645
ENCODING 1605
SWIDTH 705 0
DWIDTH 12 0
BBX 10 10 1 -4
BITMAP
0F80
1FC0
1DC0
7FC0
FFC0
E000
E000
E000
E000
E000
ENDCHAR
STARTCHAR 0646
ENCODING 1606
SWIDTH 882 0
DWIDTH 15 0
BBX 12 11 1 -3
BITMAP
0400
0000
0070
0070
E070
E070
E070
E070
F9E0
7FE0
1F80
ENDCHAR
STARTCHAR 0647
ENCODING 1607
SWIDTH 588 0
DWIDTH 10 0
BBX 8 6 1 -1
BITMAP
7C
FE
E7
E7
FF
FE
ENDCHAR
STARTCHAR 0648
ENCODING 1608
SWIDTH 647 0
DWIDTH 11 0
BBX 10 9 -1 -4
BITMAP
1F80
1DC0
39C0
1FC0
0FC0
01C0
07C0
FF80
FE00
ENDCHAR
STARTCHAR 0649
ENCODING 1609
SWIDTH 941 0
DWIDTH 16 0
BBX 14 10 1 -2
BITMAP
01F0
03F8
039C
03E0
00F0
E038
E038
F1F8
7FE0
3F00
ENDCHAR
STARTCHAR 064A
ENCODING 1610
SWIDTH 941 0
DWIDTH 16 0
BBX 14 12 1 -4
BITMAP
01F0
03F8
039C
03E0
00F0
E038
E038
F1F8
7FE0
3F00
0000
0F00
ENDCHAR
STARTCHAR 064B
ENCODING 1611
SWIDTH 0 0
DWIDTH 0 0
BBX 5 4 2 10
BITMAP
38
E0
78
C0
ENDCHAR
STARTCHAR 064C
ENCODING 1612
SWIDTH 0 0
DWIDTH 0 0
BBX 5 5 2 10
BITMAP
30
50
B8
B0
E0
ENDCHAR
STARTCHAR 064D
ENCODING 1613
SWIDTH 0 0
DWIDTH 0 0
BBX 5 4 2 -4
BITMAP
18
F0
38
C0
ENDCHAR
STARTCHAR 064E
ENCODING 1614
SWIDTH 0 0
DWIDTH 0 0
BBX 5 2 2 10
BITMAP
78
C0
ENDCHAR
STARTCHAR 064F
ENCODING 1615
SWIDTH 0 0
DWIDTH 0 0
BBX 5 5 2 10
BITMAP
30
50
38
60
C0
ENDCHAR
STARTCHAR 0650
ENCODING 1616
SWIDTH 0 0
DWIDTH 0 0
BBX 5 2 2 -2
BITMAP
18
F0
ENDCHAR
STARTCHAR 0651
ENCODING 1617
SWIDTH 0 0
DWIDTH 0 0
BBX 5 5 2 10
BITMAP
08
A8
A8
F8
C0
ENDCHAR
STARTCHAR 0652
ENCODING 1618
SWIDTH 0 0
DWIDTH 0 0
BBX 5 5 2 10
BITMAP
70
D0
98
F0
60
ENDCHAR
STARTCHAR 0653
ENCODING 1619
SWIDTH 0 0
DWIDTH 0 0
BBX 7 3 1 10
BITMAP
02
E6
B8
ENDCHAR
STARTCHAR 0654
ENCODING 1620
SWIDTH 0 0
DWIDTH 0 0
BBX 3 4 3 10
BITMAP
E0
A0
A0
C0
ENDCHAR
STARTCHAR 0655
ENCODING 1621
SWIDTH 0 0
DWIDTH 0 0
BBX 3 4 3 -4
BITMAP
E0
A0
A0
C0
ENDCHAR
STARTCHAR 0657
ENCODING 1623
SWIDTH 0 0
DWIDTH 0 0
BBX 5 5 2 10
BITMAP
38
C0
E0
E0
40
ENDCHAR
STARTCHAR 065A
ENCODING 1626
SWIDTH 529 0
DWIDTH 9 0
BBX 4 3 2 10
BITMAP
D0
70
60
ENDCHAR
STARTCHAR 0660
ENCODING 1632
SWIDTH 588 0
DWIDTH 10 0
BBX 3 3 4 3
BITMAP
E0
E0
E0
ENDCHAR
STARTCHAR 0661
ENCODING 1633
SWIDTH 588 0
DWIDTH 10 0
BBX 5 11 2 0
BITMAP
F0
70
70
38
38
38
38
38
38
38
38
ENDCHAR
STARTCHAR 0662
ENCODING 1634
SWIDTH 588 0
DWIDTH 10 0
BBX 10 11 0 0
BITMAP
E1C0
71C0
7FC0
7F80
3800
3800
3800
3800
3800
3800
3800
ENDCHAR
STARTCHAR 0663
ENCODING 1635
SWIDTH 588 0
DWIDTH 10 0
BBX 10 11 0 0
BITMAP
E6C0
76C0
7FC0
7FC0
3800
3800
3800
3800
3800
3800
3800
ENDCHAR
STARTCHAR 0664
ENCODING 1636
SWIDTH 588 0
DWIDTH 10 0
BBX 8 11 1 0
BITMAP
0E
3E
78
70
3C
7C
70
E0
E0
7F
3F
ENDCHAR
STARTCHAR 0665
ENCODING 1637
SWIDTH 588 0
DWIDTH 10 0
BBX 8 11 1 0
BITMAP
1C
3E
76
67
E7
E7
E7
E7
F7
7F
3E
ENDCHAR
STARTCHAR 0666
ENCODING 1638
SWIDTH 588 0
DWIDTH 10 0
BBX 9 11 1 0
BITMAP
8200
FE00
FE00
0700
0700
0700
0700
0700
0700
0700
0380
ENDCHAR
STARTCHAR 0667
ENCODING 1639
SWIDTH 588 0
DWIDTH 10 0
BBX 10 11 0 0
BITMAP
E1C0
73C0
7380
3B80
3F00
3F00
1F00
1E00
1E00
1E00
0E00
ENDCHAR
STARTCHAR 0668
ENCODING 1640
SWIDTH 588 0
DWIDTH 10 0
BBX 10 11 0 0
BITMAP
0E00
1E00
1E00
1E00
1F00
3F00
3F00
3B80
7380
7380
F1C0
ENDCHAR
STARTCHAR 0669
ENCODING 1641
SWIDTH 588 0
DWIDTH 10 0
BBX 9 11 1 0
BITMAP
7C00
FE00
EF00
E700
FF00
7F00
0700
0700
0700
0380
0380
ENDCHAR
STARTCHAR 066A
ENCODING 1642
SWIDTH 588 0
DWIDTH 10 0
BBX 8 11 1 0
BITMAP
E3
E2
E6
04
0C
18
18
30
20
63
C3
ENDCHAR
STARTCHAR 066B
ENCODING 1643
SWIDTH 352 0
DWIDTH 6 0
BBX 6 7 0 -2
BITMAP
0C
0C
0C
18
38
F0
E0
ENDCHAR
STARTCHAR 066C
ENCODING 1644
SWIDTH 352 0
DWIDTH 6 0
BBX 4 5 1 7
BITMAP
70
70
70
60
C0
ENDCHAR
STARTCHAR 066D
ENCODING 1645
SWIDTH 529 0
DWIDTH 9 0
BBX 7 7 1 2
BITMAP
10
10
10
FE
38
38
44
ENDCHAR
STARTCHAR 066E
ENCODING 1646
SWIDTH 1000 0
DWIDTH 17 0
BBX 15 6 1 0
BITMAP
000E
E00E
E01E
F07C
7FF8
3FE0
ENDCHAR
STARTCHAR 066F
ENCODING 1647
SWIDTH 882 0
DWIDTH 15 0
BBX 13 12 1 -4
BITMAP
03F0
07F8
0738
07F8
73F8
E038
E038
E070
E0F0
F7E0
7F80
1E00
ENDCHAR
STARTCHAR 0670
ENCODING 1648
SWIDTH 0 0
DWIDTH 0 0
BBX 1 5 4 10
BITMAP
80
80
80
80
80
ENDCHAR
STARTCHAR 0674
ENCODING 1652
SWIDTH 294 0
DWIDTH 5 0
BBX 3 4 1 11
BITMAP
60
80
A0
E0
ENDCHAR
STARTCHAR 0679
ENCODING 1657
SWIDTH 1000 0
DWIDTH 17 0
BBX 15 10 1 0
BITMAP
0600
0600
0780
0780
070E
E00E
E01E
F07C
7FF8
3FE0
ENDCHAR
STARTCHAR 067A
ENCODING 1658
SWIDTH 1000 0
DWIDTH 17 0
BBX 15 9 1 0
BITMAP
0300
0000
0300
000E
E00E
E01E
F07C
7FF8
3FE0
ENDCHAR
STARTCHAR 067B
ENCODING 1659
SWIDTH 1000 0
DWIDTH 17 0
BBX 15 10 1 -4
BITMAP
000E
E00E
E01E
F07C
7FF8
3FE0
0000
0300
0000
0300
ENDCHAR
STARTCHAR 067C
ENCODING 1660
SWIDTH 1000 0
DWIDTH 17 0
BBX 15 10 1 -3
BITMAP
0680
000E
E00E
E01E
F07C
7FF8
3FE0
0780
0480
0300
ENDCHAR
STARTCHAR 067D
ENCODING 1661
SWIDTH 1000 0
DWIDTH 17 0
BBX 15 9 1 0
BITMAP
0680
0000
0300
000E
E00E
E01E
F07C
7FF8
3FE0
ENDCHAR
STARTCHAR 067E
ENCODING 1662
SWIDTH 1000 0
DWIDTH 17 0
BBX 15 10 1 -4
BITMAP
000E
E00E
E01E
F07C
7FF8
3FE0
0000
0680
0000
0300
ENDCHAR
STARTCHAR 067F
ENCODING 1663
SWIDTH 1000 0
DWIDTH 17 0
BBX 15 9 1 0
BITMAP
0680
0000
0680
000E
E00E
E01E
F07C
7FF8
3FE0
ENDCHAR
STARTCHAR 0680
ENCODING 1664
SWIDTH 1000 0
DWIDTH 17 0
BBX 15 10 1 -4
BITMAP
000E
E00E
E01E
F07C
7FF8
3FE0
0000
0680
0000
0680
ENDCHAR
STARTCHAR 0681
ENCODING 1665
SWIDTH 705 0
DWIDTH 12 0
BBX 11 16 1 -4
BITMAP
0C00
1800
1800
1C00
0000
FFC0
FFC0
1E00
3800
7000
7000
E000
7000
7820
3FE0
1FE0
ENDCHAR
STARTCHAR 0682
ENCODING 1666
SWIDTH 705 0
DWIDTH 12 0
BBX 11 16 1 -4
BITMAP
0800
0000
0800
0000
0000
FFC0
FFC0
1E00
3800
7000
7000
E000
7000
7820
3FE0
1FE0
ENDCHAR
STARTCHAR 0683
ENCODING 1667
SWIDTH 705 0
DWIDTH 12 0
BBX 11 11 1 -4
BITMAP
FFC0
FFC0
1E00
3800
7000
7000
E280
7000
7820
3FE0
1FE0
ENDCHAR
STARTCHAR 0684
ENCODING 1668
SWIDTH 705 0
DWIDTH 12 0
BBX 11 11 1 -4
BITMAP
FFC0
FFC0
1E00
3800
7100
7000
E100
7000
7820
3FE0
1FE0
ENDCHAR
STARTCHAR 0685
ENCODING 1669
SWIDTH 705 0
DWIDTH 12 0
BBX 11 16 1 -4
BITMAP
0800
0000
1400
0000
0000
FFC0
FFC0
1E00
3800
7000
7000
E000
7000
7820
3FE0
1FE0
ENDCHAR
STARTCHAR 0686
ENCODING 1670
SWIDTH 705 0
DWIDTH 12 0
BBX 11 11 1 -4
BITMAP
FFC0
FFC0
1E00
3800
7000
7280
E000
7100
7820
3FE0
1FE0
ENDCHAR
STARTCHAR 0687
ENCODING 1671
SWIDTH 705 0
DWIDTH 12 0
BBX 11 11 1 -4
BITMAP
FFC0
FFC0
1E00
3800
7000
7280
E000
7280
7820
3FE0
1FE0
ENDCHAR
STARTCHAR 0688
ENCODING 1672
SWIDTH 470 0
DWIDTH 8 0
BBX 7 13 1 0
BITMAP
20
20
38
78
70
00
38
1C
0C
0E
0E
FC
F8
ENDCHAR
STARTCHAR 0689
ENCODING 1673
SWIDTH 470 0
DWIDTH 8 0
BBX 7 10 1 -3
BITMAP
38
1C
0C
0E
0E
FC
F8
28
28
38
ENDCHAR
STARTCHAR 068A
ENCODING 1674
SWIDTH 470 0
DWIDTH 8 0
BBX 7 10 1 -3
BITMAP
38
1C
0C
0E
0E
FC
F8
00
00
10
ENDCHAR
STARTCHAR 068B
ENCODING 1675
SWIDTH 470 0
DWIDTH 8 0
BBX 7 16 1 -3
BITMAP
20
20
38
78
70
00
38
1C
0C
0E
0E
FC
F8
00
00
10
ENDCHAR
STARTCHAR 068C
ENCODING 1676
SWIDTH 470 0
DWIDTH 8 0
BBX 7 10 1 0
BITMAP
28
00
00
38
1C
0C
0E
0E
FC
F8
ENDCHAR
STARTCHAR 068D
ENCODING 1677
SWIDTH 470 0
DWIDTH 8 0
BBX 7 9 1 -2
BITMAP
38
1C
0C
0E
0E
FC
F8
00
28
ENDCHAR
STARTCHAR 068E
ENCODING 1678
SWIDTH 470 0
DWIDTH 8 0
BBX 7 12 1 0
BITMAP
10
00
28
00
00
38
1C
0C
0E
0E
FC
F8
ENDCHAR
STARTCHAR 068F
ENCODING 1679
SWIDTH 470 0
DWIDTH 8 0
BBX 7 11 1 0
BITMAP
28
00
10
00
38
1C
0C
0E
0E
FC
F8
ENDCHAR
STARTCHAR 0690
ENCODING 1680
SWIDTH 470 0
DWIDTH 8 0
BBX 7 12 1 0
BITMAP
28
00
28
00
00
38
1C
0C
0E
0E
FC
F8
ENDCHAR
STARTCHAR 0691
ENCODING 1681
SWIDTH 588 0
DWIDTH 10 0
BBX 10 15 -1 -4
BITMAP
0200
0200
03C0
07C0
0780
0000
0380
01C0
01C0
01C0
0380
0380
0F00
FE00
FC00
ENDCHAR
STARTCHAR 0692
ENCODING 1682
SWIDTH 588 0
DWIDTH 10 0
BBX 10 13 -1 -4
BITMAP
06C0
0380
0180
0000
0380
01C0
01C0
01C0
0380
0380
0F00
FE00
FC00
ENDCHAR
STARTCHAR 0693
ENCODING 1683
SWIDTH 588 0
DWIDTH 10 0
BBX 11 9 -1 -4
BITMAP
0380
01C0
01C0
01C0
0380
03C0
0FE0
FFA0
FCC0
ENDCHAR
STARTCHAR 0694
ENCODING 1684
SWIDTH 588 0
DWIDTH 10 0
BBX 10 9 -1 -4
BITMAP
0380
01C0
01C0
01C0
0380
0380
0F00
FE00
FC40
ENDCHAR
STARTCHAR 0695
ENCODING 1685
SWIDTH 705 0
DWIDTH 12 0
BBX 13 10 -1 -5
BITMAP
0380
01C0
01C0
01C0
0380
0380
0F00
FE68
FC38
0030
ENDCHAR
STARTCHAR 0696
ENCODING 1686
SWIDTH 588 0
DWIDTH 10 0
BBX 10 9 -1 -4
BITMAP
0380
01C0
01C0
01C0
1B80
0380
0F00
FE00
FC40
ENDCHAR
STARTCHAR 0697
ENCODING 1687
SWIDTH 588 0
DWIDTH 10 0
BBX 10 12 -1 -4
BITMAP
0280
0000
0000
0380
01C0
01C0
01C0
0380
0380
0F00
FE00
FC00
ENDCHAR
STARTCHAR 0698
ENCODING 1688
SWIDTH 588 0
DWIDTH 10 0
BBX 10 14 -1 -4
BITMAP
0100
0000
0280
0000
0000
0380
01C0
01C0
01C0
0380
0380
0F00
FE00
FC00
ENDCHAR
STARTCHAR 0699
ENCODING 1689
SWIDTH 588 0
DWIDTH 10 0
BBX 10 14 -1 -4
BITMAP
0280
0000
0280
0000
0000
0380
01C0
01C0
01C0
0380
0380
0F00
FE00
FC00
ENDCHAR
STARTCHAR 069A
ENCODING 1690
SWIDTH 1352 0
DWIDTH 23 0
BBX 21 12 1 -4
BITMAP
001800
000000
000038
00E738
00E738
70E738
E0FFF8
E0FDF0
E1E000
F3C000
7FC400
3F0000
ENDCHAR
STARTCHAR 069B
ENCODING 1691
SWIDTH 1352 0
DWIDTH 23 0
BBX 21 10 1 -4
BITMAP
000038
00E738
00E738
70E738
E0FFF8
E0FDF0
E1E000
F3CA00
7FC000
3F0400
ENDCHAR
STARTCHAR 069C
ENCODING 1692
SWIDTH 1352 0
DWIDTH 23 0
BBX 21 14 1 -4
BITMAP
001800
000000
003C00
000000
000038
00E738
00E738
70E738
E0FFF8
E0FDF0
E1E000
F3CA00
7FC000
3F0400
ENDCHAR
STARTCHAR 069D
ENCODING 1693
SWIDTH 1352 0
DWIDTH 23 0
BBX 20 10 1 -4
BITMAP
0003E0
000FF0
00CE30
70FCF0
E0FFF0
E0FFC0
E1E000
F3C000
7FCA00
3F0000
ENDCHAR
STARTCHAR 069E
ENCODING 1694
SWIDTH 1352 0
DWIDTH 23 0
BBX 20 14 1 -4
BITMAP
001000
000000
002800
000000
0003E0
000FF0
00CE30
70FCF0
E0FFF0
E0FFC0
E1E000
F3C000
7FC000
3F0000
ENDCHAR
STARTCHAR 069F
ENCODING 1695
SWIDTH 1058 0
DWIDTH 18 0
BBX 16 13 1 0
BITMAP
1C00
1C00
1C00
1C40
1C00
1CA0
1C00
1C7C
1DFE
1FC7
1F9E
FFFE
FFF8
ENDCHAR
STARTCHAR 06A0
ENCODING 1696
SWIDTH 705 0
DWIDTH 12 0
BBX 10 17 2 -4
BITMAP
1000
0000
2800
0000
3C00
7C00
F000
E100
FF00
7F00
F000
E000
C000
E000
E040
FFC0
3FC0
ENDCHAR
STARTCHAR 06A1
ENCODING 1697
SWIDTH 1176 0
DWIDTH 20 0
BBX 17 8 1 0
BITMAP
003F00
003F80
007380
703F80
E03F80
E00780
FFFF80
7FFE00
ENDCHAR
STARTCHAR 06A2
ENCODING 1698
SWIDTH 1176 0
DWIDTH 20 0
BBX 17 11 1 -3
BITMAP
003F00
003F80
007380
703F80
E03F80
E00780
FFFF80
7FFE00
000000
000000
018000
ENDCHAR
STARTCHAR 06A3
ENCODING 1699
SWIDTH 1176 0
DWIDTH 20 0
BBX 17 14 1 -3
BITMAP
000400
000000
000000
003F00
003F80
007380
703F80
E03F80
E00780
FFFF80
7FFE00
000000
000000
018000
ENDCHAR
STARTCHAR 06A4
ENCODING 1700
SWIDTH 1176 0
DWIDTH 20 0
BBX 17 13 1 0
BITMAP
000400
000000
000A00
000000
000000
003F00
003F80
007380
703F80
E03F80
E00780
FFFF80
7FFE00
ENDCHAR
STARTCHAR 06A5
ENCODING 1701
SWIDTH 1176 0
DWIDTH 20 0
BBX 17 13 1 -5
BITMAP
003F00
003F80
007380
703F80
E03F80
E00780
FFFF80
7FFE00
000000
000000
03C000
000000
018000
ENDCHAR
STARTCHAR 06A6
ENCODING 1702
SWIDTH 1176 0
DWIDTH 20 0
BBX 17 13 1 0
BITMAP
000A00
000000
000A00
000000
000000
003F00
003F80
007380
703F80
E03F80
E00780
FFFF80
7FFE00
ENDCHAR
STARTCHAR 06A7
ENCODING 1703
SWIDTH 882 0
DWIDTH 15 0
BBX 13 15 1 -4
BITMAP
0080
0000
0000
03F0
07F8
0738
07F8
73F8
E038
E038
E070
E0F0
F7E0
7F80
1E00
ENDCHAR
STARTCHAR 06A8
ENCODING 1704
SWIDTH 882 0
DWIDTH 15 0
BBX 13 17 1 -4
BITMAP
0080
0000
0140
0000
0000
03F0
07F8
0738
07F8
73F8
E038
E038
E070
E0F0
F7E0
7F80
1E00
ENDCHAR
STARTCHAR 06A9
ENCODING 1705
SWIDTH 1000 0
DWIDTH 17 0
BBX 16 14 1 -1
BITMAP
0001
000F
007F
00F8
01E0
00E0
00F0
0078
7038
E01C
E01C
FDFC
7FF8
1FC0
ENDCHAR
STARTCHAR 06AA
ENCODING 1706
SWIDTH 1294 0
DWIDTH 22 0
BBX 19 14 1 -1
BITMAP
007E00
01F000
07C000
1F0000
1E0000
1F0000
0FFC00
01FFC0
7007E0
E000E0
E000E0
FC07E0
7FFFC0
1FFE00
ENDCHAR
STARTCHAR 06AB
ENCODING 1707
SWIDTH 1000 0
DWIDTH 17 0
BBX 16 14 1 -1
BITMAP
0001
000F
007F
00FF
01E9
00E6
00F0
0078
7038
E01C
E01C
FDFC
7FF8
1FC0
ENDCHAR
STARTCHAR 06AC
ENCODING 1708
SWIDTH 941 0
DWIDTH 16 0
BBX 13 13 1 0
BITMAP
0038
0238
0038
0338
0438
0638
0138
0E38
0038
0038
E078
FFF0
7FE0
ENDCHAR
STARTCHAR 06AD
ENCODING 1709
SWIDTH 941 0
DWIDTH 16 0
BBX 13 14 1 0
BITMAP
0200
0038
0538
0038
0338
0438
0638
0138
0E38
0038
0038
E078
FFF0
7FE0
ENDCHAR
STARTCHAR 06AE
ENCODING 1710
SWIDTH 941 0
DWIDTH 16 0
BBX 13 18 1 -5
BITMAP
0038
0038
0038
0338
0438
0638
0138
0E38
0038
0038
E078
FFF0
7FE0
0000
0000
0500
0000
0200
ENDCHAR
STARTCHAR 06AF
ENCODING 1711
SWIDTH 1000 0
DWIDTH 17 0
BBX 16 16 1 -1
BITMAP
0007
003E
00F1
008F
007F
00F8
01E0
00E0
00F0
0078
7038
E01C
E01C
FDFC
7FF8
1FC0
ENDCHAR
ENDFONT
